<?xml version="1.0" standalone="no"?>
<!DOCTYPE svg PUBLIC "-//W3C//DTD SVG 20010904//EN"
 "http://www.w3.org/TR/2001/REC-SVG-20010904/DTD/svg10.dtd">
<svg version="1.0" xmlns="http://www.w3.org/2000/svg"
 width="256.000000pt" height="256.000000pt" viewBox="0 0 256.000000 256.000000"
 preserveAspectRatio="xMidYMid meet">
<metadata>
Created by potrace 1.14, written by Peter Selinger 2001-2017
</metadata>
<g transform="translate(0.000000,256.000000) scale(0.100000,-0.100000)"
fill="#000000" stroke="none">
<path d="M267 2549 c-97 -23 -190 -101 -235 -197 l-27 -57 0 -1010 0 -1010 24
-58 c31 -78 110 -157 188 -188 l58 -24 1005 0 1005 0 58 24 c78 31 157 110
188 188 l24 58 0 1005 0 1005 -24 58 c-31 78 -110 157 -188 188 l-58 24 -990
2 c-556 0 -1007 -3 -1028 -8z m1101 -484 c20 -9 80 -58 132 -109 105 -102 324
-305 439 -406 41 -36 80 -79 87 -97 11 -25 14 -111 14 -388 0 -390 0 -388 -60
-439 l-32 -26 -254 0 -254 0 0 223 c0 129 -5 239 -11 262 -21 78 -82 120 -164
113 -57 -5 -93 -27 -122 -73 -16 -26 -19 -61 -23 -275 l-5 -245 -252 -3 -251
-2 -31 26 c-61 51 -61 49 -61 439 0 281 3 363 14 389 18 44 601 580 659 607
51 23 125 24 175 4z"/>
<path d="M1237 2028 c-20 -5 -61 -31 -90 -56 -137 -122 -548 -506 -562 -525
-13 -18 -15 -76 -15 -379 l0 -358 29 -32 c29 -32 30 -33 123 -33 l93 0 6 245
c4 215 8 252 26 302 58 157 199 272 367 300 188 31 386 -72 471 -246 48 -96
59 -190 51 -418 l-7 -178 101 0 c99 0 102 1 131 29 l29 29 0 359 0 359 -27 31
c-54 62 -586 555 -607 562 -41 16 -82 19 -119 9z"/>
<path d="M1180 1436 c-80 -22 -124 -49 -191 -115 -48 -49 -72 -82 -90 -126
-22 -57 -23 -71 -24 -305 l0 -245 95 0 95 0 5 230 c6 255 8 265 76 324 46 41
73 51 135 51 91 0 176 -66 198 -156 6 -24 11 -133 11 -246 l0 -203 96 3 95 3
-3 252 c-3 250 -3 253 -30 310 -83 176 -286 273 -468 223z"/>
</g>
</svg>
