<?xml version="1.0" encoding="UTF-8" standalone="no"?>
<svg
   width="18"
   height="18"
   viewBox="0 0 18 18"
   fill="none"
   version="1.1"
   id="svg6"
   sodipodi:docname="arrow-bold.svg"
   inkscape:version="1.1.1 (3bf5ae0d25, 2021-09-20)"
   xmlns:inkscape="http://www.inkscape.org/namespaces/inkscape"
   xmlns:sodipodi="http://sodipodi.sourceforge.net/DTD/sodipodi-0.dtd"
   xmlns="http://www.w3.org/2000/svg"
   xmlns:svg="http://www.w3.org/2000/svg">
  <defs
     id="defs10" />
  <sodipodi:namedview
     id="namedview8"
     pagecolor="#ffffff"
     bordercolor="#666666"
     borderopacity="1.0"
     inkscape:pageshadow="2"
     inkscape:pageopacity="0.0"
     inkscape:pagecheckerboard="0"
     showgrid="false"
     inkscape:zoom="44.555556"
     inkscape:cx="8.9887781"
     inkscape:cy="8.9887781"
     inkscape:window-width="1920"
     inkscape:window-height="991"
     inkscape:window-x="-9"
     inkscape:window-y="-9"
     inkscape:window-maximized="1"
     inkscape:current-layer="svg6" />
  <path
     style="color:#000000;fill:#ffffff;stroke-linecap:round;stroke-linejoin:round;-inkscape-stroke:none;opacity:0.4"
     d="m 11.121094,4.8496094 a 0.72727501,0.72727501 0 0 0 0,1.0273437 l 2.396484,2.3964844 H 2.1816406 A 0.72727501,0.72727501 0 0 0 1.4550781,9 0.72727501,0.72727501 0 0 0 2.1816406,9.7265625 H 13.517578 l -2.396484,2.3945315 a 0.72727501,0.72727501 0 0 0 0,1.029297 0.72727501,0.72727501 0 0 0 1.029297,0 L 15.787109,9.5136719 A 0.72727501,0.72727501 0 0 0 16,9 0.72727501,0.72727501 0 0 0 15.945313,8.7207031 0.72727501,0.72727501 0 0 0 15.787109,8.4863281 L 12.150391,4.8496094 a 0.72727501,0.72727501 0 0 0 -1.029297,0 z"
     id="path2" />
</svg>
