<svg width="48" height="48" viewBox="0 0 48 48" fill="none" xmlns="http://www.w3.org/2000/svg">
<g clip-path="url(#clip0_3049_11318)">
<path d="M22.3444 5.37375C21.9281 3.01875 19.7897 0.879375 17.4347 0.464063C16.005 0.225938 14.0597 0.0028125 11.4037 0C8.74781 0.0028125 6.8025 0.225938 5.37375 0.463125C3.01875 0.879375 0.879375 3.01875 0.463125 5.37375C0.225938 6.8025 0.0028125 8.74781 0 11.4038C0.0028125 14.0597 0.225938 16.005 0.463125 17.4338C0.879375 19.7888 3.01875 21.9272 5.37281 22.3434C6.8025 22.5816 8.74687 22.8038 11.4028 22.8066C14.0588 22.8038 16.0041 22.5806 17.4328 22.3434C19.7878 21.9272 21.9272 19.7888 22.3425 17.4338C22.5806 16.005 22.8028 14.0597 22.8056 11.4038C22.8028 8.74781 22.5797 6.8025 22.3425 5.37375H22.3444ZM15.7791 13.185H13.185V15.7791C13.185 16.7625 12.3872 17.5603 11.4037 17.5603C10.4203 17.5603 9.6225 16.7625 9.6225 15.7791V13.185H7.02844C6.045 13.185 5.24719 12.3872 5.24719 11.4038C5.24719 10.4203 6.045 9.6225 7.02844 9.6225H9.6225V7.02844C9.6225 6.045 10.4203 5.24719 11.4037 5.24719C12.3872 5.24719 13.185 6.045 13.185 7.02844V9.6225H15.7791C16.7625 9.6225 17.5603 10.4203 17.5603 11.4038C17.5603 12.3872 16.7625 13.185 15.7791 13.185Z" fill="#FFEAB4"/>
<path d="M47.5378 5.37379C47.1216 3.01879 44.9831 0.879414 42.6281 0.464102C41.1994 0.225977 39.2541 0.00378906 36.5981 0.000976562C33.9422 0.00378906 31.9969 0.226914 30.5681 0.464102C28.2131 0.880352 26.0738 3.01879 25.6584 5.37379C25.4203 6.80254 25.1981 8.74785 25.1953 11.4038C25.1981 14.0597 25.4213 16.005 25.6584 17.4338C26.0747 19.7888 28.2141 21.9272 30.5681 22.3435C31.9978 22.5816 33.9422 22.8038 36.5981 22.8066C39.2541 22.8038 41.1994 22.5807 42.6281 22.3435C44.9831 21.9272 47.1225 19.7888 47.5378 17.4338C47.7759 16.005 47.9981 14.0597 48.0009 11.4038C47.9981 8.74785 47.775 6.80254 47.5378 5.37379ZM40.9725 13.185H32.2219C31.2384 13.185 30.4406 12.3872 30.4406 11.4038C30.4406 10.4204 31.2384 9.62254 32.2219 9.62254H40.9725C41.9559 9.62254 42.7537 10.4204 42.7537 11.4038C42.7537 12.3872 41.9559 13.185 40.9725 13.185Z" fill="#FFEAB4"/>
<path d="M47.5378 30.5662C47.1216 28.2112 44.9831 26.0718 42.6281 25.6565C41.1994 25.4184 39.2541 25.1962 36.5981 25.1934C33.9422 25.1962 31.9969 25.4193 30.5681 25.6565C28.2131 26.0727 26.0738 28.2112 25.6584 30.5662C25.4203 31.9949 25.1981 33.9402 25.1953 36.5962C25.1981 39.2521 25.4213 41.1974 25.6584 42.6262C26.0747 44.9812 28.2141 47.1196 30.5681 47.5359C31.9978 47.774 33.9422 47.9962 36.5981 47.999C39.2541 47.9962 41.1994 47.773 42.6281 47.5359C44.9831 47.1196 47.1225 44.9812 47.5378 42.6262C47.7759 41.1974 47.9981 39.2521 48.0009 36.5962C47.9981 33.9402 47.775 31.9949 47.5378 30.5662ZM40.9725 41.5659H32.2219C31.2384 41.5659 30.4406 40.768 30.4406 39.7846C30.4406 38.8012 31.2384 38.0034 32.2219 38.0034H40.9725C41.9559 38.0034 42.7537 38.8012 42.7537 39.7846C42.7537 40.768 41.9559 41.5659 40.9725 41.5659ZM40.9725 35.189H32.2219C31.2384 35.189 30.4406 34.3912 30.4406 33.4077C30.4406 32.4243 31.2384 31.6265 32.2219 31.6265H40.9725C41.9559 31.6265 42.7537 32.4243 42.7537 33.4077C42.7537 34.3912 41.9559 35.189 40.9725 35.189Z" fill="#FFEAB4"/>
<path d="M22.3425 30.5662C21.9262 28.2112 19.7878 26.0718 17.4328 25.6565C16.0041 25.4184 14.0588 25.1962 11.4028 25.1934C8.74688 25.1962 6.80156 25.4193 5.37281 25.6565C3.01781 26.0727 0.878438 28.2112 0.463125 30.5662C0.225 31.9949 0.0028125 33.9402 0 36.5962C0.0028125 39.2521 0.225938 41.1974 0.463125 42.6262C0.879375 44.9812 3.01875 47.1196 5.37281 47.5359C6.8025 47.774 8.74688 47.9962 11.4028 47.999C14.0588 47.9962 16.0041 47.773 17.4328 47.5359C19.7878 47.1196 21.9272 44.9812 22.3425 42.6262C22.5806 41.1974 22.8028 39.2521 22.8056 36.5962C22.8028 33.9402 22.5797 31.9949 22.3425 30.5662ZM15.8878 38.563C16.5834 39.2587 16.5834 40.3865 15.8878 41.0821C15.54 41.4299 15.0844 41.6034 14.6287 41.6034C14.1731 41.6034 13.7175 41.4299 13.3687 41.0821L11.4019 39.1152L9.435 41.0821C9.08719 41.4299 8.63156 41.6034 8.175 41.6034C7.71844 41.6034 7.26375 41.4299 6.91594 41.0821C6.22031 40.3865 6.22031 39.2587 6.91594 38.563L8.88281 36.5962L6.91594 34.6293C6.22031 33.9337 6.22031 32.8059 6.91594 32.1102C7.61156 31.4146 8.73938 31.4146 9.435 32.1102L11.4019 34.0771L13.3687 32.1102C14.0644 31.4146 15.1922 31.4146 15.8878 32.1102C16.5834 32.8059 16.5834 33.9337 15.8878 34.6293L13.9209 36.5962L15.8878 38.563Z" fill="#FFEAB4"/>
</g>
<defs>
<clipPath id="clip0_3049_11318">
<rect width="48" height="48" fill="white"/>
</clipPath>
</defs>
</svg>
