<?xml version="1.0" encoding="UTF-8" standalone="no"?>
<svg
   width="18"
   height="18"
   viewBox="0 0 18 18"
   fill="none"
   version="1.1"
   id="svg4"
   sodipodi:docname="clock.svg"
   inkscape:version="1.1.1 (3bf5ae0d25, 2021-09-20)"
   xmlns:inkscape="http://www.inkscape.org/namespaces/inkscape"
   xmlns:sodipodi="http://sodipodi.sourceforge.net/DTD/sodipodi-0.dtd"
   xmlns="http://www.w3.org/2000/svg"
   xmlns:svg="http://www.w3.org/2000/svg">
  <defs
     id="defs8" />
  <sodipodi:namedview
     id="namedview6"
     pagecolor="#ffffff"
     bordercolor="#666666"
     borderopacity="1.0"
     inkscape:pageshadow="2"
     inkscape:pageopacity="0.0"
     inkscape:pagecheckerboard="0"
     showgrid="false"
     inkscape:zoom="44.555556"
     inkscape:cx="8.9887781"
     inkscape:cy="8.9887781"
     inkscape:window-width="1920"
     inkscape:window-height="991"
     inkscape:window-x="-9"
     inkscape:window-y="-9"
     inkscape:window-maximized="1"
     inkscape:current-layer="svg4" />
  <path
     style="color:#000000;fill:#ffffff;stroke-linecap:round;stroke-linejoin:round;-inkscape-stroke:none"
     d="M 9,1.7265625 C 4.9920049,1.7265625 1.7285156,4.9920049 1.7285156,9 c 0,4.008004 3.2634893,7.273438 7.2714844,7.273437 4.008013,0 7.273437,-3.265433 7.273437,-7.273437 C 16.273437,4.9920049 13.008013,1.7265625 9,1.7265625 Z m 0,1.4550781 c 3.22192,0 5.818359,2.5964618 5.818359,5.8183594 0,3.221909 -2.596439,5.818359 -5.818359,5.818359 C 5.7781024,14.818359 3.1816406,12.221909 3.1816406,9 3.1816406,5.7781024 5.7781024,3.1816406 9,3.1816406 Z M 9,4.6367187 A 0.72727501,0.72727501 0 0 0 8.2734375,5.3632812 V 9 A 0.72734774,0.72734774 0 0 0 9,9.7265625 h 3.636719 A 0.72727501,0.72727501 0 0 0 13.363281,9 0.72727501,0.72727501 0 0 0 12.636719,8.2734375 H 9.7285156 V 5.3632812 A 0.72727501,0.72727501 0 0 0 9,4.6367187 Z"
     id="path2" />
</svg>
