<svg width="56" height="56" viewBox="0 0 56 56" fill="none" xmlns="http://www.w3.org/2000/svg">
<path d="M28.0026 36.1673C23.5004 36.1673 19.8359 32.504 19.8359 28.0007C19.8359 23.4973 23.5004 19.834 28.0026 19.834C32.5048 19.834 36.1693 23.4973 36.1693 28.0007C36.1693 32.504 32.5048 36.1673 28.0026 36.1673ZM28.0026 22.1673C24.7861 22.1673 22.1693 24.7842 22.1693 28.0007C22.1693 31.2172 24.7861 33.834 28.0026 33.834C31.2191 33.834 33.8359 31.2172 33.8359 28.0007C33.8359 24.7842 31.2191 22.1673 28.0026 22.1673Z" fill="#0C1621"/>
<path d="M36.75 21C37.7165 21 38.5 20.2165 38.5 19.25C38.5 18.2835 37.7165 17.5 36.75 17.5C35.7835 17.5 35 18.2835 35 19.25C35 20.2165 35.7835 21 36.75 21Z" fill="#0C1621"/>
<path d="M35.0026 43.1673H21.0026C16.5004 43.1673 12.8359 39.504 12.8359 35.0007V21.0007C12.8359 16.4973 16.5004 12.834 21.0026 12.834H35.0026C39.5048 12.834 43.1693 16.4973 43.1693 21.0007V35.0007C43.1693 39.504 39.5048 43.1673 35.0026 43.1673ZM21.0026 15.1673C17.7861 15.1673 15.1693 17.7842 15.1693 21.0007V35.0007C15.1693 38.2172 17.7861 40.834 21.0026 40.834H35.0026C38.2191 40.834 40.8359 38.2172 40.8359 35.0007V21.0007C40.8359 17.7842 38.2191 15.1673 35.0026 15.1673H21.0026Z" fill="#0C1621"/>
</svg>
