<?xml version="1.0" encoding="UTF-8" standalone="no"?>
<svg
   width="36"
   height="36"
   viewBox="0 0 36 36"
   fill="none"
   version="1.1"
   id="svg4"
   sodipodi:docname="mail.svg"
   inkscape:version="1.1.1 (3bf5ae0d25, 2021-09-20)"
   xmlns:inkscape="http://www.inkscape.org/namespaces/inkscape"
   xmlns:sodipodi="http://sodipodi.sourceforge.net/DTD/sodipodi-0.dtd"
   xmlns="http://www.w3.org/2000/svg"
   xmlns:svg="http://www.w3.org/2000/svg">
  <defs
     id="defs8" />
  <sodipodi:namedview
     id="namedview6"
     pagecolor="#ffffff"
     bordercolor="#666666"
     borderopacity="1.0"
     inkscape:pageshadow="2"
     inkscape:pageopacity="0.0"
     inkscape:pagecheckerboard="0"
     showgrid="false"
     inkscape:zoom="22.277778"
     inkscape:cx="17.977556"
     inkscape:cy="17.977556"
     inkscape:window-width="1920"
     inkscape:window-height="991"
     inkscape:window-x="-9"
     inkscape:window-y="-9"
     inkscape:window-maximized="1"
     inkscape:current-layer="svg4" />
  <path
     style="color:#000000;fill:#232c32;stroke-linecap:round;stroke-linejoin:round;-inkscape-stroke:none"
     d="m 9.5625,6.3632812 c -1.6292384,0 -2.646416,-0.073795 -3.7265625,0.4765625 -0.8211642,0.418398 -1.488199,1.0857669 -1.90625,1.9062501 C 3.3794918,9.8258362 3.453125,10.843358 3.453125,12.472656 v 11.054688 c 0,1.629298 -0.073655,2.646708 0.4765625,3.726562 0.4181046,0.820619 1.0852989,1.487961 1.90625,1.90625 1.0800528,0.550362 2.0972646,0.476563 3.7265625,0.476563 h 16.873047 c 1.629258,0 2.647143,0.07356 3.726562,-0.476563 0.820346,-0.417965 1.487514,-1.084391 1.90625,-1.90625 a 1.4546905,1.4546905 0 0 0 0.002,0 c 0.550225,-1.080141 0.47461,-2.097442 0.47461,-3.726562 V 12.472656 c 0,-1.62912 0.07559,-2.6465331 -0.47461,-3.7265622 a 1.4546905,1.4546905 0 0 0 -0.002,0 C 31.649676,7.92437 30.982668,7.2579179 30.162109,6.8398437 29.082596,6.2897292 28.064745,6.3632812 26.435547,6.3632812 Z m 0,2.9101563 h 16.873047 c 0.510414,0 0.425777,0.036205 0.753906,0.048828 L 18.306641,16.181641 8.8925781,9.3183594 C 9.2008687,9.3081875 9.1088664,9.2734375 9.5625,9.2734375 Z M 6.4511719,11.136719 17.474609,19.175781 a 1.4546905,1.4546905 0 0 0 1.746094,-0.02539 l 10.328125,-7.97461 c 0.03305,0.376301 0.08594,0.418621 0.08594,1.296875 v 11.054688 c 0,1.629477 -0.07443,2.241792 -0.158204,2.40625 -0.139062,0.27294 -0.360312,0.494932 -0.634765,0.634765 -0.164979,0.08408 -0.777111,0.158203 -2.40625,0.158203 H 9.5625 c -1.6291789,0 -2.2417241,-0.07437 -2.40625,-0.158203 C 6.8824422,26.428849 6.6611792,26.207774 6.5214844,25.933594 6.4375422,25.768849 6.3632813,25.156642 6.3632812,23.527344 V 12.472656 c 0,-0.90458 0.053076,-0.961058 0.087891,-1.335937 z"
     id="path2" />
</svg>
