<?xml version="1.0" encoding="UTF-8" standalone="no"?>
<svg
   width="18"
   height="18"
   viewBox="0 0 18 18"
   fill="none"
   version="1.1"
   id="svg4"
   sodipodi:docname="phone.svg"
   inkscape:version="1.1.1 (3bf5ae0d25, 2021-09-20)"
   xmlns:inkscape="http://www.inkscape.org/namespaces/inkscape"
   xmlns:sodipodi="http://sodipodi.sourceforge.net/DTD/sodipodi-0.dtd"
   xmlns="http://www.w3.org/2000/svg"
   xmlns:svg="http://www.w3.org/2000/svg">
  <defs
     id="defs8" />
  <sodipodi:namedview
     id="namedview6"
     pagecolor="#ffffff"
     bordercolor="#666666"
     borderopacity="1.0"
     inkscape:pageshadow="2"
     inkscape:pageopacity="0.0"
     inkscape:pagecheckerboard="0"
     showgrid="false"
     inkscape:zoom="44.555556"
     inkscape:cx="8.9887781"
     inkscape:cy="8.9887781"
     inkscape:window-width="1920"
     inkscape:window-height="991"
     inkscape:window-x="-9"
     inkscape:window-y="-9"
     inkscape:window-maximized="1"
     inkscape:current-layer="svg4" />
  <path
     style="color:#000000;fill:#ffffff;stroke-linecap:round;stroke-linejoin:round;-inkscape-stroke:none"
     d="m 3.8339844,1.7265625 c -1.1541099,0 -2.1054688,0.951378 -2.1054688,2.1054688 0,6.8619417 5.5775925,12.4414067 12.4394534,12.4414057 1.154088,0 2.105468,-0.951492 2.105468,-2.105468 v -2.001953 c 0,-0.890046 -0.544883,-1.694877 -1.371093,-2.025391 L 12.984375,9.375 C 12.241637,9.0778896 11.391942,9.212474 10.777344,9.7246094 v -0.00195 l -0.494141,0.4140627 c -0.2938942,0.24492 -0.7099515,0.225564 -0.9804686,-0.04492 L 7.9082031,8.6972656 C 7.6377649,8.4268274 7.6202574,8.0127274 7.8652344,7.71875 L 8.2773438,7.2226562 C 8.7895453,6.6079904 8.9240564,5.7583833 8.6269531,5.015625 L 7.859375,3.0996094 C 7.5288439,2.2733115 6.7239416,1.7265625 5.8339844,1.7265625 Z m 0,1.4550781 h 2 c 0.2995816,0 0.5645128,0.1788702 0.6757812,0.4570313 l 0.765625,1.9179687 c 0.099736,0.2493407 0.056603,0.5281617 -0.1152344,0.734375 L 6.7460937,6.7871094 C 6.0278716,7.6489908 6.0873986,8.9331018 6.8808594,9.7265625 l 1.3925781,1.3945315 c 0.7934018,0.793312 2.0775485,0.851091 2.9394535,0.132812 l 0.496093,-0.412109 c 0.206201,-0.171824 0.487068,-0.216897 0.736329,-0.117188 l 1.916015,0.767579 c 0.278188,0.111285 0.457031,0.374275 0.457031,0.673828 v 2.001953 c 0,0.368022 -0.28228,0.65039 -0.65039,0.65039 -6.0757667,0 -10.9863284,-4.9105021 -10.9863284,-10.9863277 0,-0.3679878 0.2843751,-0.6503907 0.6523438,-0.6503907 z"
     id="path2" />
</svg>
