<svg width="49" height="48" viewBox="0 0 49 48" fill="none" xmlns="http://www.w3.org/2000/svg">
<g clip-path="url(#clip0_3049_12487)">
<path fill-rule="evenodd" clip-rule="evenodd" d="M49 24C49 37.2548 38.031 48 24.5 48C10.969 48 0 37.2548 0 24C0 10.7452 10.969 0 24.5 0C38.031 0 49 10.7452 49 24ZM25.3787 17.7181C22.9957 18.689 18.2331 20.6986 11.0908 23.7469C9.93102 24.1987 9.32347 24.6407 9.26816 25.0729C9.17469 25.8032 10.1084 26.0908 11.3799 26.4825C11.5528 26.5358 11.732 26.591 11.9157 26.6495C13.1667 27.0478 14.8494 27.5138 15.7242 27.5323C16.5177 27.5491 17.4033 27.2286 18.3811 26.5709C25.0543 22.1582 28.4991 19.9279 28.7153 19.8798C28.8679 19.8459 29.0793 19.8032 29.2226 19.9279C29.3658 20.0527 29.3518 20.2889 29.3366 20.3523C29.2441 20.7385 25.5789 24.0765 23.6822 25.8038C23.0909 26.3423 22.6715 26.7243 22.5858 26.8115C22.3937 27.0069 22.198 27.1918 22.0098 27.3695C20.8477 28.4669 19.9762 29.2899 22.0581 30.6338C23.0585 31.2796 23.8591 31.8137 24.6578 32.3465C25.53 32.9284 26.4 33.5088 27.5257 34.2316C27.8124 34.4157 28.0863 34.607 28.3531 34.7933C29.3682 35.5022 30.2801 36.1391 31.4068 36.0375C32.0615 35.9785 32.7377 35.3755 33.0812 33.577C33.8928 29.3265 35.4882 20.1172 35.8569 16.3222C35.8892 15.9897 35.8486 15.5642 35.8159 15.3774C35.7833 15.1906 35.7151 14.9245 35.4672 14.7274C35.1737 14.4941 34.7205 14.4449 34.5179 14.4484C33.5964 14.4643 32.1826 14.9459 25.3787 17.7181Z" fill="#FFEAB4"/>
</g>
<defs>
<clipPath id="clip0_3049_12487">
<rect width="49" height="48" fill="white"/>
</clipPath>
</defs>
</svg>
