<?xml version="1.0" encoding="UTF-8" standalone="no"?>
<svg
   width="22"
   height="19"
   viewBox="0 0 22 19"
   fill="none"
   version="1.1"
   id="svg4"
   sodipodi:docname="telegram.svg"
   inkscape:version="1.1.1 (3bf5ae0d25, 2021-09-20)"
   xmlns:inkscape="http://www.inkscape.org/namespaces/inkscape"
   xmlns:sodipodi="http://sodipodi.sourceforge.net/DTD/sodipodi-0.dtd"
   xmlns="http://www.w3.org/2000/svg"
   xmlns:svg="http://www.w3.org/2000/svg">
  <defs
     id="defs8" />
  <sodipodi:namedview
     id="namedview6"
     pagecolor="#ffffff"
     bordercolor="#666666"
     borderopacity="1.0"
     inkscape:pageshadow="2"
     inkscape:pageopacity="0.0"
     inkscape:pagecheckerboard="0"
     showgrid="false"
     inkscape:zoom="42.210526"
     inkscape:cx="11.004364"
     inkscape:cy="9.5118454"
     inkscape:window-width="1920"
     inkscape:window-height="991"
     inkscape:window-x="-9"
     inkscape:window-y="-9"
     inkscape:window-maximized="1"
     inkscape:current-layer="svg4" />
  <path
     style="color:#000000;fill:#232c32;-inkscape-stroke:none"
     d="M 20.339844,0 C 19.992617,0.00637403 19.538839,0.10248437 18.482422,0.50195312 17.439252,0.89644791 15.837351,1.5719806 13.160156,2.7324219 11.283855,3.54568 7.5497611,5.2213722 1.9375,7.7695312 1.4731554,7.961969 1.1462551,8.1367738 0.89648438,8.3300781 0.81255298,8.3950319 0.74736376,8.454578 0.6953125,8.5117188 L 0.22460938,9.0292969 0.77148437,9.4628906 c 0.0761129,0.060463 0.16845131,0.1197677 0.29101563,0.1816407 0.3123942,0.157688 0.6451488,0.2627858 1.0585938,0.3984377 0.1440546,0.04726 0.2992844,0.09626 0.4648437,0.152344 0.4931249,0.167044 1.0639627,0.346713 1.6054687,0.488281 0.5585575,0.145964 1.0019191,0.241345 1.3847657,0.25 0.6258749,0.01411 1.3065762,-0.245329 2.0859375,-0.802735 l 0.00391,-0.002 C 10.285467,8.2863704 12.372466,7.0177794 13.824219,6.2050781 14.550138,5.7986622 15.117315,5.5057348 15.513672,5.3125 c 0.197962,-0.096509 0.356227,-0.1700737 0.466797,-0.21875 0.05492,-0.024181 0.100431,-0.043763 0.132812,-0.056641 h 0.002 l 0.0039,-0.00195 c 0.0117,-0.00436 -0.0098,0.0041 0.0039,0 0.02908,-0.00871 0.07047,-0.019497 0.111328,-0.03125 0.06453,-0.018562 0.114703,-0.032404 0.138672,-0.039063 0.02592,-0.00314 0.0518,-0.00439 0.07813,0.00195 0.03143,0.00757 0.05678,0.019868 0.08594,0.046875 0.03279,0.03037 0.04337,0.066513 0.04883,0.1015625 0.0057,0.036943 0.0041,0.086055 -0.002,0.1269531 -0.006,0.040651 -0.01611,0.083857 -0.02539,0.1171875 -0.0045,0.015966 -0.0085,0.032029 -0.01172,0.042969 h -0.002 l -0.0039,0.017578 -0.0039,0.013672 c -0.0024,0.00968 -0.0099,0.027117 -0.02344,0.048828 -0.01199,0.019264 -0.0301,0.044591 -0.05078,0.070312 -0.04123,0.051233 -0.106067,0.1239118 -0.179688,0.1992187 -0.14902,0.152358 -0.367066,0.3544601 -0.617187,0.5800781 -0.502321,0.4531358 -1.172597,1.028222 -1.84375,1.59375 -0.505818,0.4261841 -1.016398,0.8507523 -1.462891,1.2226563 -0.146378,0.1219681 -0.285539,0.2387285 -0.416016,0.3476563 -0.264652,0.2208107 -0.490032,0.4098014 -0.660156,0.5546872 -0.105401,0.08973 -0.196114,0.183096 -0.304687,0.291016 l -0.01172,-0.0098 c -0.134602,0.14571 -0.273563,0.286641 -0.40625,0.419922 h -0.002 v 0.002 c -0.01345,0.01363 -0.0288,0.02869 -0.04492,0.04492 -0.118202,0.118701 -0.229126,0.228613 -0.335938,0.341797 -0.2541167,0.269555 -0.4233831,0.468576 -0.537109,0.738281 -0.070132,0.166637 -0.064841,0.589493 0.021484,0.761719 0.1459826,0.291495 0.3971616,0.547209 0.8886716,0.884766 0.785614,0.539518 1.415844,0.986623 2.042969,1.43164 v -0.002 l 0.08594,0.0625 c 0.656329,0.465734 1.319391,0.935377 2.166015,1.513672 0.222802,0.152201 0.444534,0.316835 0.654297,0.472656 0.04223,0.03142 0.08158,0.06053 0.121094,0.08984 h 0.002 c 0.252649,0.187125 0.487378,0.358582 0.734375,0.509766 0.491505,0.300884 1.002002,0.488811 1.537109,0.4375 0.131322,-0.01236 0.507169,-0.15737 0.744141,-0.476563 0.236971,-0.319192 0.430429,-0.789737 0.572265,-1.580078 0.640592,-3.568997 1.886136,-11.2036692 2.179688,-14.4179688 0.01349,-0.1475497 0.0123,-0.2926113 0.0039,-0.4414062 -0.0083,-0.14757318 -0.02023,-0.25895237 -0.03516,-0.34960938 C 21.345606,0.69159613 21.328142,0.60841826 21.285156,0.5078125 21.24925,0.42375995 21.136914,0.27702177 21.083984,0.23242188 20.907804,0.08338216 20.8406,0.08155335 20.685547,0.04296875 20.536864,0.00594507 20.4544,-0.00210094 20.339844,0 Z m -0.25,1.3867187 c -5.98e-4,0.016706 9.54e-4,0.050107 0,0.060547 -0.279847,3.0642342 -1.530809,10.7676444 -2.166016,14.3066404 -0.108635,0.605337 -0.235401,0.829081 -0.302734,0.935547 -0.149772,-0.0097 -0.288163,-0.01932 -0.582032,-0.199219 -0.186602,-0.114216 -0.393921,-0.264037 -0.638671,-0.445312 -0.04028,-0.02988 -0.08053,-0.05966 -0.121094,-0.08984 -0.209437,-0.155579 -0.444115,-0.330354 -0.695313,-0.501953 -0.836462,-0.571354 -1.491217,-1.035021 -2.146484,-1.5 h -0.002 l -0.08594,-0.0625 c -0.627073,-0.444981 -1.264008,-0.895726 -2.058593,-1.441406 -0.246526,-0.169307 -0.237998,-0.1906 -0.292969,-0.251953 0.04573,-0.06027 0.03423,-0.05766 0.130859,-0.160157 h -0.002 c 0.09068,-0.09609 0.194292,-0.199652 0.3125,-0.318359 0.0135,-0.01359 0.03036,-0.0282 0.04687,-0.04492 l 0.002,-0.002 c 0.01859,-0.01867 0.0414,-0.0432 0.06055,-0.0625 0.0325,-0.03028 0.05632,-0.05326 0.09766,-0.09375 0.05526,-0.05413 0.124009,-0.121394 0.19336,-0.189453 0.138701,-0.136118 0.332021,-0.316159 0.291015,-0.28125 0.162876,-0.138714 0.384891,-0.326986 0.648438,-0.546875 0.129523,-0.108132 0.269394,-0.223532 0.416016,-0.345703 0.446506,-0.3719155 0.959168,-0.7991608 1.46875,-1.2285159 0.676045,-0.5696508 1.352674,-1.1481504 1.876953,-1.6210937 0.261078,-0.2355015 0.492602,-0.4513902 0.675781,-0.6386719 0.09058,-0.092653 0.180096,-0.1891023 0.263672,-0.2929688 0.04132,-0.051379 0.09137,-0.1169625 0.142578,-0.1992187 0.03365,-0.054131 0.12562,-0.2042132 0.179687,-0.4140625 0.0038,-0.012708 0.0076,-0.02696 0.01367,-0.048828 0.01612,-0.05787 0.04259,-0.1546617 0.06055,-0.2753907 0.01656,-0.1120422 0.03466,-0.2966548 0,-0.5195312 C 17.841208,4.6844118 17.732394,4.3386971 17.425781,4.0546875 17.242539,3.884955 17.012985,3.7567819 16.757812,3.6953125 16.51369,3.6365237 16.299929,3.6515781 16.158203,3.6738281 c -0.02436,0.00382 -0.0266,0.00728 -0.04883,0.011719 v -0.00195 c -0.02184,0.00516 -0.0437,0.012104 -0.06445,0.017578 -0.06187,0.015318 -0.143234,0.033192 -0.162109,0.039063 l 0.002,0.00391 c -0.0044,0.00126 -0.0072,0.00262 -0.01172,0.00391 -0.04443,0.012781 -0.08896,0.026312 -0.125,0.037109 -0.03604,0.010797 -0.0063,-0.00512 -0.117188,0.039063 h -0.002 l -0.0039,0.00195 c -0.05202,0.02078 -0.108687,0.044446 -0.171875,0.072266 -0.13103,0.057684 -0.301281,0.1356902 -0.511719,0.2382812 C 14.519964,4.3421835 13.931627,4.6467498 13.185547,5.0644531 11.693038,5.89997 9.5690513,7.1934441 6.9121094,9.0625 h -0.00195 l -0.00586,0.00391 v 0.00195 C 6.2661776,9.525051 5.8308625,9.6320337 5.6054687,9.6269531 5.4663159,9.6238075 5.0336258,9.5537569 4.5214844,9.4199219 4.0239515,9.28985 3.4749804,9.1185594 3.0039063,8.9589844 2.8936127,8.9216222 2.7997578,8.8899209 2.7011719,8.8574219 8.1248723,6.3956367 11.86144,4.7197362 13.679688,3.9316406 c 2.6722,-1.1582764 4.268444,-1.8306668 5.263671,-2.2070312 0.812497,-0.3072339 0.976355,-0.3163685 1.146485,-0.3378907 z"
     id="path2" />
</svg>
