<svg width="48" height="48" viewBox="0 0 48 48" fill="none" xmlns="http://www.w3.org/2000/svg">
<path fill-rule="evenodd" clip-rule="evenodd" d="M1.74382 46.4462C1.8527 46.5562 1.99941 46.6158 2.1507 46.6158C2.19999 46.6158 2.24813 46.6101 2.29627 46.5964L13.6146 43.6289C16.8238 45.3356 20.44 46.2376 24.0951 46.2388C36.4048 46.2388 46.4245 36.2225 46.4291 23.9116C46.4314 17.947 44.1104 12.3377 39.8937 8.11636C35.677 3.89621 30.0665 1.57065 24.0951 1.56836C11.7842 1.56836 1.76559 11.5835 1.76101 23.8955C1.75872 27.7352 2.74785 31.5175 4.62297 34.8482L1.59826 45.8926C1.54439 46.0886 1.60055 46.3006 1.74382 46.4462ZM17.4268 13.8613C17.8153 13.8773 18.244 13.8956 18.6509 14.8011C18.9352 15.433 19.4174 16.6224 19.7939 17.551C20.058 18.2024 20.2701 18.7254 20.3254 18.8379C20.4618 19.1095 20.5523 19.427 20.3713 19.7903C20.3439 19.845 20.3187 19.8965 20.2945 19.9458C20.1587 20.2231 20.0586 20.4274 19.828 20.697C19.735 20.8052 19.6389 20.922 19.5429 21.0386C19.3576 21.2639 19.1728 21.4885 19.0119 21.6494C18.7391 21.9211 18.456 22.2156 18.7735 22.7589C19.091 23.3033 20.1821 25.0833 21.7982 26.524C23.534 28.0712 25.0419 28.7259 25.8081 29.0585C25.9591 29.1241 26.0814 29.1772 26.1708 29.2221C26.7141 29.4949 27.0316 29.449 27.3491 29.0857C27.6666 28.7235 28.7084 27.4983 29.0706 26.955C29.4339 26.4106 29.7961 26.5011 30.2947 26.6822C30.7933 26.8633 33.4673 28.1779 34.0105 28.4507C34.1186 28.505 34.2196 28.5538 34.313 28.599C34.689 28.781 34.9431 28.9039 35.0524 29.0857C35.1876 29.3126 35.1876 30.4003 34.7349 31.6703C34.2822 32.9402 32.0621 34.1643 31.0649 34.2549C30.969 34.2636 30.8737 34.2748 30.7757 34.2863C29.8541 34.3946 28.6909 34.5312 24.5398 32.8944C19.4319 30.8796 16.0636 25.8875 15.368 24.8566C15.311 24.7721 15.2719 24.7142 15.2514 24.6867L15.2477 24.6818C14.9626 24.3017 13.0312 21.727 13.0312 19.0637C13.0312 16.5608 14.2613 15.2488 14.8281 14.6444C14.8671 14.6028 14.9029 14.5645 14.935 14.5295C15.4336 13.985 16.0227 13.8487 16.3849 13.8487C16.4108 13.8487 16.4367 13.8486 16.4625 13.8486C16.7986 13.8486 17.132 13.8485 17.4268 13.8613Z" fill="#FFEAB4"/>
</svg>
