<svg width="36" height="36" viewBox="0 0 36 36" fill="none" xmlns="http://www.w3.org/2000/svg">
<path d="M18.0004 5.41211C13.2604 5.41211 9.07116 5.90381 6.51434 6.27749C4.40005 6.58726 2.69387 8.18036 2.30543 10.2897C1.97599 12.0844 1.63672 14.7101 1.63672 17.9995C1.63672 21.289 1.97599 23.9146 2.30543 25.7093C2.69387 27.8187 4.40005 29.4167 6.51434 29.7215C9.08099 30.0952 13.285 30.5869 18.0004 30.5869C22.7157 30.5869 26.9197 30.0952 29.4864 29.7215C31.6007 29.4167 33.3068 27.8187 33.6953 25.7093C34.0247 23.9097 34.364 21.2791 34.364 17.9995C34.364 14.7199 34.0296 12.0893 33.6953 10.2897C33.3068 8.18036 31.6007 6.58726 29.4864 6.27749C26.9296 5.90381 22.7403 5.41211 18.0004 5.41211ZM18.0004 7.92959C22.5731 7.92959 26.6591 8.3967 29.1323 8.75564C30.1944 8.91298 31.0254 9.71445 31.2171 10.7618C31.522 12.4237 31.8465 14.8871 31.8465 17.9995C31.8465 21.107 31.522 23.5754 31.2171 25.2373C31.0254 26.2846 30.1993 27.091 29.1323 27.2434C26.6493 27.6023 22.5436 28.0695 18.0004 28.0695C13.4571 28.0695 9.34651 27.6023 6.86836 27.2434C5.8063 27.091 4.97533 26.2846 4.78357 25.2373C4.47872 23.5754 4.1542 21.1169 4.1542 17.9995C4.1542 14.8773 4.47872 12.4237 4.78357 10.7618C4.97533 9.71445 5.80138 8.91298 6.86836 8.75564C9.33668 8.3967 13.4276 7.92959 18.0004 7.92959ZM14.2241 10.8011V25.1979L16.1122 24.1359L24.9234 19.1009L26.8115 17.9995L24.9234 16.8981L16.1122 11.8632L14.2241 10.8011ZM16.7416 15.128L21.7372 17.9995L16.7416 20.871V15.128Z" fill="#0C1621"/>
</svg>
