<svg width="101" height="85" viewBox="0 0 101 85" fill="none" xmlns="http://www.w3.org/2000/svg">
<path d="M90.2666 84.9819H10.4696C9.07111 84.9792 7.73066 84.4224 6.74177 83.4335C5.75287 82.4446 5.1961 81.1042 5.19336 79.7057V44.8658C5.19336 44.7075 5.22961 44.5513 5.29933 44.4092C5.36905 44.2671 5.4704 44.1428 5.59559 44.0459C5.72078 43.9491 5.8665 43.8821 6.02156 43.8503C6.17662 43.8185 6.33691 43.8226 6.49014 43.8623L27.1702 49.2215C27.3924 49.2792 27.5893 49.409 27.7298 49.5906C27.8703 49.7722 27.9466 49.9953 27.9466 50.225V53.6841C27.9477 54.5855 28.3062 55.4496 28.9436 56.087C29.581 56.7244 30.4452 57.083 31.3466 57.0841H35.9076C36.8064 57.0833 37.6681 56.7259 38.3036 56.0904C38.9391 55.4549 39.2965 54.5932 39.2973 53.6944C39.2973 53.5361 39.3335 53.3799 39.4033 53.2378C39.473 53.0957 39.5743 52.9715 39.6995 52.8746C39.8247 52.7777 39.9704 52.7108 40.1255 52.679C40.2805 52.6472 40.4408 52.6513 40.5941 52.691L49.5606 55.013C50.0937 55.1472 50.6518 55.1472 51.1849 55.013L60.1421 52.6931C60.2954 52.6534 60.4557 52.6492 60.6107 52.6811C60.7658 52.7129 60.9115 52.7798 61.0367 52.8767C61.1619 52.9735 61.2632 53.0978 61.3329 53.2399C61.4027 53.382 61.4389 53.5382 61.4389 53.6965C61.4397 54.5952 61.7971 55.4569 62.4326 56.0924C63.0681 56.728 63.9298 57.0853 64.8286 57.0862H69.4103C70.309 57.0851 71.1705 56.7276 71.806 56.0921C72.4414 55.4567 72.7989 54.5952 72.8 53.6965V50.2136C72.8 49.9839 72.8762 49.7608 73.0167 49.5792C73.1573 49.3976 73.3541 49.2678 73.5764 49.2101L94.2461 43.8613C94.3993 43.8216 94.5596 43.8175 94.7146 43.8493C94.8697 43.8811 95.0154 43.948 95.1406 44.0449C95.2658 44.1418 95.3671 44.266 95.4369 44.4081C95.5066 44.5502 95.5428 44.7064 95.5428 44.8647V79.7026C95.5409 81.1016 94.9845 82.4429 93.9955 83.4324C93.0065 84.422 91.6656 84.9792 90.2666 84.9819ZM7.26655 46.205V79.7026C7.26737 80.5518 7.6051 81.3661 8.20561 81.9666C8.80613 82.5671 9.62036 82.9048 10.4696 82.9056H90.2666C91.1158 82.9048 91.9301 82.5671 92.5306 81.9666C93.1311 81.3661 93.4688 80.5518 93.4697 79.7026V46.205L74.8732 51.0179V53.6975C74.8715 55.1459 74.2954 56.5344 73.2713 57.5585C72.2472 58.5827 70.8587 59.1587 69.4103 59.1604H64.8286C63.606 59.1587 62.4192 58.7477 61.4573 57.993C60.4954 57.2384 59.8138 56.1834 59.5212 54.9964L51.696 57.0229C50.8274 57.2422 49.9181 57.2422 49.0496 57.0229L41.215 54.9964C40.9224 56.1834 40.2408 57.2384 39.2789 57.993C38.317 58.7477 37.1302 59.1587 35.9076 59.1604H31.3466C29.8955 59.1587 28.5044 58.5816 27.4783 57.5555C26.4522 56.5294 25.875 55.1383 25.8734 53.6872V51.0273L7.26655 46.205Z" fill="#FFEAB4"/>
<path d="M50.3678 57.189C49.9239 57.1886 49.4818 57.1336 49.0513 57.0252L40.0755 54.7011C39.8532 54.6435 39.6564 54.5137 39.5158 54.3321C39.3753 54.1505 39.2991 53.9274 39.2991 53.6977V46.0891C39.3003 46.0434 39.2924 45.9978 39.2758 45.9552C39.2592 45.9126 39.2342 45.8737 39.2023 45.8408C39.1704 45.808 39.1323 45.7819 39.0902 45.764C39.048 45.7461 39.0028 45.7368 38.957 45.7367H28.2884C28.2426 45.7369 28.1974 45.7463 28.1554 45.7643C28.1133 45.7822 28.0752 45.8083 28.0434 45.8411C28.0115 45.874 27.9866 45.9128 27.9699 45.9554C27.9532 45.9979 27.9452 46.0434 27.9463 46.0891V50.2251C27.9463 50.3834 27.91 50.5396 27.8403 50.6817C27.7706 50.8238 27.6693 50.9481 27.5441 51.045C27.4189 51.1418 27.2732 51.2088 27.1181 51.2406C26.963 51.2724 26.8027 51.2683 26.6495 51.2286L4.55557 45.4952C3.42708 45.2013 2.42784 44.5416 1.71417 43.6194C1.0005 42.6971 0.61266 41.5644 0.611328 40.3982V21.5219C0.614068 20.1234 1.17084 18.7829 2.15974 17.794C3.14863 16.8051 4.48908 16.2483 5.88759 16.2456H94.848C96.2466 16.2483 97.587 16.8051 98.5759 17.794C99.5648 18.7829 100.122 20.1234 100.124 21.5219V40.3982C100.123 41.5646 99.7345 42.6975 99.0204 43.6197C98.3064 44.542 97.3068 45.2015 96.178 45.4952L94.7713 45.8673L74.0965 51.2182C73.9432 51.2579 73.783 51.262 73.6279 51.2302C73.4728 51.1984 73.3271 51.1315 73.2019 51.0346C73.0767 50.9377 72.9754 50.8135 72.9057 50.6714C72.8359 50.5293 72.7997 50.3731 72.7997 50.2148V46.0891C72.7994 45.9957 72.7622 45.9063 72.6962 45.8402C72.6301 45.7742 72.5406 45.737 72.4473 45.7367H61.7911C61.7448 45.7367 61.699 45.7458 61.6562 45.7635C61.6134 45.7812 61.5746 45.8072 61.5419 45.8399C61.5091 45.8726 61.4832 45.9115 61.4655 45.9543C61.4477 45.997 61.4386 46.0428 61.4386 46.0891V53.6977C61.4386 53.9274 61.3624 54.1505 61.2219 54.3321C61.0813 54.5137 60.8845 54.6435 60.6622 54.7011L51.6957 57.0231C51.2615 57.1326 50.8156 57.1883 50.3678 57.189ZM41.3702 52.8954L49.5593 55.0163C50.0924 55.1505 50.6505 55.1505 51.1836 55.0163L59.3644 52.8975V46.0891C59.365 45.446 59.6207 44.8293 60.0755 44.3746C60.5302 43.9198 61.1469 43.664 61.79 43.6635H72.4473C73.0903 43.6643 73.7068 43.9201 74.1615 44.3749C74.6162 44.8296 74.8721 45.4461 74.8729 46.0891V48.8765L95.6514 43.4862C96.3364 43.3091 96.9435 42.91 97.3777 42.3513C97.8118 41.7926 98.0487 41.1058 98.0511 40.3982V21.5219C98.0503 20.6726 97.7126 19.8584 97.112 19.2579C96.5115 18.6573 95.6973 18.3196 94.848 18.3188H5.88759C5.03833 18.3196 4.2241 18.6573 3.62358 19.2579C3.02307 19.8584 2.68534 20.6726 2.68451 21.5219V40.3982C2.68592 41.106 2.92191 41.7933 3.35556 42.3526C3.78921 42.9119 4.39605 43.3117 5.08112 43.4894L6.49503 43.8646L25.8731 48.8859V46.0871C25.8726 45.4454 26.1265 44.8296 26.5793 44.3749C27.0321 43.9202 27.6467 43.6636 28.2884 43.6614H38.9549C39.5966 43.6636 40.2112 43.9202 40.664 44.3749C41.1168 44.8296 41.3707 45.4454 41.3702 46.0871V52.8954Z" fill="#FFEAB4"/>
<path d="M68.1835 18.2379C67.9086 18.2379 67.6449 18.1287 67.4506 17.9343C67.2562 17.7399 67.1469 17.4763 67.1469 17.2013V8.31358C67.1458 7.30486 66.7447 6.33775 66.0315 5.62438C65.3184 4.91101 64.3514 4.50962 63.3426 4.50825H61.2788C61.0039 4.50825 60.7402 4.39903 60.5458 4.20463C60.3514 4.01023 60.2422 3.74657 60.2422 3.47165C60.2422 3.19673 60.3514 2.93307 60.5458 2.73867C60.7402 2.54427 61.0039 2.43506 61.2788 2.43506H63.3426C64.901 2.43698 66.395 3.05697 67.4969 4.15902C68.5988 5.26107 69.2185 6.75518 69.2201 8.31358V17.2013C69.2201 17.4763 69.1109 17.7399 68.9165 17.9343C68.7221 18.1287 68.4585 18.2379 68.1835 18.2379Z" fill="#FFEAB4"/>
<path d="M32.5503 18.2379C32.2753 18.2379 32.0117 18.1287 31.8173 17.9343C31.6229 17.7399 31.5137 17.4763 31.5137 17.2013V8.31358C31.5153 6.75518 32.135 5.26107 33.2369 4.15902C34.3388 3.05697 35.8328 2.43698 37.3912 2.43506H39.454C39.7289 2.43506 39.9926 2.54427 40.187 2.73867C40.3814 2.93307 40.4906 3.19673 40.4906 3.47165C40.4906 3.74657 40.3814 4.01023 40.187 4.20463C39.9926 4.39903 39.7289 4.50825 39.454 4.50825H37.3912C36.3824 4.50962 35.4154 4.91101 34.7023 5.62438C33.9891 6.33775 33.588 7.30486 33.5869 8.31358V17.2013C33.5869 17.4763 33.4776 17.7399 33.2832 17.9343C33.0888 18.1287 32.8252 18.2379 32.5503 18.2379Z" fill="#FFEAB4"/>
<path d="M58.7543 7.13286H41.9812C41.0344 7.13148 40.1267 6.75467 39.4572 6.08503C38.7878 5.4154 38.4113 4.50762 38.4102 3.56076C38.4102 3.52551 38.4102 3.47472 38.4184 3.42082C38.4458 2.52058 38.8211 1.666 39.4654 1.03665C39.7956 0.706419 40.1879 0.444808 40.6197 0.266899C41.0515 0.0889896 41.5142 -0.00170031 41.9812 5.75416e-05H58.7543C59.6744 -0.00518232 60.5605 0.347625 61.2252 0.983879C61.8899 1.62013 62.2811 2.48995 62.3161 3.40941C62.3221 3.45931 62.3255 3.50947 62.3264 3.55972C62.3259 4.50693 61.9494 5.41519 61.2796 6.08497C60.6098 6.75475 59.7015 7.13231 58.7543 7.13286ZM40.4833 3.58874C40.4915 3.98097 40.6527 4.35446 40.9326 4.62934C41.2126 4.90422 41.5889 5.05867 41.9812 5.05967H58.7543C59.1454 5.05873 59.5206 4.90546 59.8005 4.63238C60.0803 4.3593 60.2427 3.98791 60.2533 3.59704C60.2493 3.56643 60.2468 3.53564 60.246 3.50478C60.2295 3.11964 60.0653 2.75565 59.7876 2.48832C59.5098 2.221 59.1398 2.07088 58.7543 2.0691H41.9812C41.7853 2.06821 41.5911 2.10623 41.4099 2.18097C41.2288 2.2557 41.0643 2.36566 40.926 2.50447C40.6563 2.76476 40.4999 3.12075 40.4906 3.49545C40.4896 3.52655 40.4875 3.55765 40.4833 3.58874Z" fill="#FFEAB4"/>
<path d="M71.2978 45.7367H62.9428C62.6679 45.7367 62.4043 45.6275 62.2099 45.4331C62.0155 45.2387 61.9062 44.975 61.9062 44.7001V17.2822C61.9062 17.0073 62.0155 16.7436 62.2099 16.5492C62.4043 16.3548 62.6679 16.2456 62.9428 16.2456H71.2978C71.5727 16.2456 71.8364 16.3548 72.0308 16.5492C72.2252 16.7436 72.3344 17.0073 72.3344 17.2822V44.7001C72.3344 44.975 72.2252 45.2387 72.0308 45.4331C71.8364 45.6275 71.5727 45.7367 71.2978 45.7367ZM63.9794 43.6635H70.2612V18.3188H63.9794V43.6635Z" fill="#FFEAB4"/>
<path d="M37.8032 45.7367H29.4389C29.164 45.7367 28.9004 45.6275 28.706 45.4331C28.5116 45.2387 28.4023 44.975 28.4023 44.7001V17.2822C28.4023 17.0073 28.5116 16.7436 28.706 16.5492C28.9004 16.3548 29.164 16.2456 29.4389 16.2456H37.8032C38.0781 16.2456 38.3418 16.3548 38.5362 16.5492C38.7306 16.7436 38.8398 17.0073 38.8398 17.2822V44.7001C38.8398 44.975 38.7306 45.2387 38.5362 45.4331C38.3418 45.6275 38.0781 45.7367 37.8032 45.7367ZM30.4755 43.6635H36.7666V18.3188H30.4755V43.6635Z" fill="#FFEAB4"/>
<path d="M69.4098 59.1604H64.8281C63.3797 59.1588 61.9912 58.5827 60.9671 57.5586C59.943 56.5344 59.3669 55.1459 59.3652 53.6976V46.089C59.3661 45.4457 59.622 44.8291 60.077 44.3743C60.5319 43.9196 61.1487 43.6639 61.7919 43.6633H72.447C73.0901 43.6642 73.7066 43.92 74.1613 44.3747C74.616 44.8294 74.8718 45.4459 74.8727 46.089V53.6976C74.871 55.1459 74.2949 56.5344 73.2708 57.5586C72.2467 58.5827 70.8582 59.1588 69.4098 59.1604ZM61.7919 45.7365C61.6983 45.7365 61.6086 45.7736 61.5423 45.8397C61.4761 45.9057 61.4387 45.9954 61.4384 46.089V53.6976C61.4392 54.5963 61.7966 55.458 62.4321 56.0935C63.0676 56.729 63.9293 57.0864 64.8281 57.0872H69.4098C70.3085 57.0861 71.17 56.7286 71.8055 56.0932C72.4409 55.4577 72.7984 54.5962 72.7995 53.6976V46.089C72.7992 45.9956 72.762 45.9061 72.696 45.84C72.6299 45.774 72.5404 45.7368 72.447 45.7365H61.7919Z" fill="#FFEAB4"/>
<path d="M35.8969 59.1604H31.3359C29.8876 59.1588 28.499 58.5827 27.4749 57.5586C26.4508 56.5344 25.8747 55.1459 25.873 53.6976V46.089C25.8739 45.4459 26.1297 44.8294 26.5844 44.3747C27.0391 43.92 27.6556 43.6642 28.2987 43.6633H38.9549C39.5952 43.6642 40.209 43.9189 40.6618 44.3717C41.1146 44.8244 41.3693 45.4383 41.3701 46.0786V53.6841C41.3693 55.1357 40.7925 56.5277 39.7663 57.5544C38.7402 58.5812 37.3485 59.1588 35.8969 59.1604ZM28.2987 45.7365C28.2524 45.7365 28.2066 45.7456 28.1638 45.7633C28.121 45.7811 28.0822 45.807 28.0495 45.8397C28.0167 45.8725 27.9908 45.9113 27.9731 45.9541C27.9553 45.9968 27.9462 46.0427 27.9462 46.089V53.6976C27.9473 54.5962 28.3048 55.4577 28.9403 56.0932C29.5757 56.7286 30.4372 57.0861 31.3359 57.0872H35.8969C36.7984 57.0864 37.6627 56.7279 38.3002 56.0905C38.9376 55.453 39.2961 54.5887 39.2969 53.6872V46.0786C39.2969 45.9879 39.2609 45.9009 39.1967 45.8367C39.1326 45.7726 39.0456 45.7365 38.9549 45.7365H28.2987Z" fill="#FFEAB4"/>
</svg>
