<svg width="105" height="64" viewBox="0 0 105 64" fill="none" xmlns="http://www.w3.org/2000/svg">
<path d="M52.5072 64C37.5124 64 24.0813 55.4633 15.4561 48.3019C9.83212 43.6575 4.72397 38.4151 0.220707 32.666C0.0774439 32.4738 0 32.2402 0 32C0 31.7598 0.0774439 31.5262 0.220707 31.334C4.72383 25.5851 9.832 20.343 15.4561 15.6992C24.0813 8.53666 37.5124 0 52.5072 0C67.502 0 80.9242 8.53666 89.5505 15.6992C95.1726 20.3431 100.279 25.5852 104.779 31.334C104.923 31.5262 105 31.7598 105 32C105 32.2402 104.923 32.4738 104.779 32.666C100.278 38.415 95.1725 43.6575 89.5505 48.3019C80.9242 55.4633 67.4976 64 52.5072 64ZM2.50723 32C6.05398 36.4631 27.3003 61.7801 52.5072 61.7801C77.7141 61.7801 98.9504 36.4631 102.497 32C98.9504 27.5369 77.7052 2.21991 52.5072 2.21991C27.3091 2.21991 6.05398 27.5369 2.50723 32Z" fill="#FFEAB4"/>
<path d="M52.5044 55C47.8564 55.0009 43.3124 53.6234 39.4473 51.0417C35.5822 48.46 32.5694 44.7901 30.7901 40.4961C29.0108 36.2021 28.5448 31.4769 29.451 26.9181C30.3573 22.3592 32.5951 18.1715 35.8814 14.8846C39.1678 11.5976 43.3551 9.35899 47.9138 8.45188C52.4724 7.54477 57.1977 8.00989 61.492 9.78842C65.7864 11.5669 69.4568 14.579 72.0392 18.4436C74.6216 22.3083 76 26.852 76 31.5C75.9933 37.7298 73.5159 43.7025 69.1112 48.108C64.7065 52.5136 58.7342 54.9921 52.5044 55ZM52.5044 10.2045C48.2924 10.2036 44.1747 11.4519 40.6721 13.7913C37.1695 16.1308 34.4393 19.4564 32.8268 23.3475C31.2143 27.2387 30.792 31.5206 31.6132 35.6518C32.4344 39.7831 34.4622 43.578 37.4403 46.5566C40.4183 49.5353 44.2128 51.5639 48.3438 52.386C52.4749 53.208 56.7569 52.7866 60.6484 51.1749C64.5399 49.5632 67.8661 46.8337 70.2063 43.3316C72.5464 39.8295 73.7955 35.712 73.7955 31.5C73.7908 25.8543 71.5463 20.4411 67.5546 16.4485C63.5629 12.456 58.1501 10.2104 52.5044 10.2045Z" fill="#FFEAB4"/>
<path d="M52.5024 45C50.457 45.0016 48.438 44.5378 46.5981 43.6437C44.7582 42.7497 43.1455 41.4488 41.882 39.8393C40.6185 38.2299 39.7373 36.3541 39.3049 34.3537C38.8725 32.3534 38.9003 30.2809 39.3863 28.2928C39.8722 26.3048 40.8035 24.4534 42.1097 22.8785C43.416 21.3036 45.063 20.0465 46.9262 19.2022C48.7895 18.3579 50.8202 17.9486 52.8648 18.0052C54.9094 18.0617 56.9145 18.5826 58.7283 19.5286C58.8719 19.604 58.997 19.7103 59.0946 19.8399C59.1921 19.9696 59.2597 20.1193 59.2924 20.2782C59.3251 20.4372 59.3221 20.6014 59.2836 20.759C59.2452 20.9167 59.1722 21.0638 59.0699 21.1898C58.6853 21.6594 58.4742 22.2472 58.472 22.8543C58.4726 23.563 58.7541 24.2426 59.2549 24.7439C59.7557 25.2451 60.4347 25.5271 61.143 25.528C61.747 25.5328 62.3332 25.3236 62.7978 24.9374C62.9238 24.8339 63.0711 24.7595 63.2291 24.7193C63.3872 24.6792 63.5521 24.6743 63.7122 24.7051C63.872 24.737 64.0227 24.8043 64.1532 24.9019C64.2838 24.9995 64.3909 25.1251 64.4668 25.2694C65.4793 27.1856 66.0058 29.3215 66 31.489C65.9971 35.0705 64.5742 38.5046 62.0437 41.0376C59.5132 43.5706 56.0818 44.9956 52.5024 45ZM52.5024 20.1916C50.2667 20.1918 48.0813 20.8555 46.2226 22.0987C44.364 23.3419 42.9156 25.1087 42.0606 27.1757C41.2057 29.2427 40.9827 31.517 41.4198 33.7109C41.8569 35.9047 42.9345 37.9196 44.5162 39.5005C46.0979 41.0815 48.1127 42.1576 50.3058 42.5926C52.4988 43.0276 54.7715 42.802 56.8364 41.9444C58.9012 41.0868 60.6655 39.6356 61.906 37.7745C63.1465 35.9135 63.8075 33.7261 63.8053 31.489C63.8099 30.0698 63.5419 28.6628 63.0157 27.3448C62.4232 27.5949 61.7861 27.7224 61.143 27.7196C59.854 27.7181 58.6182 27.205 57.7068 26.2929C56.7954 25.3808 56.2829 24.1441 56.2817 22.8543C56.2832 22.2142 56.4124 21.5809 56.6617 20.9915C55.3381 20.4647 53.9269 20.1933 52.5024 20.1916Z" fill="#FFEAB4"/>
<path d="M61.0045 27.9999C60.0597 28.0024 59.1336 27.7368 58.3339 27.2338C57.5341 26.7308 56.8935 26.0112 56.4866 25.1585C56.0797 24.3059 55.9232 23.3552 56.0352 22.4171C56.1473 21.479 56.5233 20.5919 57.1196 19.8591C57.5847 19.2759 58.1758 18.8057 58.8487 18.4837C59.5216 18.1617 60.2586 17.9964 61.0045 18.0001C62.3288 18.0013 63.5986 18.5278 64.5351 19.4641C65.4716 20.4004 65.9985 21.67 66 22.9943C66.0032 23.7423 65.8367 24.4813 65.5129 25.1556C65.1891 25.8299 64.7165 26.422 64.1308 26.8871C63.252 27.6143 62.1451 28.0083 61.0045 27.9999ZM61.0045 20.2548C60.5962 20.2523 60.1926 20.3424 59.8239 20.5181C59.4553 20.6938 59.1313 20.9507 58.876 21.2694C58.5464 21.671 58.3379 22.1581 58.2748 22.6737C58.2118 23.1894 58.2969 23.7124 58.5202 24.1815C58.7434 24.6506 59.0956 25.0464 59.5356 25.3227C59.9755 25.599 60.485 25.7444 61.0045 25.7417C61.6263 25.7467 62.2298 25.5315 62.708 25.1341C63.0327 24.8797 63.295 24.5545 63.4748 24.1832C63.6545 23.812 63.747 23.4046 63.7452 22.9921C63.7437 22.266 63.4544 21.5701 62.9406 21.057C62.4269 20.5439 61.7306 20.2554 61.0045 20.2548Z" fill="#FFEAB4"/>
</svg>
