<svg width="70" height="70" viewBox="0 0 70 70" fill="none" xmlns="http://www.w3.org/2000/svg">
<g id="icons8-&#208;&#186;&#208;&#184;&#209;&#128;&#208;&#191;&#208;&#184;&#209;&#135;&#208;&#189;&#208;&#176;&#209;&#143;-&#209;&#129;&#209;&#130;&#208;&#181;&#208;&#189;&#208;&#176; 1">
<path id="Vector" d="M8.75129 10.2086C5.54685 10.2086 2.91796 12.8375 2.91796 16.042V27.7086C2.918 28.0954 3.07166 28.4663 3.34514 28.7398C3.61862 29.0133 3.98953 29.1669 4.37629 29.167H42.293C42.4862 29.1697 42.6781 29.134 42.8574 29.0619C43.0367 28.9899 43.1999 28.8829 43.3376 28.7472C43.4752 28.6115 43.5845 28.4498 43.6591 28.2715C43.7337 28.0932 43.7721 27.9019 43.7721 27.7086C43.7721 27.5154 43.7337 27.324 43.6591 27.1457C43.5845 26.9675 43.4752 26.8058 43.3376 26.6701C43.1999 26.5344 43.0367 26.4274 42.8574 26.3553C42.6781 26.2833 42.4862 26.2476 42.293 26.2503H5.83463V16.042C5.83463 14.4135 7.12282 13.1253 8.75129 13.1253H16.043C16.2362 13.128 16.4281 13.0923 16.6074 13.0203C16.7867 12.9482 16.9499 12.8412 17.0876 12.7055C17.2252 12.5699 17.3345 12.4082 17.4091 12.2299C17.4837 12.0516 17.5221 11.8602 17.5221 11.667C17.5221 11.4737 17.4837 11.2824 17.4091 11.1041C17.3345 10.9258 17.2252 10.7641 17.0876 10.6284C16.9499 10.4927 16.7867 10.3857 16.6074 10.3137C16.4281 10.2416 16.2362 10.2059 16.043 10.2086H8.75129ZM21.8763 10.2086C21.4895 10.2087 21.1186 10.3623 20.8451 10.6358C20.5717 10.9093 20.418 11.2802 20.418 11.667V23.3336C20.4152 23.5269 20.4509 23.7188 20.523 23.8981C20.5951 24.0774 20.702 24.2406 20.8377 24.3783C20.9734 24.5159 21.1351 24.6252 21.3134 24.6997C21.4917 24.7743 21.683 24.8127 21.8763 24.8127C22.0696 24.8127 22.2609 24.7743 22.4392 24.6997C22.6175 24.6252 22.7792 24.5159 22.9149 24.3783C23.0505 24.2406 23.1575 24.0774 23.2296 23.8981C23.3017 23.7188 23.3374 23.5269 23.3346 23.3336V13.1253H46.668V27.7086C46.668 28.0954 46.8217 28.4663 47.0951 28.7398C47.3686 29.0133 47.7395 29.1669 48.1263 29.167H64.168V37.917C64.1652 38.1102 64.2009 38.3021 64.273 38.4814C64.345 38.6607 64.452 38.824 64.5877 38.9616C64.7234 39.0992 64.8851 39.2085 65.0634 39.2831C65.2417 39.3577 65.433 39.3961 65.6263 39.3961C65.8196 39.3961 66.0109 39.3577 66.1892 39.2831C66.3675 39.2085 66.5292 39.0992 66.6649 38.9616C66.8005 38.824 66.9075 38.6607 66.9796 38.4814C67.0517 38.3021 67.0874 38.1102 67.0846 37.917V27.9536C67.1106 27.7961 67.1106 27.6354 67.0846 27.4779V16.042C67.0846 12.8375 64.4557 10.2086 61.2513 10.2086H53.9596C53.7664 10.2059 53.5745 10.2416 53.3952 10.3137C53.2159 10.3857 53.0526 10.4927 52.915 10.6284C52.7774 10.7641 52.6681 10.9258 52.5935 11.1041C52.5189 11.2824 52.4805 11.4737 52.4805 11.667C52.4805 11.8602 52.5189 12.0516 52.5935 12.2299C52.6681 12.4082 52.7774 12.5699 52.915 12.7055C53.0526 12.8412 53.2159 12.9482 53.3952 13.0203C53.5745 13.0923 53.7664 13.128 53.9596 13.1253H61.2513C62.8798 13.1253 64.168 14.4135 64.168 16.042V26.2503H49.5846V11.667C49.5846 11.2802 49.4309 10.9093 49.1574 10.6358C48.884 10.3623 48.5131 10.2087 48.1263 10.2086H21.8763ZM4.35351 32.0637C3.96723 32.0697 3.59913 32.2288 3.32999 32.5059C3.06086 32.7831 2.91267 33.1557 2.91796 33.542V43.5054C2.89193 43.6628 2.89193 43.8235 2.91796 43.981V55.417C2.91796 58.6214 5.54685 61.2503 8.75129 61.2503H16.043C16.2362 61.253 16.4281 61.2173 16.6074 61.1453C16.7867 61.0732 16.9499 60.9662 17.0876 60.8305C17.2252 60.6949 17.3345 60.5332 17.4091 60.3549C17.4837 60.1766 17.5221 59.9852 17.5221 59.792C17.5221 59.5987 17.4837 59.4074 17.4091 59.2291C17.3345 59.0508 17.2252 58.8891 17.0876 58.7534C16.9499 58.6177 16.7867 58.5107 16.6074 58.4387C16.4281 58.3666 16.2362 58.3309 16.043 58.3336H8.75129C7.12282 58.3336 5.83463 57.0454 5.83463 55.417V45.2086H29.168C29.3612 45.2114 29.5531 45.1757 29.7324 45.1036C29.9117 45.0315 30.0749 44.9246 30.2126 44.7889C30.3502 44.6532 30.4595 44.4915 30.5341 44.3132C30.6087 44.1349 30.6471 43.9436 30.6471 43.7503C30.6471 43.557 30.6087 43.3657 30.5341 43.1874C30.4595 43.0091 30.3502 42.8474 30.2126 42.7117C30.0749 42.576 29.9117 42.4691 29.7324 42.397C29.5531 42.3249 29.3612 42.2892 29.168 42.292H5.83463V33.542C5.8373 33.3469 5.80079 33.1532 5.72727 32.9725C5.65375 32.7917 5.5447 32.6276 5.40659 32.4897C5.26848 32.3519 5.10412 32.2431 4.92323 32.17C4.74234 32.0968 4.54861 32.0607 4.35351 32.0637ZM34.9785 32.0637C34.5922 32.0697 34.2241 32.2288 33.955 32.5059C33.6859 32.7831 33.5377 33.1557 33.543 33.542V43.7503C33.543 44.1371 33.6967 44.508 33.9701 44.7815C34.2436 45.0549 34.6145 45.2086 35.0013 45.2086H64.168V55.417C64.168 57.0454 62.8798 58.3336 61.2513 58.3336H49.5846V49.5836C49.5873 49.3885 49.5508 49.1949 49.4773 49.0141C49.4037 48.8334 49.2947 48.6692 49.1566 48.5314C49.0185 48.3935 48.8541 48.2848 48.6732 48.2116C48.4923 48.1385 48.2986 48.1023 48.1035 48.1054C47.7172 48.1114 47.3491 48.2705 47.08 48.5476C46.8109 48.8247 46.6627 49.1974 46.668 49.5836V59.547C46.6284 59.7802 46.646 60.0194 46.7195 60.2442C46.7929 60.469 46.9199 60.6725 47.0895 60.8373C47.0923 60.8402 47.0952 60.843 47.0981 60.8458C47.1046 60.8526 47.1113 60.8592 47.118 60.8658C47.2808 61.0211 47.4774 61.1367 47.6924 61.2034C47.9073 61.2701 48.1348 61.2862 48.357 61.2503H61.2513C64.4557 61.2503 67.0846 58.6214 67.0846 55.417V43.7503C67.0846 43.3635 66.9309 42.9926 66.6574 42.7192C66.384 42.4457 66.0131 42.292 65.6263 42.292H36.4596V33.542C36.4623 33.3469 36.4258 33.1532 36.3523 32.9725C36.2787 32.7917 36.1697 32.6276 36.0316 32.4897C35.8935 32.3519 35.7291 32.2431 35.5482 32.17C35.3673 32.0968 35.1736 32.0607 34.9785 32.0637ZM21.8535 48.1054C21.4672 48.1114 21.0991 48.2705 20.83 48.5476C20.5609 48.8247 20.4127 49.1974 20.418 49.5836V59.792C20.418 60.1787 20.5717 60.5496 20.8451 60.8231C21.1186 61.0966 21.4895 61.2503 21.8763 61.2503H42.293C42.4862 61.253 42.6781 61.2173 42.8574 61.1453C43.0367 61.0732 43.1999 60.9662 43.3376 60.8305C43.4752 60.6949 43.5845 60.5332 43.6591 60.3549C43.7337 60.1766 43.7721 59.9852 43.7721 59.792C43.7721 59.5987 43.7337 59.4074 43.6591 59.2291C43.5845 59.0508 43.4752 58.8891 43.3376 58.7534C43.1999 58.6177 43.0367 58.5107 42.8574 58.4387C42.6781 58.3666 42.4862 58.3309 42.293 58.3336H23.3346V49.5836C23.3373 49.3885 23.3008 49.1949 23.2273 49.0141C23.1537 48.8334 23.0447 48.6692 22.9066 48.5314C22.7685 48.3935 22.6041 48.2848 22.4232 48.2116C22.2423 48.1385 22.0486 48.1023 21.8535 48.1054Z" fill="#FFEAB4"/>
</g>
</svg>
