<svg width="70" height="70" viewBox="0 0 70 70" fill="none" xmlns="http://www.w3.org/2000/svg">
<g id="icons8-&#208;&#186;&#208;&#190;&#208;&#188;&#208;&#188;&#208;&#181;&#208;&#189;&#209;&#130;&#208;&#176;&#209;&#128;&#208;&#184;&#208;&#184; 1">
<path id="Vector" d="M11.6667 8.75C7.65696 8.75 4.375 12.032 4.375 16.0417V48.125C4.375 51.51 6.6962 54.3784 9.8466 55.1888C10.0321 55.2367 10.2253 55.2477 10.4151 55.2209C10.6048 55.1942 10.7875 55.1303 10.9526 55.033C11.1177 54.9357 11.2619 54.8068 11.3772 54.6537C11.4925 54.5006 11.5764 54.3263 11.6243 54.1407C11.6722 53.9552 11.6831 53.762 11.6563 53.5722C11.6295 53.3825 11.5656 53.1999 11.4682 53.0348C11.3709 52.8697 11.2419 52.7255 11.0888 52.6103C10.9357 52.495 10.7613 52.4111 10.5758 52.3633C8.692 51.8787 7.29167 50.1796 7.29167 48.125V16.0417C7.29167 13.6085 9.23346 11.6667 11.6667 11.6667H58.3333C60.7665 11.6667 62.7083 13.6085 62.7083 16.0417V48.125C62.7083 50.5582 60.7665 52.5 58.3333 52.5H35.9172C34.6418 52.5 33.4003 52.9186 32.3853 53.6906L18.9042 63.9473C18.2522 64.4435 17.5 64.0679 17.5 63.2495V53.9583C17.5027 53.7651 17.467 53.5732 17.395 53.3939C17.3229 53.2146 17.2159 53.0513 17.0802 52.9137C16.9445 52.7761 16.7829 52.6668 16.6046 52.5922C16.4263 52.5176 16.2349 52.4792 16.0417 52.4792C15.8484 52.4792 15.6571 52.5176 15.4788 52.5922C15.3005 52.6668 15.1388 52.7761 15.0031 52.9137C14.8674 53.0513 14.7604 53.2146 14.6884 53.3939C14.6163 53.5732 14.5806 53.7651 14.5833 53.9583V63.2495C14.5833 66.2928 18.248 68.1118 20.6702 66.2687L34.1512 56.012C34.6587 55.626 35.2791 55.4167 35.9172 55.4167H58.3333C62.343 55.4167 65.625 52.1347 65.625 48.125V16.0417C65.625 12.032 62.343 8.75 58.3333 8.75H11.6667ZM18.9583 21.875C18.7651 21.8723 18.5732 21.908 18.3939 21.98C18.2146 22.0521 18.0513 22.1591 17.9137 22.2948C17.7761 22.4305 17.6668 22.5921 17.5922 22.7704C17.5176 22.9487 17.4792 23.1401 17.4792 23.3333C17.4792 23.5266 17.5176 23.7179 17.5922 23.8962C17.6668 24.0745 17.7761 24.2362 17.9137 24.3719C18.0513 24.5076 18.2146 24.6146 18.3939 24.6866C18.5732 24.7587 18.7651 24.7944 18.9583 24.7917H51.0417C51.2349 24.7944 51.4268 24.7587 51.6061 24.6866C51.7854 24.6146 51.9487 24.5076 52.0863 24.3719C52.2239 24.2362 52.3332 24.0745 52.4078 23.8962C52.4824 23.7179 52.5208 23.5266 52.5208 23.3333C52.5208 23.1401 52.4824 22.9487 52.4078 22.7704C52.3332 22.5921 52.2239 22.4305 52.0863 22.2948C51.9487 22.1591 51.7854 22.0521 51.6061 21.98C51.4268 21.908 51.2349 21.8723 51.0417 21.875H18.9583ZM18.9583 30.625C18.7651 30.6223 18.5732 30.658 18.3939 30.73C18.2146 30.8021 18.0513 30.9091 17.9137 31.0448C17.7761 31.1805 17.6668 31.3421 17.5922 31.5204C17.5176 31.6987 17.4792 31.8901 17.4792 32.0833C17.4792 32.2766 17.5176 32.4679 17.5922 32.6462C17.6668 32.8245 17.7761 32.9862 17.9137 33.1219C18.0513 33.2576 18.2146 33.3646 18.3939 33.4366C18.5732 33.5087 18.7651 33.5444 18.9583 33.5417H51.0417C51.2349 33.5444 51.4268 33.5087 51.6061 33.4366C51.7854 33.3646 51.9487 33.2576 52.0863 33.1219C52.2239 32.9862 52.3332 32.8245 52.4078 32.6462C52.4824 32.4679 52.5208 32.2766 52.5208 32.0833C52.5208 31.8901 52.4824 31.6987 52.4078 31.5204C52.3332 31.3421 52.2239 31.1805 52.0863 31.0448C51.9487 30.9091 51.7854 30.8021 51.6061 30.73C51.4268 30.658 51.2349 30.6223 51.0417 30.625H18.9583ZM18.9583 39.375C18.7651 39.3723 18.5732 39.408 18.3939 39.48C18.2146 39.5521 18.0513 39.6591 17.9137 39.7948C17.7761 39.9305 17.6668 40.0921 17.5922 40.2704C17.5176 40.4487 17.4792 40.6401 17.4792 40.8333C17.4792 41.0266 17.5176 41.2179 17.5922 41.3962C17.6668 41.5745 17.7761 41.7362 17.9137 41.8719C18.0513 42.0076 18.2146 42.1146 18.3939 42.1866C18.5732 42.2587 18.7651 42.2944 18.9583 42.2917H36.4583C36.6516 42.2944 36.8434 42.2587 37.0228 42.1866C37.2021 42.1146 37.3653 42.0076 37.5029 41.8719C37.6406 41.7362 37.7498 41.5745 37.8244 41.3962C37.899 41.2179 37.9374 41.0266 37.9374 40.8333C37.9374 40.6401 37.899 40.4487 37.8244 40.2704C37.7498 40.0921 37.6406 39.9305 37.5029 39.7948C37.3653 39.6591 37.2021 39.5521 37.0228 39.48C36.8434 39.408 36.6516 39.3723 36.4583 39.375H18.9583Z" fill="#FFEAB4"/>
</g>
</svg>
