<svg width="70" height="70" viewBox="0 0 70 70" fill="none" xmlns="http://www.w3.org/2000/svg">
<g id="icons8-&#208;&#189;&#208;&#176;&#208;&#191;&#208;&#190;&#208;&#187;&#208;&#190;&#208;&#178;&#208;&#184;&#208;&#189;&#209;&#131;-&#208;&#191;&#209;&#131;&#209;&#129;&#209;&#130;&#208;&#176;&#209;&#143;-&#208;&#183;&#208;&#178;&#208;&#181;&#208;&#183;&#208;&#180;&#208;&#176; 1">
<path id="Vector" d="M34.9976 3.26416C33.9366 3.26416 32.8764 3.79451 32.3686 4.85352L24.1028 22.0886L4.52922 24.9084H4.52637C3.42236 25.0704 2.56828 25.892 2.27906 26.8396C1.99006 27.7865 2.24317 28.9482 3.06804 29.7021L17.3865 42.7901L13.6865 62.4976V62.5004C13.2719 64.7217 15.8372 66.5437 17.7938 65.3971L30.3292 58.2422C30.4994 58.1493 30.6494 58.0234 30.7704 57.8718C30.8914 57.7202 30.9809 57.546 31.0337 57.3595C31.0866 57.1729 31.1017 56.9776 31.0782 56.7851C31.0547 56.5926 30.993 56.4067 30.8968 56.2384C30.8006 56.07 30.6718 55.9225 30.5178 55.8045C30.3639 55.6865 30.188 55.6004 30.0005 55.5512C29.8129 55.502 29.6174 55.4907 29.4254 55.518C29.2333 55.5453 29.0487 55.6106 28.8822 55.71L16.6146 62.7112L20.4028 42.5309C20.4487 42.2873 20.4317 42.036 20.3535 41.8008C20.2752 41.5655 20.1383 41.3541 19.9557 41.1865L5.25554 27.7511L25.2877 24.8629C25.5248 24.829 25.75 24.7372 25.9432 24.5956C26.1365 24.454 26.2919 24.267 26.3957 24.0511L33.5392 9.15446V53.9583C33.5393 54.2159 33.6076 54.4689 33.7372 54.6916C33.8668 54.9142 34.053 55.0985 34.2769 55.2258L52.2184 65.4085C54.1741 66.5265 56.7218 64.7105 56.3058 62.4976L52.6058 42.7901L66.9271 29.7021C67.7529 28.9473 68.0053 27.7847 67.7161 26.8368C67.4271 25.8896 66.5704 25.0686 65.4659 24.9084H65.4631L45.8923 22.0886L37.6266 4.85352C37.1187 3.79451 36.0585 3.26416 34.9976 3.26416ZM36.4559 9.15446L43.5966 24.0511C43.7004 24.267 43.8558 24.454 44.0491 24.5956C44.2423 24.7372 44.4674 24.829 44.7046 24.8629L64.7396 27.7511L50.0395 41.1865C49.8563 41.3538 49.7189 41.5651 49.6401 41.8004C49.5614 42.0356 49.5439 42.2871 49.5894 42.5309L53.3805 62.714L36.4559 53.1095V9.15446Z" fill="#FFEAB4"/>
</g>
</svg>
