<svg width="70" height="70" viewBox="0 0 70 70" fill="none" xmlns="http://www.w3.org/2000/svg">
<g id="icons8-&#209;&#128;&#209;&#131;&#208;&#186;&#208;&#190;&#208;&#191;&#208;&#190;&#208;&#182;&#208;&#176;&#209;&#130;&#208;&#184;&#208;&#181; 1">
<path id="Vector" d="M39.8293 13.125C36.3788 13.125 33.0217 14.2386 30.2533 16.298H30.2505L20.1703 23.8005C19.1332 24.5552 18.695 25.9327 19.1478 27.1529L19.1506 27.1615L19.1535 27.1672C20.4394 30.5126 23.9564 32.5006 27.4933 31.884C30.4458 31.3789 33.394 30.3439 37.1291 28.3492C37.2998 28.2599 37.4511 28.1376 37.5743 27.9895C37.6975 27.8414 37.7901 27.6704 37.8468 27.4862C37.9036 27.3021 37.9232 27.1086 37.9047 26.9168C37.8862 26.7251 37.8299 26.5389 37.7391 26.369C37.6482 26.1991 37.5246 26.049 37.3753 25.9271C37.2261 25.8053 37.0542 25.7142 36.8696 25.6592C36.685 25.6042 36.4913 25.5863 36.2997 25.6065C36.1081 25.6268 35.9224 25.6848 35.7534 25.7772C32.2049 27.6722 29.6231 28.561 26.9948 29.01H26.992C24.8359 29.3858 22.6948 28.1689 21.8992 26.1475L31.9936 18.6365V18.6393C34.2594 16.9537 37.0061 16.0417 39.8293 16.0417H46.164C48.3209 16.0417 50.4695 16.2949 52.5669 16.7936L57.2125 17.8959C59.5022 18.4395 61.3868 20.0494 62.2768 22.2282V22.231L65.1793 29.329C66.1157 31.6192 65.5097 34.2377 63.664 35.8858L53.6208 44.8551C53.4779 44.9827 53.3616 45.1371 53.2784 45.3097C53.1952 45.4822 53.1468 45.6694 53.1359 45.8606C53.1251 46.0518 53.152 46.2433 53.2152 46.4242C53.2783 46.605 53.3765 46.7716 53.504 46.9145C53.6316 47.0574 53.786 47.1737 53.9586 47.2569C54.1311 47.3401 54.3183 47.3885 54.5095 47.3994C54.7007 47.4102 54.8922 47.3833 55.0731 47.3201C55.2539 47.257 55.4205 47.1588 55.5634 47.0312L65.6065 38.0619C68.3662 35.5976 69.2764 31.6474 67.8766 28.2239L64.9742 21.1259H64.977C63.732 18.078 61.0871 15.8164 57.8847 15.0562L53.242 13.9539C50.9236 13.4026 48.5482 13.125 46.164 13.125H39.8293ZM23.5171 14.5833C19.6566 14.5833 15.8288 15.3139 12.2406 16.7367L10.1015 17.5826C7.27109 18.7036 5.08731 21.0325 4.14857 23.9286L2.15191 30.0981C0.295199 35.8285 1.80828 42.1246 6.06833 46.3847L22.0929 62.4264C24.0749 64.4063 27.3297 64.4072 29.3105 62.4264C29.8942 61.8421 30.2843 61.1415 30.5239 60.4012C32.5033 61.7093 35.2216 61.497 36.9582 59.7603C37.6747 59.0432 38.0391 58.1439 38.2371 57.214C40.0413 57.858 42.1369 57.4983 43.572 56.0632C44.281 55.3535 44.7264 54.4792 44.9278 53.5596C46.7138 54.1636 48.7717 53.7774 50.1858 52.3633C52.1658 50.3813 52.1666 47.1265 50.1858 45.1457L50.1829 45.1428L36.887 31.9096C36.7509 31.7704 36.5882 31.6599 36.4087 31.5845C36.2292 31.5092 36.0364 31.4706 35.8417 31.4709C35.5515 31.4716 35.268 31.5588 35.0276 31.7214C34.7872 31.884 34.6008 32.1146 34.4923 32.3838C34.3837 32.6529 34.3579 32.9484 34.4181 33.2323C34.4784 33.5162 34.622 33.7756 34.8305 33.9775L48.1264 47.2107C48.9887 48.076 48.9873 49.4344 48.1236 50.3011C47.2578 51.1669 45.895 51.1678 45.0275 50.3011L45.0246 50.2983L43.6404 48.9254C43.6152 48.8991 43.5978 48.8686 43.572 48.8428L37.4681 42.7389C37.3318 42.5988 37.1688 42.4876 36.9888 42.4117C36.8087 42.3359 36.6153 42.297 36.4199 42.2974C36.13 42.298 35.8469 42.385 35.6067 42.5473C35.3665 42.7095 35.1801 42.9397 35.0713 43.2083C34.9625 43.477 34.9362 43.772 34.9958 44.0557C35.0554 44.3394 35.1982 44.5989 35.4059 44.801L35.8531 45.2454L35.8588 45.2539C35.9266 45.3692 36.01 45.4746 36.1066 45.5672L41.5839 50.9932C42.3679 51.8612 42.3486 53.1614 41.5098 54.0011C40.6456 54.8652 39.2872 54.8656 38.4194 54.0039L31.6661 47.1053C31.5331 46.9646 31.3734 46.8518 31.1963 46.7735C31.0192 46.6951 30.8283 46.6528 30.6347 46.649C30.4412 46.6452 30.2488 46.68 30.0688 46.7514C29.8888 46.8227 29.7248 46.9292 29.5864 47.0646C29.4479 47.2 29.3379 47.3616 29.2626 47.54C29.1872 47.7183 29.1482 47.9099 29.1477 48.1035C29.1472 48.2972 29.1853 48.4889 29.2597 48.6677C29.3341 48.8465 29.4434 49.0086 29.5811 49.1447L34.7166 54.3913C34.7695 54.4681 34.8295 54.5396 34.896 54.6049C35.7619 55.4707 35.7599 56.8306 34.8932 57.6982C34.028 58.5613 32.6698 58.5621 31.8028 57.6982H31.7999L26.5733 52.2237C26.4442 52.0738 26.2861 51.9517 26.1083 51.8648C25.9306 51.7779 25.7371 51.7281 25.5395 51.7184C25.3419 51.7087 25.1444 51.7393 24.959 51.8083C24.7736 51.8773 24.6042 51.9833 24.4611 52.1199C24.318 52.2564 24.2041 52.4207 24.1265 52.6026C24.0488 52.7845 24.009 52.9804 24.0094 53.1782C24.0098 53.376 24.0505 53.5717 24.1289 53.7533C24.2073 53.9349 24.3218 54.0987 24.4655 54.2346L26.9293 56.818C27.0058 56.988 27.114 57.1417 27.2483 57.2709C28.1142 58.1367 28.115 59.4966 27.2483 60.3642C26.3825 61.23 25.0226 61.2309 24.1551 60.3642L8.1305 44.3225C4.64097 40.833 3.40536 35.6918 4.92616 30.9981L6.92282 24.8287C7.59408 22.7578 9.15246 21.0953 11.1753 20.2942L13.3144 19.4482C16.56 18.1614 20.0246 17.5 23.5171 17.5H24.7903C24.9835 17.5027 25.1754 17.467 25.3547 17.395C25.534 17.3229 25.6972 17.2159 25.8349 17.0802C25.9725 16.9445 26.0818 16.7829 26.1564 16.6046C26.2309 16.4263 26.2694 16.2349 26.2694 16.0417C26.2694 15.8484 26.2309 15.6571 26.1564 15.4788C26.0818 15.3005 25.9725 15.1388 25.8349 15.0031C25.6972 14.8674 25.534 14.7604 25.3547 14.6884C25.1754 14.6163 24.9835 14.5806 24.7903 14.5833H23.5171Z" fill="#FFEAB4"/>
</g>
</svg>
