<svg width="70" height="70" viewBox="0 0 70 70" fill="none" xmlns="http://www.w3.org/2000/svg">
<g id="icons8-&#209;&#129;&#208;&#187;&#208;&#190;&#208;&#184; 1">
<path id="Vector" d="M35.0025 5.83352C34.8029 5.83227 34.6051 5.87202 34.4214 5.95031L3.79645 19.0753C3.5335 19.1875 3.30931 19.3744 3.15174 19.6129C2.99416 19.8514 2.91016 20.131 2.91016 20.4169C2.91016 20.7027 2.99416 20.9823 3.15174 21.2208C3.30931 21.4593 3.5335 21.6463 3.79645 21.7584L34.4214 34.8834C34.6032 34.9614 34.799 35.0017 34.9968 35.0017C35.1946 35.0017 35.3904 34.9614 35.5722 34.8834L66.1972 21.7584C66.4601 21.6463 66.6843 21.4593 66.8419 21.2208C66.9994 20.9823 67.0835 20.7027 67.0835 20.4169C67.0835 20.131 66.9994 19.8514 66.8419 19.6129C66.6843 19.3744 66.4601 19.1875 66.1972 19.0753L35.5722 5.95031C35.392 5.87353 35.1983 5.83382 35.0025 5.83352ZM34.9968 8.87837L61.9162 20.4169L34.9968 31.9553L8.07745 20.4169L34.9968 8.87837ZM14.4263 29.201C14.2454 29.2099 14.0676 29.2524 13.9022 29.3264L3.79645 33.6586C3.5335 33.7708 3.30931 33.9577 3.15174 34.1962C2.99416 34.4348 2.91016 34.7143 2.91016 35.0002C2.91016 35.2861 2.99416 35.5656 3.15174 35.8041C3.30931 36.0426 3.5335 36.2296 3.79645 36.3417L34.4214 49.4667C34.6032 49.5448 34.799 49.585 34.9968 49.585C35.1946 49.585 35.3904 49.5448 35.5722 49.4667L66.1972 36.3417C66.4601 36.2296 66.6843 36.0426 66.8419 35.8041C66.9994 35.5656 67.0835 35.2861 67.0835 35.0002C67.0835 34.7143 66.9994 34.4348 66.8419 34.1962C66.6843 33.9577 66.4601 33.7708 66.1972 33.6586L56.0914 29.3264C55.915 29.2487 55.7251 29.2068 55.5325 29.203C55.3398 29.1992 55.1484 29.2336 54.9691 29.3042C54.7899 29.3749 54.6264 29.4803 54.4881 29.6144C54.3499 29.7486 54.2395 29.9088 54.1635 30.0858C54.0875 30.2629 54.0474 30.4532 54.0453 30.6458C54.0433 30.8385 54.0794 31.0296 54.1517 31.2082C54.224 31.3868 54.3309 31.5493 54.4663 31.6864C54.6017 31.8234 54.7629 31.9322 54.9407 32.0066L61.919 35.0002L34.9968 46.5387L8.07461 35.0002L15.053 32.0066C15.371 31.8758 15.6327 31.6368 15.7916 31.3318C15.9506 31.0268 15.9966 30.6755 15.9217 30.3398C15.8467 30.0042 15.6555 29.7058 15.3819 29.4974C15.1083 29.2891 14.7698 29.1841 14.4263 29.201ZM14.4263 43.7844C14.2454 43.7932 14.0676 43.8357 13.9022 43.9097L3.79645 48.242C3.5335 48.3541 3.30931 48.5411 3.15174 48.7796C2.99416 49.0181 2.91016 49.2977 2.91016 49.5835C2.91016 49.8694 2.99416 50.1489 3.15174 50.3875C3.30931 50.626 3.5335 50.8129 3.79645 50.9251L34.4214 64.0501C34.6032 64.1281 34.799 64.1684 34.9968 64.1684C35.1946 64.1684 35.3904 64.1281 35.5722 64.0501L66.1972 50.9251C66.4601 50.8129 66.6843 50.626 66.8419 50.3875C66.9994 50.1489 67.0835 49.8694 67.0835 49.5835C67.0835 49.2977 66.9994 49.0181 66.8419 48.7796C66.6843 48.5411 66.4601 48.3541 66.1972 48.242L56.0914 43.9097C55.915 43.8321 55.7251 43.7901 55.5325 43.7864C55.3398 43.7826 55.1484 43.817 54.9691 43.8876C54.7899 43.9582 54.6264 44.0636 54.4881 44.1978C54.3499 44.3319 54.2395 44.4921 54.1635 44.6692C54.0875 44.8462 54.0474 45.0365 54.0453 45.2292C54.0433 45.4218 54.0794 45.613 54.1517 45.7915C54.224 45.9701 54.3309 46.1326 54.4663 46.2697C54.6017 46.4067 54.7629 46.5156 54.9407 46.59L61.919 49.5835L34.9968 61.122L8.07461 49.5835L15.053 46.59C15.371 46.4591 15.6327 46.2201 15.7916 45.9152C15.9506 45.6102 15.9966 45.2588 15.9217 44.9232C15.8467 44.5875 15.6555 44.2891 15.3819 44.0808C15.1083 43.8724 14.7698 43.7674 14.4263 43.7844Z" fill="#FFEAB4"/>
</g>
</svg>
