<svg width="70" height="70" viewBox="0 0 70 70" fill="none" xmlns="http://www.w3.org/2000/svg">
<g id="icons8-&#209;&#128;&#208;&#176;&#209;&#129;&#208;&#191;&#208;&#190;&#208;&#183;&#208;&#189;&#208;&#176;&#208;&#178;&#208;&#176;&#208;&#189;&#208;&#184;&#208;&#181;-&#208;&#179;&#208;&#190;&#208;&#187;&#208;&#190;&#209;&#129;&#208;&#176; 1" clip-path="url(#clip0_2778_11533)">
<path id="Vector" d="M4.38503 4.37528C4.19209 4.3715 4.00032 4.40604 3.82082 4.47691C3.64133 4.54778 3.47769 4.65357 3.33937 4.78814C3.20106 4.92271 3.09083 5.0834 3.01507 5.26088C2.9393 5.43836 2.89952 5.62911 2.89801 5.82208C2.8965 6.01506 2.9333 6.20641 3.00628 6.38505C3.07927 6.5637 3.18697 6.72608 3.32317 6.8628C3.45936 6.99952 3.62133 7.10785 3.79969 7.18151C3.97806 7.25518 4.16927 7.29271 4.36224 7.29195C10.3165 7.33301 15.6781 9.74953 19.5893 13.6608C23.5129 17.5994 25.941 23.0152 25.941 29.0217V31.2661C25.9417 31.5235 26.0105 31.776 26.1404 31.9982L32.0022 42.104C32.0041 42.1068 32.006 42.1097 32.0079 42.1125C32.0349 42.1584 32.0461 42.1412 31.9794 42.1638L28.4418 43.343C28.1776 43.431 27.9441 43.5929 27.769 43.8094C27.5938 44.026 27.4844 44.2881 27.4535 44.5649L26.5506 52.7025C26.5506 52.7035 26.5506 52.7044 26.5506 52.7054C26.2957 55.0106 24.365 56.73 22.0474 56.73H15.4422C15.0554 56.73 14.6845 56.8837 14.411 57.1572C14.1375 57.4307 13.9839 57.8016 13.9838 58.1883V62.7086H4.37363C4.18039 62.7059 3.98853 62.7416 3.8092 62.8136C3.62987 62.8857 3.46665 62.9927 3.32903 63.1284C3.19141 63.2641 3.08212 63.4258 3.00753 63.604C2.93294 63.7823 2.89453 63.9737 2.89453 64.1669C2.89453 64.3602 2.93294 64.5515 3.00753 64.7298C3.08212 64.9081 3.19141 65.0698 3.32903 65.2055C3.46665 65.3412 3.62987 65.4482 3.8092 65.5202C3.98853 65.5923 4.18039 65.628 4.37363 65.6253H15.4422C15.8289 65.6252 16.1998 65.4716 16.4733 65.1981C16.7468 64.9246 16.9005 64.5537 16.9005 64.1669V59.6467H22.0474C25.8247 59.6467 29.0301 56.7873 29.4473 53.0272V53.0244L30.2505 45.8153L32.908 44.9295C32.9099 44.9285 32.9118 44.9276 32.9137 44.9266C34.6553 44.3367 35.4556 42.2217 34.5201 40.6342L28.8577 30.8759V29.0217C28.8577 22.2254 26.0971 16.0625 21.6515 11.6014C21.6515 11.6005 21.6515 11.5995 21.6515 11.5986C17.221 7.16828 11.1183 4.42172 4.38503 4.37528ZM50.9662 40.8365C50.6732 40.8511 50.3914 40.9539 50.1577 41.1312C49.9239 41.3085 49.7491 41.5523 49.656 41.8305L44.8253 56.3227L42.0824 51.7512C41.953 51.535 41.7698 51.3561 41.5506 51.2318C41.3315 51.1075 41.0839 51.0421 40.832 51.0419H34.9986C34.8054 51.0392 34.6135 51.0749 34.4342 51.147C34.2549 51.219 34.0917 51.326 33.954 51.4617C33.8164 51.5974 33.7071 51.7591 33.6325 51.9374C33.5579 52.1157 33.5195 52.307 33.5195 52.5003C33.5195 52.6935 33.5579 52.8849 33.6325 53.0632C33.7071 53.2415 33.8164 53.4031 33.954 53.5388C34.0917 53.6745 34.2549 53.7815 34.4342 53.8536C34.6135 53.9256 34.8054 53.9613 34.9986 53.9586H40.006L43.9566 60.541C44.0999 60.7804 44.3089 60.9736 44.5587 61.0977C44.8086 61.2219 45.0888 61.2718 45.3661 61.2415C45.6434 61.2112 45.9063 61.102 46.1234 60.9269C46.3406 60.7518 46.5029 60.518 46.5912 60.2534L51.0403 46.9062L56.9477 64.6284C57.0431 64.9142 57.2248 65.1634 57.4676 65.3419C57.7105 65.5203 58.0026 65.6191 58.3039 65.6247C58.6052 65.6303 58.9008 65.5425 59.1502 65.3732C59.3995 65.204 59.5903 64.9617 59.6963 64.6796L63.7181 53.9586H68.5403C68.7336 53.9613 68.9254 53.9256 69.1047 53.8536C69.2841 53.7815 69.4473 53.6745 69.5849 53.5388C69.7225 53.4031 69.8318 53.2415 69.9064 53.0632C69.981 52.8849 70.0194 52.6935 70.0194 52.5003C70.0194 52.307 69.981 52.1157 69.9064 51.9374C69.8318 51.7591 69.7225 51.5974 69.5849 51.4617C69.4473 51.326 69.2841 51.219 69.1047 51.147C68.9254 51.0749 68.7336 51.0392 68.5403 51.0419H62.707C62.4104 51.0421 62.1209 51.1328 61.8771 51.3017C61.6334 51.4707 61.4469 51.7099 61.3426 51.9876L58.4146 59.7976L52.4246 41.8305C52.3235 41.5282 52.1262 41.2674 51.8628 41.0879C51.5995 40.9083 51.2846 40.82 50.9662 40.8365Z" fill="#FFEAB4"/>
</g>
<defs>
<clipPath id="clip0_2778_11533">
<rect width="70" height="70" fill="white"/>
</clipPath>
</defs>
</svg>
