<svg width="36" height="36" viewBox="0 0 36 36" fill="none" xmlns="http://www.w3.org/2000/svg">
<g id="icons8-&#209;&#128;&#209;&#131;&#208;&#187;&#208;&#181;&#209;&#130;&#208;&#186;&#208;&#176;-&#208;&#180;&#208;&#187;&#209;&#143;-&#209;&#136;&#208;&#184;&#209;&#130;&#209;&#140;&#209;&#143; 1">
<path id="Vector" d="M14.4002 6.48001C11.1338 6.48001 8.17342 7.05107 5.96554 8.01704C4.8616 8.50003 3.94238 9.08045 3.26835 9.77767C2.59433 10.4749 2.16023 11.3218 2.16023 12.24C2.16023 13.1582 2.59433 14.0051 3.26835 14.7024C3.94238 15.3996 4.8616 15.98 5.96554 16.463C8.17342 17.4289 11.1338 18 14.4002 18C20.9602 18 25.7241 16.9058 28.8593 15.7992C30.4514 15.2373 31.6193 14.6708 32.4002 14.2411V24.8006C32.1838 24.9513 31.4325 25.3255 30.2402 25.8722V20.88C30.2416 20.7846 30.224 20.6899 30.1884 20.6013C30.1528 20.5128 30.1 20.4322 30.033 20.3643C29.966 20.2963 29.8862 20.2424 29.7981 20.2055C29.7101 20.1687 29.6156 20.1498 29.5202 20.1498C29.4248 20.1498 29.3303 20.1687 29.2423 20.2055C29.1543 20.2424 29.0745 20.2963 29.0075 20.3643C28.9405 20.4322 28.8877 20.5128 28.8521 20.6013C28.8165 20.6899 28.7989 20.7846 28.8002 20.88V26.498C28.6226 26.5648 28.5724 26.6133 28.3812 26.6808C27.9261 26.8414 27.1709 26.9678 26.6402 27.1252V24.48C26.6416 24.3846 26.624 24.2899 26.5884 24.2013C26.5528 24.1128 26.5 24.0322 26.433 23.9643C26.366 23.8963 26.2862 23.8424 26.1981 23.8055C26.1101 23.7687 26.0156 23.7498 25.9202 23.7498C25.8248 23.7498 25.7303 23.7687 25.6423 23.8055C25.5543 23.8424 25.4745 23.8963 25.4075 23.9643C25.3405 24.0322 25.2877 24.1128 25.2521 24.2013C25.2165 24.2899 25.1989 24.3846 25.2002 24.48V27.4922C24.2473 27.731 23.475 27.9927 22.3202 28.1813V23.76C22.3216 23.6646 22.304 23.5699 22.2684 23.4813C22.2328 23.3928 22.18 23.3122 22.113 23.2443C22.046 23.1763 21.9662 23.1224 21.8781 23.0855C21.7901 23.0487 21.6956 23.0298 21.6002 23.0298C21.5048 23.0298 21.4103 23.0487 21.3223 23.0855C21.2343 23.1224 21.1545 23.1763 21.0875 23.2443C21.0205 23.3122 20.9677 23.3928 20.9321 23.4813C20.8965 23.5699 20.8789 23.6646 20.8802 23.76V28.3627C19.9676 28.4815 19.0271 28.5826 18.0002 28.6524V26.64C18.0016 26.5446 17.984 26.4499 17.9484 26.3613C17.9128 26.2728 17.86 26.1922 17.793 26.1243C17.726 26.0563 17.6462 26.0024 17.5581 25.9655C17.4701 25.9287 17.3756 25.9098 17.2802 25.9098C17.1848 25.9098 17.0903 25.9287 17.0023 25.9655C16.9143 26.0024 16.8345 26.0563 16.7675 26.1243C16.7005 26.1922 16.6477 26.2728 16.6121 26.3613C16.5765 26.4499 16.5589 26.5446 16.5602 26.64V28.7114C15.8386 28.7407 15.1743 28.8 14.4002 28.8C14.1442 28.8 13.9319 28.7442 13.6802 28.7367V24.48C13.6816 24.3846 13.664 24.2899 13.6284 24.2013C13.5928 24.1128 13.54 24.0322 13.473 23.9643C13.406 23.8963 13.3262 23.8424 13.2381 23.8055C13.1501 23.7687 13.0556 23.7498 12.9602 23.7498C12.8648 23.7498 12.7703 23.7687 12.6823 23.8055C12.5943 23.8424 12.5145 23.8963 12.4475 23.9643C12.3805 24.0322 12.3277 24.1128 12.2921 24.2013C12.2565 24.2899 12.2389 24.3846 12.2402 24.48V28.6088C10.0477 28.4126 8.01842 28.0292 6.54351 27.3839C5.56278 26.9548 4.79517 26.4498 4.30335 25.9411C3.81154 25.4324 3.60023 24.9536 3.60023 24.48V17.28C3.60158 17.1846 3.58395 17.0899 3.54837 17.0013C3.5128 16.9128 3.45998 16.8322 3.39298 16.7643C3.32599 16.6963 3.24616 16.6424 3.15814 16.6055C3.07011 16.5687 2.97565 16.5498 2.88023 16.5498C2.78481 16.5498 2.69034 16.5687 2.60232 16.6055C2.51429 16.6424 2.43447 16.6963 2.36747 16.7643C2.30048 16.8322 2.24766 16.9128 2.21208 17.0013C2.17651 17.0899 2.15888 17.1846 2.16023 17.28V24.48C2.16023 25.3982 2.59433 26.2451 3.26835 26.9424C3.94238 27.6396 4.8616 28.22 5.96554 28.703C8.17342 29.6689 11.1338 30.24 14.4002 30.24C20.9602 30.24 25.7241 29.1458 28.8593 28.0392C31.9945 26.9327 33.5519 25.7766 33.5519 25.7766C33.6415 25.7095 33.7142 25.6224 33.7642 25.5224C33.8142 25.4223 33.8403 25.3119 33.8402 25.2V12.96C33.8403 12.8263 33.8031 12.6952 33.7328 12.5815C33.6626 12.4677 33.5621 12.3758 33.4425 12.3159C33.3229 12.2561 33.1891 12.2307 33.0559 12.2426C32.9227 12.2545 32.7955 12.3033 32.6885 12.3834C32.6885 12.3834 31.366 13.3873 28.3812 14.4408C25.3964 15.4942 20.8002 16.56 14.4002 16.56C11.304 16.56 8.50497 16.0021 6.54351 15.1439C5.56278 14.7148 4.79517 14.2098 4.30335 13.7011C3.81154 13.1924 3.60023 12.7136 3.60023 12.24C3.60023 11.7665 3.81154 11.2877 4.30335 10.7789C4.79517 10.2702 5.56278 9.76518 6.54351 9.3361C8.50497 8.47795 11.304 7.92001 14.4002 7.92001C15.7802 7.92001 17.7138 8.10393 19.2124 8.60345C19.9617 8.85321 20.5962 9.18301 21.0026 9.55407C21.409 9.92514 21.6002 10.29 21.6002 10.8C21.6002 11.31 21.409 11.6749 21.0026 12.0459C20.5962 12.417 19.9617 12.7468 19.2124 12.9966C17.7138 13.4961 15.7802 13.68 14.4002 13.68C13.0918 13.68 11.9096 13.4449 11.1194 13.1063C10.7244 12.9369 10.4316 12.7398 10.2687 12.5747C10.1058 12.4096 10.0802 12.3113 10.0802 12.24C10.0802 12.1687 10.1058 12.0704 10.2687 11.9053C10.4316 11.7402 10.7244 11.5431 11.1194 11.3738C11.9096 11.0351 13.0918 10.8 14.4002 10.8C15.3817 10.8 16.2908 10.9299 17.0187 11.1403C17.1095 11.1665 17.2047 11.1746 17.2986 11.1641C17.3926 11.1535 17.4836 11.1246 17.5664 11.0789C17.6492 11.0332 17.7221 10.9716 17.7811 10.8977C17.8401 10.8238 17.884 10.739 17.9102 10.6481C17.9365 10.5573 17.9445 10.4621 17.934 10.3682C17.9234 10.2742 17.8945 10.1832 17.8488 10.1004C17.8031 10.0176 17.7415 9.94465 17.6676 9.88566C17.5937 9.82666 17.5089 9.7828 17.418 9.75657C16.5374 9.50193 15.5068 9.36001 14.4002 9.36001C12.9251 9.36001 11.5867 9.60738 10.5527 10.0505C10.0358 10.272 9.59067 10.5411 9.24351 10.8928C8.89635 11.2446 8.64023 11.7148 8.64023 12.24C8.64023 12.7652 8.89635 13.2354 9.24351 13.5872C9.59067 13.939 10.0358 14.208 10.5527 14.4295C11.5867 14.8726 12.9251 15.12 14.4002 15.12C15.9002 15.12 17.9266 14.9439 19.668 14.3634C20.5388 14.0732 21.3443 13.683 21.9729 13.1091C22.6015 12.5351 23.0402 11.73 23.0402 10.8C23.0402 9.87001 22.6015 9.06488 21.9729 8.49095C21.3443 7.91702 20.5388 7.52681 19.668 7.23657C17.9266 6.6561 15.9002 6.48001 14.4002 6.48001Z" fill="white"/>
</g>
</svg>
