<svg width="36" height="36" viewBox="0 0 36 36" fill="none" xmlns="http://www.w3.org/2000/svg">
<g id="icons8-&#208;&#186;&#208;&#190;&#208;&#188;&#208;&#189;&#208;&#176;&#209;&#130;&#208;&#176; 1">
<path id="Vector" d="M17.9989 2.99109C17.7262 2.99109 17.4534 3.04268 17.1959 3.14578L3.33172 8.69203C3.19816 8.74541 3.08365 8.83757 3.00295 8.95662C2.92224 9.07567 2.87904 9.21617 2.87891 9.36V26.64C2.87902 26.7576 2.90794 26.8733 2.96312 26.9772C3.01829 27.081 3.09806 27.1698 3.19545 27.2356C3.29283 27.3015 3.40487 27.3426 3.52178 27.3552C3.63868 27.3678 3.7569 27.3516 3.86609 27.308L17.9989 21.6548L22.7717 23.5645C22.8809 23.6081 22.9991 23.6244 23.116 23.6118C23.2329 23.5991 23.345 23.5581 23.4424 23.4922C23.5398 23.4263 23.6195 23.3376 23.6747 23.2337C23.7299 23.1299 23.7588 23.0141 23.7589 22.8966V14.7277L26.6389 15.8316V24.6234C26.6388 24.7675 26.6818 24.9083 26.7626 25.0276C26.8433 25.147 26.9579 25.2393 27.0917 25.2928L30.4597 26.64L18.2661 31.5183C18.0942 31.5871 17.9037 31.5871 17.7317 31.5183L7.55188 27.4458C7.46349 27.4069 7.3682 27.3862 7.27166 27.385C7.17512 27.3837 7.07931 27.4018 6.98993 27.4383C6.90054 27.4748 6.81941 27.5289 6.75135 27.5974C6.68329 27.6659 6.6297 27.7473 6.59376 27.8369C6.55783 27.9265 6.54028 28.0225 6.54216 28.119C6.54404 28.2155 6.56531 28.3107 6.60471 28.3988C6.64411 28.487 6.70083 28.5663 6.7715 28.6321C6.84218 28.6978 6.92536 28.7487 7.01609 28.7817L17.1959 32.8542C17.7109 33.0604 18.2869 33.0604 18.8019 32.8542L32.5817 27.3417C32.7563 27.2982 32.9082 27.1909 33.0076 27.041C33.107 26.8911 33.1467 26.7094 33.1189 26.5317V9.36C33.1188 9.21617 33.0756 9.07567 32.9949 8.95662C32.9142 8.83757 32.7997 8.74541 32.6661 8.69203L18.8019 3.14578C18.5444 3.04268 18.2717 2.99109 17.9989 2.99109ZM17.9989 4.42968C18.0895 4.42968 18.1801 4.44729 18.2661 4.48171L31.6789 9.84796V25.5769L28.0789 24.1369V15.3366C28.0788 15.1909 28.0346 15.0486 27.952 14.9286C27.8694 14.8086 27.7523 14.7165 27.6163 14.6644L23.2963 13.0078C23.1872 12.9661 23.0697 12.9515 22.9538 12.9653C22.8379 12.9791 22.7271 13.0209 22.6309 13.0871C22.5348 13.1532 22.4561 13.2417 22.4018 13.345C22.3474 13.4483 22.319 13.5633 22.3189 13.68V21.832L18.7189 20.3934V7.2C18.7202 7.10367 18.7022 7.00805 18.6659 6.91882C18.6296 6.82958 18.5758 6.74853 18.5076 6.68048C18.4394 6.61242 18.3582 6.55874 18.2689 6.52261C18.1796 6.48649 18.084 6.46865 17.9877 6.47015C17.7969 6.47313 17.6152 6.55166 17.4823 6.68849C17.3495 6.82532 17.2763 7.00928 17.2789 7.2V20.3934L4.31891 25.5769V9.84796L17.7317 4.48171C17.8177 4.44729 17.9083 4.42968 17.9989 4.42968ZM12.9378 9.36C12.8569 9.36255 12.7771 9.37871 12.7016 9.40781L8.38156 11.0644C8.2455 11.1165 8.12843 11.2086 8.04583 11.3286C7.96322 11.4486 7.91897 11.5909 7.91891 11.7366V19.5834C7.9188 19.7011 7.94754 19.8171 8.00262 19.9211C8.0577 20.0251 8.13744 20.114 8.23486 20.1801C8.33228 20.2462 8.44441 20.2873 8.56143 20.3C8.67845 20.3127 8.79679 20.2965 8.90609 20.2528L13.2261 18.5245C13.3596 18.4711 13.4742 18.379 13.5549 18.2599C13.6356 18.1409 13.6788 18.0004 13.6789 17.8566V10.08C13.6789 9.98364 13.6596 9.88827 13.6221 9.79951C13.5846 9.71076 13.5297 9.63043 13.4606 9.5633C13.3915 9.49616 13.3096 9.44357 13.2198 9.40865C13.13 9.37373 13.0341 9.35718 12.9378 9.36ZM12.2389 11.1277V17.3686L9.35891 18.5203V12.2316L12.2389 11.1277Z" fill="white"/>
</g>
</svg>
