<svg width="36" height="36" viewBox="0 0 36 36" fill="none" xmlns="http://www.w3.org/2000/svg">
<g id="icons8-&#208;&#177;&#209;&#131;&#208;&#188;&#208;&#176;&#208;&#182;&#208;&#189;&#208;&#184;&#208;&#186; 2">
<path id="Vector" d="M28.0847 4.32C28.0678 4.31987 28.0509 4.32034 28.0341 4.3214L7.65609 5.55609C5.38239 5.69389 3.59766 7.59036 3.59766 9.86765V29.52C3.59766 30.7044 4.57328 31.68 5.75766 31.68H30.2377C31.422 31.68 32.3977 30.7044 32.3977 29.52V17.4009C32.4105 17.3232 32.4105 17.2438 32.3977 17.1661V11.52C32.3977 10.3356 31.422 9.36 30.2377 9.36H7.91766C7.82225 9.35865 7.72752 9.37627 7.63899 9.41185C7.55045 9.44743 7.46987 9.50025 7.40192 9.56724C7.33397 9.63423 7.28002 9.71406 7.24319 9.80209C7.20637 9.89011 7.1874 9.98458 7.1874 10.08C7.1874 10.1754 7.20637 10.2699 7.24319 10.3579C7.28002 10.4459 7.33397 10.5258 7.40192 10.5928C7.46987 10.6597 7.55045 10.7126 7.63899 10.7481C7.72752 10.7837 7.82225 10.8013 7.91766 10.8H30.2377C30.6445 10.8 30.9577 11.1132 30.9577 11.52V16.56H27.3577C24.9805 16.56 23.0377 18.5028 23.0377 20.88C23.0377 23.2572 24.9805 25.2 27.3577 25.2H28.7977C28.8931 25.2013 28.9878 25.1837 29.0763 25.1481C29.1649 25.1126 29.2454 25.0597 29.3134 24.9928C29.3813 24.9258 29.4353 24.8459 29.4721 24.7579C29.5089 24.6699 29.5279 24.5754 29.5279 24.48C29.5279 24.3846 29.5089 24.2901 29.4721 24.2021C29.4353 24.1141 29.3813 24.0342 29.3134 23.9672C29.2454 23.9003 29.1649 23.8474 29.0763 23.8119C28.9878 23.7763 28.8931 23.7586 28.7977 23.76H27.3577C25.759 23.76 24.4777 22.4787 24.4777 20.88C24.4777 19.2813 25.759 18 27.3577 18H30.9577V29.52C30.9577 29.9268 30.6445 30.24 30.2377 30.24H5.75766C5.35083 30.24 5.03766 29.9268 5.03766 29.52V9.86765C5.03766 8.33759 6.21538 7.08588 7.74328 6.99328L28.1213 5.75859C28.307 5.74664 28.4809 5.66323 28.6065 5.52584C28.7321 5.38846 28.7996 5.20778 28.7949 5.02171C28.7901 4.83563 28.7135 4.65862 28.5811 4.52779C28.4487 4.39697 28.2708 4.32249 28.0847 4.32Z" fill="white"/>
</g>
</svg>
