<svg width="36" height="36" viewBox="0 0 36 36" fill="none" xmlns="http://www.w3.org/2000/svg">
<g id="icons8-&#208;&#189;&#208;&#176;&#208;&#186;&#208;&#187;&#208;&#176;&#208;&#180;&#208;&#186;&#208;&#176;-&#208;&#180;&#208;&#178;&#208;&#181;&#209;&#128;&#208;&#189;&#208;&#190;&#208;&#179;&#208;&#190;-&#208;&#183;&#208;&#176;&#208;&#188;&#208;&#186;&#208;&#176; 1">
<path id="Vector" d="M7.92031 3.6C5.94066 3.6 4.32031 5.22035 4.32031 7.2V17.9817C4.32031 23.5737 7.74524 27.5626 11.0844 30.098C14.4235 32.6333 17.7627 33.7992 17.7627 33.7992C17.9165 33.853 18.0841 33.853 18.238 33.7992C18.238 33.7992 21.5771 32.6333 24.9163 30.098C28.2554 27.5626 31.6803 23.5737 31.6803 17.9817V7.2C31.6803 5.22035 30.06 3.6 28.0803 3.6H18.0003H7.92031ZM7.92031 5.04H18.0003H28.0803C29.2816 5.04 30.2403 5.99869 30.2403 7.2V17.9817C30.2403 22.9867 27.1852 26.5657 24.0444 28.9505C21.0935 31.191 18.3467 32.2119 18.0003 32.3381C17.654 32.2119 14.9071 31.191 11.9563 28.9505C8.81539 26.5657 5.76031 22.9867 5.76031 17.9817V7.2C5.76031 5.99869 6.719 5.04 7.92031 5.04ZM17.9567 10.0814C17.771 10.0828 17.5837 10.0943 17.3942 10.1166C15.1797 10.3768 13.3656 12.1111 13.0222 14.317C12.7098 16.3232 13.6317 18.1393 15.1203 19.1953V21.6C15.1203 23.1821 16.4182 24.48 18.0003 24.48C19.5824 24.48 20.8803 23.1821 20.8803 21.6V19.125C22.1453 18.2095 23.0403 16.7967 23.0403 15.12C23.0403 12.3306 20.7423 10.061 17.9567 10.0814ZM17.9708 11.52C19.9902 11.5002 21.6003 13.1128 21.6003 15.12C21.6003 16.4572 20.8751 17.6115 19.7989 18.2348C19.6898 18.2982 19.5993 18.3891 19.5363 18.4984C19.4734 18.6077 19.4403 18.7317 19.4403 18.8578V21.6C19.4403 22.404 18.8043 23.04 18.0003 23.04C17.1963 23.04 16.5603 22.404 16.5603 21.6V18.8578C16.5603 18.7317 16.5272 18.6077 16.4643 18.4984C16.4014 18.3891 16.3108 18.2982 16.2017 18.2348C14.9731 17.5232 14.1978 16.1286 14.4453 14.5392C14.6865 12.9896 16.0018 11.73 17.5616 11.5467C17.6995 11.5305 17.8362 11.5213 17.9708 11.52Z" fill="white"/>
</g>
</svg>
