<svg width="36" height="36" viewBox="0 0 36 36" fill="none" xmlns="http://www.w3.org/2000/svg">
<g id="icons8-&#208;&#186;&#209;&#131;&#208;&#178;&#208;&#176;&#208;&#187;&#208;&#180;&#208;&#176; 1">
<path id="Vector" d="M21.5985 2.04047C21.0443 2.04047 20.49 2.25035 20.0713 2.66906L17.0662 5.67422C16.2298 6.51061 16.228 7.88751 17.062 8.72578C17.0624 8.72578 17.0629 8.72578 17.0634 8.72578L27.2306 18.9295C28.0648 19.767 29.441 19.772 30.2807 18.9408C30.2812 18.9403 30.2817 18.9398 30.2821 18.9394L33.3154 15.9272C34.1582 15.0908 34.1633 13.7056 33.3224 12.8658L31.5042 11.0489C31.4378 10.9798 31.3583 10.9246 31.2704 10.8866C31.1825 10.8486 31.0879 10.8286 30.9921 10.8276C30.8963 10.8266 30.8013 10.8448 30.7126 10.881C30.6239 10.9172 30.5433 10.9707 30.4756 11.0384C30.4078 11.1062 30.3543 11.1868 30.3181 11.2754C30.2819 11.3641 30.2637 11.4591 30.2647 11.5549C30.2657 11.6507 30.2858 11.7454 30.3238 11.8333C30.3618 11.9212 30.4169 12.0007 30.486 12.067L32.3043 13.8839C32.3043 13.8844 32.3043 13.8848 32.3043 13.8853C32.5921 14.1727 32.591 14.6179 32.3015 14.9048C32.3015 14.9053 32.3015 14.9058 32.3015 14.9062L29.2668 17.9184C28.979 18.2018 28.5371 18.2009 28.2515 17.9142L18.0829 7.71047C17.7966 7.42265 17.7975 6.97915 18.0843 6.69234L21.0895 3.68719C21.3767 3.39996 21.8204 3.39996 22.1076 3.68719L25.7695 7.34906C25.9045 7.48404 26.0876 7.55986 26.2785 7.55986C26.4695 7.55986 26.6526 7.48404 26.7876 7.34906L27.7185 6.41812L29.5804 8.28L28.6495 9.21094C28.5804 9.27728 28.5252 9.35675 28.4872 9.44468C28.4492 9.53261 28.4291 9.62724 28.4281 9.72303C28.4272 9.81882 28.4453 9.91384 28.4815 10.0025C28.5177 10.0912 28.5713 10.1718 28.639 10.2395C28.7067 10.3073 28.7873 10.3608 28.876 10.397C28.9647 10.4332 29.0597 10.4514 29.1555 10.4504C29.2513 10.4494 29.3459 10.4293 29.4339 10.3913C29.5218 10.3533 29.6012 10.2982 29.6676 10.2291L30.5985 9.29812C31.1552 8.74144 31.1552 7.81855 30.5985 7.26187L28.7367 5.4C28.18 4.84332 27.2571 4.84332 26.7004 5.4L26.2785 5.82187L23.1257 2.66906C22.707 2.25035 22.1528 2.04047 21.5985 2.04047ZM19.4245 12.953C19.2374 12.9585 19.0599 13.0367 18.9295 13.1709L2.87853 29.2219C2.32227 29.7781 2.32121 30.7022 2.87853 31.2581L4.7404 33.12C5.29667 33.6763 6.22076 33.6773 6.77665 33.12L22.8276 17.0691C22.8967 17.0027 22.9519 16.9233 22.9899 16.8353C23.0279 16.7474 23.048 16.6528 23.0489 16.557C23.0499 16.4612 23.0318 16.3662 22.9955 16.2775C22.9593 16.1888 22.9058 16.1082 22.8381 16.0405C22.7703 15.9727 22.6898 15.9192 22.6011 15.883C22.5124 15.8468 22.4174 15.8286 22.3216 15.8296C22.2258 15.8306 22.1311 15.8507 22.0432 15.8887C21.9553 15.9267 21.8758 15.9818 21.8095 16.0509L5.75853 32.1019H5.75712L3.89665 30.24V30.2386L19.9476 14.1891C20.0516 14.0879 20.1227 13.9577 20.1515 13.8155C20.1802 13.6733 20.1654 13.5257 20.1088 13.3921C20.0523 13.2585 19.9567 13.145 19.8346 13.0667C19.7124 12.9883 19.5695 12.9487 19.4245 12.953Z" fill="white"/>
</g>
</svg>
