<svg width="36" height="36" viewBox="0 0 36 36" fill="none" xmlns="http://www.w3.org/2000/svg">
<g id="icons8-&#209;&#129;&#209;&#130;&#208;&#190;&#208;&#187; 1" clip-path="url(#clip0_2784_7480)">
<path id="Vector" d="M4.30604 10.7902C4.27163 10.791 4.23732 10.7943 4.20338 10.8H1.43729C1.34188 10.7986 1.24715 10.8163 1.15861 10.8519C1.07008 10.8874 0.989495 10.9403 0.921548 11.0072C0.853602 11.0742 0.799648 11.1541 0.762822 11.2421C0.725995 11.3301 0.707031 11.4246 0.707031 11.52C0.707031 11.6154 0.725995 11.7099 0.762822 11.7979C0.799648 11.8859 0.853602 11.9658 0.921548 12.0328C0.989495 12.0997 1.07008 12.1526 1.15861 12.1881C1.24715 12.2237 1.34188 12.2413 1.43729 12.24H3.59729V28.8C3.59729 29.587 4.25028 30.24 5.03729 30.24H7.19729C7.98429 30.24 8.63729 29.587 8.63729 28.8V14.4C8.63864 14.3046 8.62101 14.2099 8.58543 14.1213C8.54985 14.0328 8.49703 13.9522 8.43004 13.8843C8.36305 13.8163 8.28322 13.7624 8.1952 13.7255C8.10717 13.6887 8.0127 13.6697 7.91729 13.6697C7.82187 13.6697 7.7274 13.6887 7.63938 13.7255C7.55135 13.7624 7.47152 13.8163 7.40453 13.8843C7.33754 13.9522 7.28472 14.0328 7.24914 14.1213C7.21356 14.2099 7.19594 14.3046 7.19729 14.4V28.8H5.03729V12.24H30.9573V28.8H28.7973V15.9609C28.8101 15.8832 28.8101 15.8038 28.7973 15.7261V14.4C28.7986 14.3046 28.781 14.2099 28.7454 14.1213C28.7099 14.0328 28.657 13.9522 28.59 13.8843C28.5231 13.8163 28.4432 13.7624 28.3552 13.7255C28.2672 13.6887 28.1727 13.6697 28.0773 13.6697C27.9819 13.6697 27.8874 13.6887 27.7994 13.7255C27.7114 13.7624 27.6315 13.8163 27.5645 13.8843C27.4975 13.9522 27.4447 14.0328 27.4091 14.1213C27.3736 14.2099 27.3559 14.3046 27.3573 14.4V15.12H10.7973C10.7019 15.1186 10.6072 15.1363 10.5186 15.1719C10.4301 15.2074 10.3495 15.2603 10.2815 15.3272C10.2136 15.3942 10.1596 15.4741 10.1228 15.5621C10.086 15.6501 10.067 15.7446 10.067 15.84C10.067 15.9354 10.086 16.0299 10.1228 16.1179C10.1596 16.2059 10.2136 16.2858 10.2815 16.3528C10.3495 16.4197 10.4301 16.4726 10.5186 16.5081C10.6072 16.5437 10.7019 16.5613 10.7973 16.56H27.3573V28.8C27.3573 29.587 28.0103 30.24 28.7973 30.24H30.9573C31.7443 30.24 32.3973 29.587 32.3973 28.8V12.24H34.5573C34.6527 12.2413 34.7474 12.2237 34.836 12.1881C34.9245 12.1526 35.0051 12.0997 35.073 12.0328C35.141 11.9658 35.1949 11.8859 35.2318 11.7979C35.2686 11.7099 35.2875 11.6154 35.2875 11.52C35.2875 11.4246 35.2686 11.3301 35.2318 11.2421C35.1949 11.1541 35.141 11.0742 35.073 11.0072C35.0051 10.9403 34.9245 10.8874 34.836 10.8519C34.7474 10.8163 34.6527 10.7986 34.5573 10.8H31.7982C31.7205 10.7871 31.6411 10.7871 31.5634 10.8H4.43822C4.39456 10.7927 4.35031 10.7894 4.30604 10.7902Z" fill="white"/>
</g>
<defs>
<clipPath id="clip0_2784_7480">
<rect width="34.56" height="34.56" fill="white" transform="translate(0.71875 0.720001)"/>
</clipPath>
</defs>
</svg>
