<svg width="36" height="36" viewBox="0 0 36 36" fill="none" xmlns="http://www.w3.org/2000/svg">
<g id="icons8-&#209;&#128;&#208;&#190;&#208;&#183;&#208;&#181;&#209;&#130;&#208;&#186;&#208;&#176; 1">
<path id="Vector" d="M7.92031 4.32001C5.94164 4.32001 4.32031 5.94133 4.32031 7.92001V28.08C4.32031 30.0587 5.94164 31.68 7.92031 31.68H28.0803C30.059 31.68 31.6803 30.0587 31.6803 28.08V7.92001C31.6803 5.94133 30.059 4.32001 28.0803 4.32001H7.92031ZM7.92031 5.76001H28.0803C29.2783 5.76001 30.2403 6.72204 30.2403 7.92001V28.08C30.2403 29.278 29.2783 30.24 28.0803 30.24H7.92031C6.72235 30.24 5.76031 29.278 5.76031 28.08V7.92001C5.76031 6.72204 6.72235 5.76001 7.92031 5.76001ZM18.0003 8.64001C12.8395 8.64001 8.64031 12.8392 8.64031 18C8.64031 23.1609 12.8395 27.36 18.0003 27.36C23.1612 27.36 27.3603 23.1609 27.3603 18C27.3603 12.8392 23.1612 8.64001 18.0003 8.64001ZM18.0003 10.08C22.3829 10.08 25.9203 13.6174 25.9203 18C25.9203 22.3826 22.3829 25.92 18.0003 25.92C13.6177 25.92 10.0803 22.3826 10.0803 18C10.0803 13.6174 13.6177 10.08 18.0003 10.08ZM14.4003 16.56C14.0184 16.56 13.6521 16.7117 13.3821 16.9818C13.112 17.2518 12.9603 17.6181 12.9603 18C12.9603 18.3819 13.112 18.7482 13.3821 19.0182C13.6521 19.2883 14.0184 19.44 14.4003 19.44C14.7822 19.44 15.1485 19.2883 15.4185 19.0182C15.6886 18.7482 15.8403 18.3819 15.8403 18C15.8403 17.6181 15.6886 17.2518 15.4185 16.9818C15.1485 16.7117 14.7822 16.56 14.4003 16.56ZM21.6003 16.56C21.2184 16.56 20.8521 16.7117 20.5821 16.9818C20.312 17.2518 20.1603 17.6181 20.1603 18C20.1603 18.3819 20.312 18.7482 20.5821 19.0182C20.8521 19.2883 21.2184 19.44 21.6003 19.44C21.9822 19.44 22.3485 19.2883 22.6185 19.0182C22.8886 18.7482 23.0403 18.3819 23.0403 18C23.0403 17.6181 22.8886 17.2518 22.6185 16.9818C22.3485 16.7117 21.9822 16.56 21.6003 16.56Z" fill="white"/>
</g>
</svg>
