<svg width="36" height="36" viewBox="0 0 36 36" fill="none" xmlns="http://www.w3.org/2000/svg">
<g id="icons8-&#208;&#178;&#208;&#176;&#208;&#187;&#208;&#184;&#208;&#186; 1">
<path id="Vector" d="M6.48031 2.87994C5.29593 2.87994 4.32031 3.85557 4.32031 5.03994V10.0799C4.32031 11.2643 5.29593 12.2399 6.48031 12.2399H27.3603C28.5447 12.2399 29.5203 11.2643 29.5203 10.0799V8.63994H30.2403C31.0443 8.63994 31.6803 9.27594 31.6803 10.0799V12.2765C31.6803 13.6136 30.7682 14.7683 29.4669 15.0792L18.7738 17.6245C17.4799 17.9319 16.5603 19.096 16.5603 20.4257V22.3199H15.8403C15.0533 22.3199 14.4003 22.9729 14.4003 23.7599V32.3999C14.4003 33.187 15.0533 33.8399 15.8403 33.8399H18.7203C19.5073 33.8399 20.1603 33.187 20.1603 32.3999V23.7599C20.1603 22.9729 19.5073 22.3199 18.7203 22.3199H18.0003V20.4257C18.0003 19.7553 18.4554 19.1813 19.107 19.0265L29.8002 16.4798H29.8016C31.7431 16.016 33.1203 14.273 33.1203 12.2765V10.0799C33.1203 8.49786 31.8224 7.19994 30.2403 7.19994H28.8003C28.6094 7.19996 28.4262 7.27583 28.2912 7.41085C28.1562 7.54587 28.0803 7.72899 28.0803 7.91994V10.0799C28.0803 10.4868 27.7671 10.7999 27.3603 10.7999H6.48031C6.07349 10.7999 5.76031 10.4868 5.76031 10.0799V5.03994C5.76031 4.63312 6.07349 4.31994 6.48031 4.31994H27.3603C27.7671 4.31994 28.0803 4.63312 28.0803 5.03994C28.079 5.13535 28.0966 5.23008 28.1322 5.31861C28.1677 5.40715 28.2206 5.48774 28.2876 5.55568C28.3546 5.62363 28.4344 5.67758 28.5224 5.71441C28.6104 5.75123 28.7049 5.7702 28.8003 5.7702C28.8957 5.7702 28.9902 5.75123 29.0782 5.71441C29.1662 5.67758 29.2461 5.62363 29.3131 5.55568C29.3801 5.48774 29.4329 5.40715 29.4685 5.31861C29.504 5.23008 29.5217 5.13535 29.5203 5.03994C29.5203 3.85557 28.5447 2.87994 27.3603 2.87994H6.48031ZM15.8403 23.7599H17.1594C17.2371 23.7728 17.3165 23.7728 17.3942 23.7599H18.7203V32.3999H15.8403V23.7599Z" fill="white"/>
</g>
</svg>
