<svg width="36" height="36" viewBox="0 0 36 36" fill="none" xmlns="http://www.w3.org/2000/svg">
<g id="icons8-&#208;&#178;&#208;&#190;&#208;&#180;&#208;&#190;&#208;&#191;&#209;&#128;&#208;&#190;&#208;&#178;&#208;&#190;&#208;&#180; 1">
<path id="Vector" d="M14.3864 2.15014C14.352 2.15096 14.3177 2.15425 14.2838 2.15998H9.35766C9.26225 2.15863 9.16752 2.17626 9.07899 2.21184C8.99045 2.24742 8.90987 2.30024 8.84192 2.36723C8.77397 2.43422 8.72002 2.51405 8.68319 2.60207C8.64637 2.6901 8.6274 2.78456 8.6274 2.87998C8.6274 2.9754 8.64637 3.06987 8.68319 3.15789C8.72002 3.24592 8.77397 3.32575 8.84192 3.39274C8.90987 3.45973 8.99045 3.51255 9.07899 3.54813C9.16752 3.58371 9.26225 3.60133 9.35766 3.59998H13.6777V7.37998C12.2058 7.57691 10.9236 8.26799 10.0214 9.35998H5.03766C4.25065 9.35998 3.59766 10.013 3.59766 10.8V15.12C3.59766 15.907 4.25065 16.56 5.03766 16.56H10.0214C11.0775 17.8382 12.6135 18.72 14.3977 18.72C16.1818 18.72 17.7178 17.8382 18.7739 16.56H21.5977C22.7956 16.56 23.7577 17.522 23.7577 18.72V20.16C23.7563 20.2554 23.7739 20.3501 23.8095 20.4387C23.8451 20.5272 23.8979 20.6078 23.9649 20.6757C24.0319 20.7437 24.1117 20.7976 24.1997 20.8344C24.2878 20.8713 24.3822 20.8902 24.4777 20.8902C24.5731 20.8902 24.6675 20.8713 24.7556 20.8344C24.8436 20.7976 24.9234 20.7437 24.9904 20.6757C25.0574 20.6078 25.1102 20.5272 25.1458 20.4387C25.1814 20.3501 25.199 20.2554 25.1977 20.16V18.72C25.1977 16.7413 23.5763 15.12 21.5977 15.12H18.5306C18.4147 15.12 18.3004 15.1479 18.1976 15.2016C18.0947 15.2552 18.0064 15.3329 17.94 15.428C17.1584 16.5475 15.87 17.28 14.3977 17.28C12.9253 17.28 11.6369 16.5475 10.8553 15.428C10.7889 15.3329 10.7006 15.2552 10.5978 15.2016C10.4949 15.1479 10.3807 15.12 10.2647 15.12H5.03766V10.8H10.2647C10.3807 10.8 10.4949 10.772 10.5978 10.7184C10.7006 10.6648 10.7889 10.5871 10.8553 10.492C11.6369 9.37249 12.9253 8.63998 14.3977 8.63998C14.5886 8.63996 14.7717 8.5641 14.9068 8.42908C15.0418 8.29406 15.1176 8.11093 15.1177 7.91998V3.59998H19.4377C19.5331 3.60133 19.6278 3.58371 19.7163 3.54813C19.8049 3.51255 19.8854 3.45973 19.9534 3.39274C20.0213 3.32575 20.0753 3.24592 20.1121 3.15789C20.1489 3.06987 20.1679 2.9754 20.1679 2.87998C20.1679 2.78456 20.1489 2.6901 20.1121 2.60207C20.0753 2.51405 20.0213 2.43422 19.9534 2.36723C19.8854 2.30024 19.8049 2.24742 19.7163 2.21184C19.6278 2.17626 19.5331 2.15863 19.4377 2.15998H14.5186C14.4749 2.15264 14.4307 2.14935 14.3864 2.15014ZM16.943 7.91155C16.7877 7.91873 16.6389 7.97596 16.5189 8.07469C16.3988 8.17343 16.3139 8.30835 16.2769 8.45931C16.2399 8.61027 16.2527 8.76916 16.3134 8.91224C16.3742 9.05531 16.4796 9.17489 16.6139 9.25311C17.1375 9.56762 17.5901 9.99127 17.94 10.492C18.0064 10.5871 18.0947 10.6648 18.1976 10.7184C18.3004 10.772 18.4147 10.8 18.5306 10.8H21.5977C25.9714 10.8 29.5177 14.3462 29.5177 18.72V22.32H23.7577C23.6622 22.3186 23.5675 22.3363 23.479 22.3718C23.3904 22.4074 23.3099 22.4602 23.2419 22.5272C23.174 22.5942 23.12 22.674 23.0832 22.7621C23.0464 22.8501 23.0274 22.9446 23.0274 23.04C23.0274 23.1354 23.0464 23.2299 23.0832 23.3179C23.12 23.4059 23.174 23.4857 23.2419 23.5527C23.3099 23.6197 23.3904 23.6726 23.479 23.7081C23.5675 23.7437 23.6622 23.7613 23.7577 23.76H30.1167C30.1945 23.7728 30.2738 23.7728 30.3516 23.76H30.9577C31.0531 23.7613 31.1478 23.7437 31.2363 23.7081C31.3249 23.6726 31.4054 23.6197 31.4734 23.5527C31.5413 23.4857 31.5953 23.4059 31.6321 23.3179C31.6689 23.2299 31.6879 23.1354 31.6879 23.04C31.6879 22.9446 31.6689 22.8501 31.6321 22.7621C31.5953 22.674 31.5413 22.5942 31.4734 22.5272C31.4054 22.4602 31.3249 22.4074 31.2363 22.3718C31.1478 22.3363 31.0531 22.3186 30.9577 22.32V18.72C30.9577 13.5653 26.7524 9.35998 21.5977 9.35998H18.7922C18.3736 8.85061 17.9236 8.36 17.355 8.01842C17.2316 7.94209 17.0879 7.90483 16.943 7.91155ZM27.3464 26.64C27.1594 26.643 26.9808 26.7186 26.8486 26.8509C26.8486 26.8509 26.2596 27.4392 25.6786 28.3106C25.0976 29.1821 24.4777 30.36 24.4777 31.68C24.4777 33.2621 25.7756 34.56 27.3577 34.56C28.9397 34.56 30.2377 33.2621 30.2377 31.68C30.2377 30.36 29.6177 29.1821 29.0367 28.3106C28.4558 27.4392 27.8667 26.8509 27.8667 26.8509C27.7985 26.7827 27.7173 26.7289 27.628 26.6927C27.5386 26.6564 27.4428 26.6385 27.3464 26.64ZM27.3577 28.5075C27.5409 28.7229 27.5963 28.746 27.8386 29.1094C28.3376 29.8579 28.7977 30.84 28.7977 31.68C28.7977 32.484 28.1617 33.12 27.3577 33.12C26.5537 33.12 25.9177 32.484 25.9177 31.68C25.9177 30.84 26.3777 29.8579 26.8767 29.1094C27.119 28.746 27.1744 28.7229 27.3577 28.5075Z" fill="white"/>
</g>
</svg>
