<svg width="36" height="36" viewBox="0 0 36 36" fill="none" xmlns="http://www.w3.org/2000/svg">
<g id="icons8-&#208;&#188;&#208;&#181;&#209;&#130;&#208;&#187;&#208;&#176; 1" clip-path="url(#clip0_2784_7259)">
<path id="Vector" d="M17.2378 0.719971C16.4812 0.719971 15.8449 1.32078 15.7992 2.07419V2.0756L15.1593 12.96H10.8871C9.23784 12.96 7.79403 14.0866 7.39402 15.6867C7.38945 15.7062 7.3857 15.7259 7.38277 15.7458C6.46238 21.3846 5.35487 25.2984 4.48449 27.7917C3.6141 30.285 3.00511 31.3158 3.00511 31.3158C2.94103 31.4251 2.90693 31.5494 2.90626 31.6761C2.90559 31.8028 2.93836 31.9274 3.00127 32.0374C3.06419 32.1474 3.15501 32.2388 3.26457 32.3025C3.37414 32.3662 3.49856 32.3998 3.62527 32.4H8.64558C8.76733 32.3998 8.88705 32.3687 8.99353 32.3097C9.10002 32.2507 9.1898 32.1656 9.25449 32.0625C11.4366 28.5823 12.1135 25.1993 12.2245 24.6234C12.2459 24.5293 12.2481 24.4318 12.2311 24.3367C12.214 24.2417 12.1781 24.1511 12.1253 24.0702C12.0725 23.9894 12.004 23.92 11.9239 23.8661C11.8437 23.8123 11.7536 23.7751 11.6588 23.7568C11.564 23.7385 11.4665 23.7395 11.3721 23.7596C11.2777 23.7798 11.1882 23.8187 11.1092 23.8741C11.0301 23.9295 10.963 24.0002 10.9118 24.0821C10.8606 24.1639 10.8264 24.2553 10.8112 24.3506C10.7129 24.8607 10.0485 27.8521 8.19417 30.96H4.70527C4.96152 30.4584 5.20277 30.1034 5.84433 28.2656C6.74045 25.6986 7.86115 21.7156 8.79183 16.0368C9.03406 15.0679 9.88828 14.4 10.8871 14.4H15.8386C16.0222 14.3999 16.1988 14.3297 16.3324 14.2037C16.466 14.0777 16.5464 13.9055 16.5571 13.7222L17.2364 2.16138V2.15997H17.2378H18.7593L19.44 13.7222C19.4507 13.9055 19.5311 14.0777 19.6647 14.2037C19.7983 14.3297 19.9749 14.3999 20.1586 14.4H25.11C26.1088 14.4 26.963 15.0679 27.2053 16.0368L27.876 18.72H10.7986C10.7031 18.7186 10.6084 18.7362 10.5199 18.7718C10.4313 18.8074 10.3508 18.8602 10.2828 18.9272C10.2149 18.9942 10.1609 19.074 10.1241 19.1621C10.0873 19.2501 10.0683 19.3446 10.0683 19.44C10.0683 19.5354 10.0873 19.6299 10.1241 19.7179C10.1609 19.8059 10.2149 19.8857 10.2828 19.9527C10.3508 20.0197 10.4313 20.0725 10.5199 20.1081C10.6084 20.1437 10.7031 20.1613 10.7986 20.16H28.7985C28.908 20.16 29.016 20.1351 29.1143 20.0872C29.2127 20.0392 29.2988 19.9695 29.3662 19.8833C29.4336 19.7971 29.4804 19.6966 29.5031 19.5896C29.5259 19.4826 29.5239 19.3718 29.4975 19.2656L28.6031 15.6867C28.2031 14.0866 26.7593 12.96 25.11 12.96H20.8378L20.1965 2.0756C20.1521 1.32044 19.5159 0.719971 18.7593 0.719971H17.2378ZM29.4384 21.5943C29.3317 21.5959 29.2267 21.6211 29.1309 21.6682C29.0352 21.7153 28.9511 21.7831 28.8847 21.8666C28.8184 21.9502 28.7714 22.0475 28.7473 22.1514C28.7231 22.2554 28.7224 22.3634 28.7451 22.4676C29.2305 24.8735 29.5161 27.5422 29.3793 30.96H25.3293C25.4834 29.8177 25.7033 27.4084 25.1817 25.0453C25.1629 24.9514 25.1256 24.8622 25.072 24.783C25.0183 24.7037 24.9494 24.6359 24.8693 24.5835C24.7891 24.5312 24.6993 24.4954 24.6052 24.4782C24.511 24.4609 24.4144 24.4626 24.3209 24.4832C24.2274 24.5038 24.1389 24.5428 24.0607 24.5979C23.9825 24.6531 23.916 24.7233 23.8652 24.8044C23.8144 24.8856 23.7803 24.976 23.7649 25.0705C23.7495 25.165 23.7531 25.2616 23.7754 25.3547C24.2464 27.4883 24.0001 30.1192 23.8865 30.96H21.2976C21.445 30.2761 21.5986 29.5755 21.5986 28.08C21.5999 27.9846 21.5823 27.8898 21.5467 27.8013C21.5111 27.7128 21.4583 27.6322 21.3913 27.5642C21.3243 27.4963 21.2445 27.4423 21.1565 27.4055C21.0684 27.3687 20.974 27.3497 20.8785 27.3497C20.7831 27.3497 20.6887 27.3687 20.6006 27.4055C20.5126 27.4423 20.4328 27.4963 20.3658 27.5642C20.2988 27.6322 20.246 27.7128 20.2104 27.8013C20.1748 27.8898 20.1572 27.9846 20.1586 28.08C20.1586 29.6919 20.0055 30.4472 19.8745 30.96H11.5185C11.4231 30.9586 11.3284 30.9762 11.2399 31.0118C11.1513 31.0474 11.0708 31.1002 11.0028 31.1672C10.9349 31.2342 10.8809 31.314 10.8441 31.4021C10.8073 31.4901 10.7883 31.5846 10.7883 31.68C10.7883 31.7754 10.8073 31.8699 10.8441 31.9579C10.8809 32.0459 10.9349 32.1257 11.0028 32.1927C11.0708 32.2597 11.1513 32.3125 11.2399 32.3481C11.3284 32.3837 11.4231 32.4013 11.5185 32.4H30.1035C30.2872 32.3999 30.4638 32.3297 30.5974 32.2037C30.731 32.0777 30.8114 31.9055 30.8221 31.7222C31.0498 27.7999 30.6935 24.8416 30.157 22.1822C30.1258 22.0152 30.0366 21.8646 29.9051 21.757C29.7736 21.6494 29.6083 21.5918 29.4384 21.5943Z" fill="white"/>
</g>
<defs>
<clipPath id="clip0_2784_7259">
<rect width="34.56" height="34.56" fill="white" transform="translate(0.71875 0.719971)"/>
</clipPath>
</defs>
</svg>
