<svg width="254" height="212" viewBox="0 0 254 212" fill="none" xmlns="http://www.w3.org/2000/svg">
<path d="M22.0586 132.477V208.165H250.999V189.817M250.999 121.218V87.8566M250.999 19.2578V3.82825H22.0586V106.622" stroke="#FFEAB4" stroke-width="5.8382"/>
<path d="M22.0586 149.158H63.5515M87.9468 149.158H114.427V129.767V208.582M104.21 99.9501H114.01M248.497 99.9501H114.01M114.01 99.9501V106.205" stroke="#FFEAB4" stroke-width="2.9191"/>
<path d="M24.9744 131.852H0.996094C1.41311 124.276 6.79259 108.999 24.9744 108.499" stroke="#FFEAB4" stroke-width="0.417014"/>
<path d="M24.9756 132.269H0.789062" stroke="#FFEAB4" stroke-width="0.417014"/>
<path d="M63.5535 147.906L63.5535 171.885C71.1292 171.468 86.4058 166.088 86.9062 147.906" stroke="#FFEAB4" stroke-width="0.417014"/>
<path d="M63.1367 147.907L63.1367 172.093" stroke="#FFEAB4" stroke-width="0.417014"/>
<path d="M112.764 106.414L136.742 106.414C136.325 113.99 130.946 129.266 112.764 129.767" stroke="#FFEAB4" stroke-width="0.417014"/>
<path d="M112.763 105.997L136.949 105.997" stroke="#FFEAB4" stroke-width="0.417014"/>
<path d="M251 12V202.5" stroke="#FFEAB4" stroke-width="0.46"/>
</svg>
