<svg width="271" height="228" viewBox="0 0 271 228" fill="none" xmlns="http://www.w3.org/2000/svg">
<path d="M108.748 110.321H82.8438C83.2943 102.137 89.1059 85.633 108.748 85.0924" stroke="#FFEAB4" stroke-width="0.450513"/>
<path d="M108.747 110.772H82.6172" stroke="#FFEAB4" stroke-width="0.450513"/>
<path d="M112.572 80.8131L112.572 54.9086C120.756 55.3591 137.26 61.1707 137.801 80.8131" stroke="#FFEAB4" stroke-width="0.450513"/>
<path d="M112.121 80.8127L112.121 54.6833" stroke="#FFEAB4" stroke-width="0.450513"/>
<path d="M4 144.655V72.6513M4 29.8783V4H34.3061M77.4855 4H112.887M148.021 4H199.514M243.767 4H267.1V27.733M267.1 72.6513V123.469M267.1 166.108V224.301H208.365M181.948 224.301H115.837M30.0149 224.301H4V196.814" stroke="#FFEAB4" stroke-width="6.30718"/>
<path d="M15.6665 94.1088H4V114.913H75.3399M107.121 110.618V114.913H75.3399M75.3399 114.913V94.1088H56.7004M107.121 4.45068V79.2358M107.121 85.3177V79.2358M107.121 79.2358L112.348 79.2358M137.025 79.2358L156.067 79.2358M156.067 79.2358V114.913H137.025M156.067 79.2358V65.2518M156.067 4.45068V65.2518M156.067 65.2518L182.35 65.2518M182.35 94.1088H267.1M214.131 126.992H233.575V224.301" stroke="#FFEAB4" stroke-width="3.15359"/>
<path d="M268.001 224.301V4.45068H4V224.301H268.001Z" stroke="#FFEAB4" stroke-width="1.35154"/>
</svg>
