<svg width="307" height="247" viewBox="0 0 307 247" fill="none" xmlns="http://www.w3.org/2000/svg">
<path d="M4 37.5776V3.50684H31.2124M73.6903 3.50684H102.894H132.097M171.92 3.50684H201.898H231.876M272.805 3.50684H303.336V34.7015M303.336 77.4006V190.675M303.336 230.94V243.551H272.805M231.876 243.551H201.898H168.381H73.6903M31.2124 243.551H4V212.356M57.3186 186.25H4V169.215M4 129.392V110.808V77.4006" stroke="#FFEAB4" stroke-width="6.19469"/>
<path d="M4.44141 111.914H100.902M100.902 85.1437V5.27649M169.043 142.445H100.902V243.993M203.114 173.197V243.993M201.344 109.701L203.114 5.27649M228.556 109.701H300.017M303.999 142.445H245.592H228.556V150.852M303.999 178.285H228.556" stroke="#FFEAB4" stroke-width="3.09735"/>
<path d="M303.556 3.50659H4.44141V242.887H303.556V3.50659Z" stroke="#FFEAB4" stroke-width="1.32743"/>
<path d="M102.677 85.5862H77.2344C77.6769 93.6246 83.3848 109.834 102.677 110.365" stroke="#FFEAB4" stroke-width="0.442478"/>
<path d="M102.675 85.1438H77.0117" stroke="#FFEAB4" stroke-width="0.442478"/>
<path d="M228.556 110.144L228.556 84.7013C220.518 85.1438 204.308 90.8517 203.777 110.144" stroke="#FFEAB4" stroke-width="0.442478"/>
<path d="M229 110.143L229 84.4801" stroke="#FFEAB4" stroke-width="0.442478"/>
<path d="M228.995 175.409L254.437 175.409C253.995 167.371 248.287 151.161 228.995 150.63" stroke="#FFEAB4" stroke-width="0.442478"/>
<path d="M228.997 175.852L254.66 175.852" stroke="#FFEAB4" stroke-width="0.442478"/>
</svg>
