<svg width="181" height="158" viewBox="0 0 181 158" fill="none" xmlns="http://www.w3.org/2000/svg">
<mask id="mask0_4201_10050" style="mask-type:alpha" maskUnits="userSpaceOnUse" x="0" y="0" width="181" height="158">
<path d="M181 0H0V158H181V0Z" fill="#0C1621"/>
</mask>
<g mask="url(#mask0_4201_10050)">
<mask id="mask1_4201_10050" style="mask-type:alpha" maskUnits="userSpaceOnUse" x="0" y="0" width="181" height="241">
<path fill-rule="evenodd" clip-rule="evenodd" d="M180.624 93.9666C180.675 92.7209 180.7 91.4687 180.7 90.2104C180.7 40.3886 140.249 0 90.3502 0C40.4512 0 0 40.3886 0 90.2104C0 90.6502 0.00315199 91.0892 0.00943464 91.5275H0V241H180.624V93.9666Z" fill="#D9D9D9"/>
</mask>
<g mask="url(#mask1_4201_10050)">
<path d="M181 0H0V158H181V0Z" fill="#0C1621"/>
<path d="M117.199 66.8394L118.097 60.7094V60.5093C118.097 57.4954 115.996 55.0858 113.199 54.5835C100.699 52.4722 81.0001 52.4722 69.1991 54.5835C66.3007 55.0858 64.3007 57.4954 64.3007 60.5093V60.7094L65.1992 66.8394C63 67.2396 60.8984 68.2442 59.1992 69.9554C57.1992 71.9646 56 74.7784 56 77.6903C56 83.2158 60 87.8392 65.1992 88.5414V101.499C65.1992 104.815 67.8008 107.527 71.0976 107.527H72.2968L72.3007 110.643C72.3007 112.452 75.199 112.452 75.199 110.643V107.229H106.801V110.643C106.801 112.452 109.699 112.452 109.699 110.643V107.229H110.899C114.199 107.229 116.797 104.517 116.797 101.201L116.801 88.4391C122 87.7367 126 83.1177 126 77.592C126 74.6802 124.801 71.8664 122.801 69.8571C121.5 68.2481 119.398 67.1416 117.199 66.8394ZM69.6011 57.2953C80.902 55.286 100.601 55.286 112.601 57.2953C113.999 57.5974 115.101 58.7002 115.101 60.3092L114.101 66.6392C111.703 66.9414 109.499 67.9461 107.8 69.7552C105.8 71.7645 104.601 74.5783 104.601 77.4902V85.4252H77.4991V77.4902C77.4991 74.5783 76.2999 71.7645 74.2999 69.7552C72.6007 68.0481 70.4015 66.9414 67.9991 66.6392L67.1006 60.3092C67.1006 58.8022 68.1988 57.5975 69.6011 57.2953ZM115.499 85.6292C114.698 85.6292 114.101 86.3316 114.101 87.0341V101.299C114.101 103.006 112.8 104.415 111.101 104.415H71.2997C69.6981 104.415 68.2997 103.108 68.2997 101.299V87.0341C68.2997 86.2296 67.6005 85.6292 66.9013 85.6292C62.6005 85.6292 59.1005 82.0109 59.1005 77.592C59.1005 75.4807 59.9013 73.4714 61.4013 71.8664C62.7997 70.3594 64.9013 69.5549 66.9013 69.5549C69.0029 69.5549 70.9013 70.4575 72.4013 71.8664C73.7997 73.3733 74.7021 75.4847 74.7021 77.592V86.936C74.7021 87.7405 75.4013 88.3409 76.1005 88.3409H106.299C107.1 88.3409 107.698 87.6384 107.698 86.936V77.592C107.698 75.4807 108.499 73.4714 109.999 71.8664C111.397 70.3594 113.499 69.5549 115.499 69.5549C117.499 69.5549 119.499 70.4575 120.999 71.8664C122.397 73.3733 123.299 75.4847 123.299 77.592C123.299 82.0109 119.897 85.6292 115.499 85.6292Z" fill="#FFEAB4"/>
<g filter="url(#filter0_f_4201_10050)">
<path d="M16.1986 -10.9933C19.4642 -12.2346 22.8707 -13.6344 26.3628 -14.2866C6.11295 28.8585 38.2482 18.1815 41.4099 15.6467C44.1824 13.4241 43.0226 -19.0552 46.6459 -20.5075C51.9632 -22.6389 70.9721 16.872 76.627 15.6467C88.3168 13.1139 89.7586 -28.1002 101.402 -24.8135C108.196 -22.8956 120.697 -17.9532 123.378 -10.7882C124.759 -7.09679 124.82 -3.07112 123.992 0.776459C122.376 8.28654 122.308 16.8939 119.736 24.1109C116.223 33.9673 106.997 41.29 99.5195 48.0606C93.5748 53.4435 87.919 59.9548 80.6945 63.6442C71.084 68.5521 58.9618 68.4751 48.4465 69.2215C38.1323 69.9537 26.5983 69.7439 16.7715 66.1458C9.80991 63.5968 3.81042 62.9881 -3.73134 62.9881C-21.2505 62.9881 -40.2668 64.9115 -56.9732 70.4518C-69.0209 74.4472 -79.4543 81.3113 -90.2443 87.7989C-116.684 103.696 -142.716 119.002 -166.076 139.43C-178.382 150.191 -191.746 159.48 -204.954 169.039C-206.574 170.211 -207 164.891 -207 164.323C-207 158.837 -206.601 154.348 -205.036 148.985C-200.863 134.687 -188.572 131.157 -179.819 118.914C-168.297 102.798 -154.228 97.8072 -137.039 87.7989C-113.314 73.9858 -90.8304 68.6311 -66.3683 56.1483C-48.8925 47.2306 -13.3948 43.8132 3.59302 34.0353C14.6908 27.6476 4.25761 -6.45447 16.1986 -10.9933Z" fill="#FFBC7E" fill-opacity="0.46"/>
</g>
</g>
</g>
<defs>
<filter id="filter0_f_4201_10050" x="-292.394" y="-110.394" width="502.318" height="364.994" filterUnits="userSpaceOnUse" color-interpolation-filters="sRGB">
<feFlood flood-opacity="0" result="BackgroundImageFix"/>
<feBlend mode="normal" in="SourceGraphic" in2="BackgroundImageFix" result="shape"/>
<feGaussianBlur stdDeviation="42.6968" result="effect1_foregroundBlur_4201_10050"/>
</filter>
</defs>
</svg>
