<svg width="69" height="126" viewBox="0 0 69 126" fill="none" xmlns="http://www.w3.org/2000/svg">
<path d="M25.0947 0.774944C22.4562 0.726871 20.2975 1.83255 18.9543 3.61125C17.611 5.53417 16.9394 8.03397 17.0354 10.2934C17.2752 13.6104 20.0097 16.8794 23.1279 20.3887C26.2461 23.8981 29.9399 27.4074 32.3865 30.1956C32.8663 30.7725 33.9217 30.7725 34.4014 30.1956C36.8 27.4555 40.4939 24.0904 43.6121 20.6291C46.7303 17.1678 49.4647 13.7547 49.4647 10.1973C49.4647 7.64938 48.8411 5.34188 47.4019 3.61125C46.0107 1.88062 43.852 0.823017 41.2135 0.774944C38.0953 0.87109 35.6007 2.50557 33.1061 3.7074C30.0839 2.12099 27.7812 0.726871 25.0947 0.774944ZM25.0947 3.46703C28.021 3.51511 29.7001 5.29381 32.5305 6.5437C32.8663 6.63985 33.2021 6.63985 33.5379 6.5437C36.1284 5.53417 38.6709 3.51511 41.2135 3.51511C43.1803 3.51511 44.3797 4.2362 45.2911 5.34188C46.2026 6.44756 46.7783 8.13011 46.7783 10.1973C46.7783 12.1202 44.6195 15.4372 41.5973 18.7542C38.9108 21.7348 35.8406 24.6672 33.394 27.3593C30.8994 24.6192 27.8771 21.5906 25.1427 18.562C22.1204 15.1488 19.8657 11.7356 19.7698 10.1011C19.7218 8.08204 20.2495 6.39949 21.113 5.24573C21.9765 4.09198 23.1758 3.46703 25.0947 3.46703ZM39.8223 34.0895C38.7189 37.5027 37.7115 40.964 36.7041 44.4252L25.4305 31.6378C25.2866 31.4936 25.1427 31.3974 24.9988 31.3494C21.6407 29.9072 18.1867 30.3879 15.5482 32.5031C13.1016 34.5222 11.8064 38.0315 13.4854 41.3486C19.482 49.7613 25.5265 58.126 31.571 66.4907C28.7886 66.0581 25.5745 67.308 23.4157 69.6636C21.5448 72.0191 21.0171 75.4323 21.9765 78.4609C18.1387 77.7879 14.7807 79.4224 12.43 82.0183C9.98341 84.9027 10.0314 88.7486 10.9429 91.2483C7.63276 90.6234 4.22671 91.6329 2.45173 93.5558C0.388918 95.7672 -0.234724 99.6611 0.964587 102.834C1.01256 103.074 1.1085 103.267 1.30039 103.459L17.8989 121.054C22.4562 125.621 28.9325 126.39 35.3129 124.851C41.6452 123.313 48.0735 119.563 53.2066 114.852C57.9559 110.478 63.6166 104.805 66.399 97.7382C69.1814 90.6715 68.8936 82.1625 62.0335 73.0768C57.764 68.2694 53.4944 63.4141 49.1769 58.5587C50.9519 52.5496 52.6789 46.4443 54.4539 40.5313C55.5093 36.0605 53.3985 32.6474 49.7526 30.7725C45.8668 29.2342 41.2614 30.5802 39.8223 34.0895ZM48.5053 33.2242C51.1438 34.4741 52.7748 37.1662 51.9113 39.7141C50.3282 45.1944 48.6972 50.6747 47.0661 56.2031L38.8148 46.7808C39.9662 42.983 41.0216 39.0891 42.2689 35.2914C43.2763 33.1281 45.8668 32.407 48.5053 33.2242ZM23.6556 33.705C35.6487 47.1173 48.937 61.9719 59.9707 74.8074C66.3031 83.2682 66.399 90.383 63.9044 96.6806C61.4099 103.026 56.0849 108.555 51.3836 112.881C46.5864 117.304 40.4459 120.813 34.6412 122.207C28.8846 123.601 23.5596 122.928 19.8178 119.131L3.5551 101.921C2.25984 99.8053 3.21929 96.6806 4.4186 95.4307C5.56994 94.1808 8.59221 93.0751 11.6145 93.8924C14.7327 97.1613 17.9468 100.382 21.161 103.603C21.6407 104.228 22.6002 104.276 23.1279 103.747C23.7035 103.17 23.6556 102.209 23.0319 101.728L13.6773 92.1617C12.2381 88.8447 13.1496 85.3354 14.4448 83.8451C16.2198 81.778 19.7218 80.3358 23.0319 81.0088L33.25 92.6425C33.7298 93.1713 34.6412 93.2193 35.1689 92.7386C35.6966 92.2579 35.7926 91.3445 35.3129 90.8157L24.711 78.7974C23.4157 75.7208 24.2792 72.7402 25.4305 71.4423C26.6778 70.0962 29.7481 68.3656 33.6338 68.8944L45.3871 83.0759C45.8668 83.6047 46.7783 83.7009 47.306 83.2682C47.8816 82.7875 47.9776 81.8741 47.4979 81.3453C36.752 68.5098 26.1501 55.3378 15.884 40.0987C14.8286 37.9354 15.5962 36.0125 17.2752 34.6183C19.482 33.0319 21.3049 32.9839 23.6556 33.705Z" fill="#FFEAB4"/>
</svg>
