<svg width="96" height="96" viewBox="0 0 96 96" fill="none" xmlns="http://www.w3.org/2000/svg">
<path d="M47.0801 94.2001C36.487 94.1956 26.2047 90.6203 17.8941 84.0517C9.58339 77.483 3.72967 68.3047 1.27841 57.9991C-1.17285 47.6935 -0.0785055 36.8624 4.38468 27.2555C8.84786 17.6485 16.4193 9.82656 25.8759 5.05311C35.3325 0.279659 46.1222 -1.16657 56.5021 0.948017C66.882 3.06261 76.246 8.61455 83.0816 16.707C89.9172 24.7995 93.8252 34.9601 94.1744 45.5474C94.5236 56.1348 91.2936 66.5307 85.0061 75.0561C84.9192 75.174 84.8074 75.2714 84.6787 75.3414C84.55 75.4114 84.4074 75.4522 84.2611 75.4611L76.1851 75.9471L75.6851 84.0931C75.6758 84.238 75.6352 84.3791 75.5662 84.5069C75.4972 84.6346 75.4013 84.7459 75.2851 84.8331C67.152 90.939 57.2502 94.2274 47.0801 94.2001ZM47.0801 1.93705C39.9528 1.93854 32.9272 3.62802 26.5784 6.86717C20.2297 10.1063 14.7383 14.803 10.554 20.5728C6.36966 26.3425 3.61131 33.0213 2.50477 40.0622C1.39823 47.1031 1.97497 54.3059 4.18777 61.0811C6.40057 67.8562 10.1865 74.0109 15.2356 79.0413C20.2847 84.0717 26.4535 87.8348 33.2368 90.0225C40.02 92.2101 47.225 92.7602 54.2617 91.6275C61.2985 90.4949 67.9669 87.7118 73.7211 83.5061L74.2421 74.9421C74.2571 74.6984 74.3606 74.4687 74.5332 74.2961C74.7058 74.1235 74.9355 74.02 75.1791 74.0051L83.6711 73.4931C88.5328 66.7528 91.4396 58.8013 92.0713 50.5147C92.703 42.2281 91.0352 33.928 87.2514 26.5286C83.4677 19.1293 77.7149 12.9179 70.6269 8.5789C63.5389 4.23986 55.3908 1.94151 47.0801 1.93705Z" fill="#FFEAB4"/>
<path d="M47.0778 82.469C40.0773 82.4708 33.2335 80.3964 27.4121 76.5082C21.5907 72.6201 17.0531 67.0928 14.3734 60.6255C11.6936 54.1582 10.992 47.0415 12.3574 40.1754C13.7228 33.3094 17.0937 27.0025 22.0439 22.0525C26.9941 17.1024 33.301 13.7317 40.1671 12.3665C47.0332 11.0013 54.1499 11.7031 60.6171 14.383C67.0844 17.0629 72.6115 21.6006 76.4995 27.4222C80.3875 33.2437 82.4617 40.0875 82.4598 47.088C82.4465 56.4678 78.7145 65.4595 72.0819 72.0919C65.4494 78.7243 56.4575 82.4561 47.0778 82.469ZM47.0778 13.688C40.4736 13.6862 34.0173 15.6429 28.5252 19.3104C23.0331 22.978 18.7519 28.1918 16.2229 34.2925C13.694 40.3933 13.0309 47.1069 14.3176 53.5845C15.6042 60.062 18.7828 66.0126 23.4514 70.6837C28.1199 75.3547 34.0688 78.5365 40.5457 79.8267C47.0225 81.1168 53.7365 80.4574 59.8386 77.9317C65.9407 75.4061 71.1568 71.1277 74.8274 65.6376C78.4979 60.1474 80.458 53.6921 80.4598 47.088C80.4497 38.236 76.93 29.7491 70.6724 23.4881C64.4147 17.2271 55.9298 13.7028 47.0778 13.688Z" fill="#FFEAB4"/>
<path d="M47.0789 70.7192C42.4006 70.721 37.8268 69.3352 33.9362 66.7371C30.0456 64.1391 27.0129 60.4455 25.2218 56.1236C23.4307 51.8017 22.9617 47.0457 23.874 42.4572C24.7863 37.8686 27.0391 33.6538 30.3472 30.3458C33.6554 27.0378 37.8703 24.7852 42.4589 23.8731C47.0474 22.9609 51.8034 23.4302 56.1252 25.2215C60.4471 27.0127 64.1405 30.0456 66.7384 33.9363C69.3363 37.827 70.7219 42.4009 70.7199 47.0792C70.7104 53.3462 68.2166 59.3537 63.7851 63.785C59.3535 68.2164 53.3459 70.7099 47.0789 70.7192ZM47.0789 25.4192C42.797 25.4174 38.6107 26.6854 35.0494 29.0628C31.4881 31.4402 28.7118 34.8203 27.0715 38.7756C25.4312 42.7308 25.0006 47.0837 25.8341 51.2837C26.6676 55.4837 28.7279 59.3422 31.7544 62.3713C34.7808 65.4004 38.6375 67.4641 42.8368 68.3013C47.0361 69.1385 51.3893 68.7118 55.346 67.0749C59.3027 65.4381 62.6852 62.6647 65.0658 59.1055C67.4463 55.5463 68.7179 51.3611 68.7199 47.0792C68.7139 41.3398 66.4325 35.8369 62.3759 31.7767C58.3193 27.7165 52.8184 25.4303 47.0789 25.4192Z" fill="#FFEAB4"/>
<path d="M47.0782 58.9791C44.722 58.9809 42.4183 58.2838 40.4585 56.9759C38.4987 55.668 36.9709 53.8081 36.0684 51.6317C35.1659 49.4552 34.9293 47.06 35.3886 44.749C35.8478 42.4381 36.9822 40.3153 38.6482 38.6492C40.3143 36.9832 42.4371 35.8488 44.748 35.3895C47.059 34.9303 49.4542 35.1669 51.6307 36.0694C53.8071 36.9719 55.667 38.4997 56.9749 40.4595C58.2828 42.4193 58.9799 44.723 58.9782 47.0791C58.9721 50.2333 57.7164 53.2566 55.486 55.487C53.2556 57.7174 50.2324 58.9731 47.0782 58.9791ZM47.0782 37.1611C45.1183 37.1594 43.202 37.7388 41.5715 38.8261C39.941 39.9134 38.6695 41.4599 37.9179 43.2698C37.1663 45.0798 36.9682 47.072 37.3488 48.9945C37.7294 50.917 38.6715 52.6834 40.0561 54.0705C41.4406 55.4575 43.2054 56.4029 45.1272 56.787C47.049 57.1711 49.0415 56.9766 50.8529 56.2283C52.6642 55.48 54.2129 54.2113 55.3032 52.5828C56.3935 50.9542 56.9764 49.0389 56.9782 47.0791C56.9753 44.4527 55.9319 41.9344 54.0764 40.0756C52.2209 38.2168 49.7046 37.1688 47.0782 37.1611Z" fill="#FFEAB4"/>
<path d="M84.7897 95.701C84.6582 95.701 84.5279 95.675 84.4064 95.6246C84.285 95.5741 84.1746 95.5002 84.0817 95.407L73.9527 85.258C73.8533 85.1585 73.7759 85.039 73.7258 84.9076C73.6757 84.7761 73.6538 84.6355 73.6617 84.495L74.2417 74.942C74.2567 74.6984 74.3602 74.4686 74.5328 74.296C74.7054 74.1234 74.9351 74.0199 75.1787 74.005L84.7237 73.425C84.8656 73.4175 85.0075 73.4394 85.1405 73.4893C85.2735 73.5392 85.3948 73.6161 85.4967 73.715L95.6457 83.844C95.7822 83.9801 95.8763 84.1528 95.9169 84.3412C95.9575 84.5296 95.9428 84.7257 95.8746 84.906C95.8063 85.0862 95.6874 85.2429 95.5322 85.3571C95.377 85.4714 95.1921 85.5384 94.9997 85.55L86.3137 86.076L85.7877 94.761C85.7761 94.9534 85.7092 95.1384 85.5949 95.2936C85.4807 95.4488 85.324 95.5677 85.1437 95.636C85.0306 95.6787 84.9107 95.7007 84.7897 95.701ZM75.6847 84.163L83.9257 92.419L84.3707 85.07C84.3854 84.826 84.489 84.5959 84.6618 84.4231C84.8346 84.2503 85.0648 84.1467 85.3087 84.132L92.6577 83.687L84.4037 75.45L81.4627 75.627L76.1847 75.946L75.6847 84.163Z" fill="#FFEAB4"/>
<path d="M75.2401 75.9971C74.9749 75.997 74.7206 75.8917 74.5331 75.7041L46.2751 47.4511C46.0876 47.2635 45.9823 47.009 45.9824 46.7437C45.9825 46.4785 46.088 46.2241 46.2756 46.0366C46.4633 45.8491 46.7177 45.7438 46.983 45.7439C47.2482 45.744 47.5026 45.8495 47.6901 46.0371L75.9401 74.2901C76.0799 74.43 76.1751 74.6081 76.2137 74.8021C76.2523 74.996 76.2325 75.1971 76.1568 75.3798C76.0811 75.5625 75.953 75.7186 75.7886 75.8285C75.6242 75.9384 75.4309 75.9971 75.2331 75.9971H75.2401Z" fill="#FFEAB4"/>
</svg>
