<svg width="70" height="70" viewBox="0 0 70 70" fill="none" xmlns="http://www.w3.org/2000/svg">
<g id="icons8-&#208;&#191;&#208;&#190;&#209;&#128;&#209;&#130;&#209;&#132;&#208;&#181;&#208;&#187;&#209;&#140; 1">
<path id="Vector" d="M29.1668 7.2915C26.7672 7.2915 24.7918 9.26688 24.7918 11.6665V14.5832H11.6668C7.6571 14.5832 4.37515 17.8651 4.37515 21.8748V37.9165C4.37515 40.3161 6.35052 42.2915 8.75015 42.2915H27.7085V43.7498C27.7085 45.3439 29.0311 46.6665 30.6251 46.6665H39.3751C40.9692 46.6665 42.2918 45.3439 42.2918 43.7498V42.2915H58.3335C58.5267 42.2942 58.7186 42.2585 58.8979 42.1865C59.0772 42.1144 59.2405 42.0074 59.3781 41.8717C59.5157 41.736 59.625 41.5744 59.6996 41.3961C59.7742 41.2178 59.8126 41.0264 59.8126 40.8332C59.8126 40.6399 59.7742 40.4486 59.6996 40.2703C59.625 40.092 59.5157 39.9303 59.3781 39.7946C59.2405 39.6589 59.0772 39.5519 58.8979 39.4799C58.7186 39.4078 58.5267 39.3721 58.3335 39.3748H40.8335C40.4467 39.3749 40.0758 39.5285 39.8023 39.802C39.5288 40.0755 39.3752 40.4464 39.3751 40.8332V43.7498H30.6251V40.8332C30.6251 40.4464 30.4714 40.0755 30.198 39.802C29.9245 39.5285 29.5536 39.3749 29.1668 39.3748H8.75015C7.94143 39.3748 7.29181 38.7252 7.29181 37.9165V21.8748C7.29181 19.4416 9.23361 17.4998 11.6668 17.4998H26.2501C26.6369 17.4998 27.0078 17.3461 27.2813 17.0727C27.5548 16.7992 27.7084 16.4283 27.7085 16.0415V11.6665C27.7085 10.8578 28.3581 10.2082 29.1668 10.2082H40.8335C41.6422 10.2082 42.2918 10.8578 42.2918 11.6665V16.0415C42.2891 16.2347 42.3248 16.4266 42.3968 16.6059C42.4689 16.7853 42.5759 16.9485 42.7116 17.0861C42.8473 17.2237 43.009 17.333 43.1872 17.4076C43.3655 17.4822 43.5569 17.5206 43.7501 17.5206C43.9434 17.5206 44.1348 17.4822 44.313 17.4076C44.4913 17.333 44.653 17.2237 44.7887 17.0861C44.9244 16.9485 45.0314 16.7853 45.1034 16.6059C45.1755 16.4266 45.2112 16.2347 45.2085 16.0415V11.6665C45.2085 9.26688 43.2331 7.2915 40.8335 7.2915H29.1668ZM49.5835 14.5832C49.3902 14.5804 49.1984 14.6161 49.019 14.6882C48.8397 14.7603 48.6765 14.8672 48.5389 15.0029C48.4013 15.1386 48.292 15.3003 48.2174 15.4786C48.1428 15.6569 48.1044 15.8482 48.1044 16.0415C48.1044 16.2348 48.1428 16.4261 48.2174 16.6044C48.292 16.7827 48.4013 16.9444 48.5389 17.0801C48.6765 17.2158 48.8397 17.3227 49.019 17.3948C49.1984 17.4669 49.3902 17.5026 49.5835 17.4998H58.3335C60.7689 17.4998 62.7085 19.4394 62.7085 21.8748V53.9582C62.7085 56.3936 60.7689 58.3332 58.3335 58.3332H11.6668C9.23135 58.3332 7.29181 56.3936 7.29181 53.9582V46.6665C7.29455 46.4733 7.25884 46.2814 7.18678 46.1021C7.11472 45.9227 7.00774 45.7595 6.87205 45.6219C6.73636 45.4843 6.57467 45.375 6.39638 45.3004C6.21808 45.2258 6.02675 45.1874 5.83348 45.1874C5.64021 45.1874 5.44887 45.2258 5.27058 45.3004C5.09229 45.375 4.9306 45.4843 4.79491 45.6219C4.65922 45.7595 4.55224 45.9227 4.48018 46.1021C4.40811 46.2814 4.37241 46.4733 4.37515 46.6665V53.9582C4.37515 57.9685 7.65644 61.2498 11.6668 61.2498H58.3335C62.3439 61.2498 65.6251 57.9685 65.6251 53.9582V21.8748C65.6251 17.8645 62.3439 14.5832 58.3335 14.5832H49.5835Z" fill="#FFEAB4"/>
</g>
</svg>
