<svg width="70" height="70" viewBox="0 0 70 70" fill="none" xmlns="http://www.w3.org/2000/svg">
<g id="icons8-&#208;&#177;&#209;&#131;&#208;&#188;&#208;&#176;&#208;&#182;&#208;&#189;&#208;&#184;&#208;&#186; 1">
<path id="Vector" d="M55.4296 7.29154C55.3954 7.29129 55.3612 7.29224 55.3271 7.29439L14.0522 9.79521C9.44695 10.0743 5.83203 13.9155 5.83203 18.5281V58.3332C5.83203 60.7321 7.80812 62.7082 10.207 62.7082H59.7904C62.1893 62.7082 64.1654 60.7321 64.1654 58.3332V33.7865C64.1914 33.629 64.1914 33.4683 64.1654 33.3108V21.8749C64.1654 19.476 62.1893 17.4999 59.7904 17.4999H14.582C14.3888 17.4971 14.1969 17.5328 14.0176 17.6049C13.8383 17.677 13.675 17.784 13.5374 17.9196C13.3998 18.0553 13.2905 18.217 13.2159 18.3953C13.1413 18.5736 13.1029 18.7649 13.1029 18.9582C13.1029 19.1515 13.1413 19.3428 13.2159 19.5211C13.2905 19.6994 13.3998 19.8611 13.5374 19.9968C13.675 20.1325 13.8383 20.2395 14.0176 20.3115C14.1969 20.3836 14.3888 20.4193 14.582 20.4165H59.7904C60.6144 20.4165 61.2487 21.0509 61.2487 21.8749V32.0832H53.957C49.1422 32.0832 45.207 36.0183 45.207 40.8332C45.207 45.6481 49.1422 49.5832 53.957 49.5832H56.8737C57.0669 49.5859 57.2588 49.5502 57.4381 49.4782C57.6175 49.4061 57.7807 49.2991 57.9183 49.1634C58.0559 49.0278 58.1652 48.8661 58.2398 48.6878C58.3144 48.5095 58.3528 48.3181 58.3528 48.1249C58.3528 47.9316 58.3144 47.7403 58.2398 47.562C58.1652 47.3837 58.0559 47.222 57.9183 47.0863C57.7807 46.9506 57.6175 46.8436 57.4381 46.7716C57.2588 46.6995 57.0669 46.6638 56.8737 46.6665H53.957C50.719 46.6665 48.1237 44.0713 48.1237 40.8332C48.1237 37.5952 50.719 34.9999 53.957 34.9999H61.2487V58.3332C61.2487 59.1572 60.6144 59.7915 59.7904 59.7915H10.207C9.38303 59.7915 8.7487 59.1572 8.7487 58.3332V18.5281C8.7487 15.429 11.1341 12.8937 14.2288 12.7062L55.5037 10.2054C55.8799 10.1812 56.2321 10.0122 56.4865 9.73394C56.7409 9.45568 56.8776 9.08972 56.868 8.71284C56.8585 8.33595 56.7033 7.97741 56.4351 7.71243C56.167 7.44745 55.8066 7.2966 55.4296 7.29154Z" fill="#FFEAB4"/>
</g>
</svg>
