<svg width="36" height="36" viewBox="0 0 36 36" fill="none" xmlns="http://www.w3.org/2000/svg">
<g id="icons8-&#208;&#180;&#208;&#184;&#208;&#191;&#208;&#187;&#208;&#190;&#208;&#188;-1 1">
<path id="Vector" d="M6.47891 5.76C4.50023 5.76 2.87891 7.38133 2.87891 9.36V26.64C2.87891 28.6187 4.50023 30.24 6.47891 30.24H17.2789C17.3743 30.2414 17.469 30.2237 17.5576 30.1881C17.6461 30.1526 17.7267 30.0997 17.7946 30.0328C17.8626 29.9658 17.9165 29.8859 17.9534 29.7979C17.9902 29.7099 18.0092 29.6154 18.0092 29.52C18.0092 29.4246 17.9902 29.3301 17.9534 29.2421C17.9165 29.1541 17.8626 29.0742 17.7946 29.0072C17.7267 28.9403 17.6461 28.8874 17.5576 28.8519C17.469 28.8163 17.3743 28.7987 17.2789 28.8H6.47891C5.28094 28.8 4.31891 27.838 4.31891 26.64V9.36C4.31891 8.16204 5.28094 7.2 6.47891 7.2H29.5189C30.7169 7.2 31.6789 8.16204 31.6789 9.36V26.64C31.6789 26.8343 31.6525 27.0223 31.6044 27.2011C31.5777 27.2931 31.5696 27.3895 31.5807 27.4847C31.5917 27.5798 31.6217 27.6718 31.6687 27.7553C31.7157 27.8387 31.779 27.912 31.8547 27.9707C31.9304 28.0294 32.017 28.0724 32.1096 28.0972C32.2021 28.122 32.2987 28.1281 32.3936 28.1151C32.4885 28.1021 32.5799 28.0703 32.6624 28.0215C32.7448 27.9728 32.8167 27.9081 32.8739 27.8312C32.931 27.7543 32.9723 27.6668 32.9952 27.5738C33.0752 27.2759 33.1189 26.9627 33.1189 26.64V9.36C33.1189 7.38133 31.4976 5.76 29.5189 5.76H6.47891ZM8.63891 10.8C8.5435 10.7987 8.44877 10.8163 8.36024 10.8519C8.2717 10.8874 8.19112 10.9403 8.12317 11.0072C8.05522 11.0742 8.00127 11.1541 7.96444 11.2421C7.92762 11.3301 7.90865 11.4246 7.90865 11.52C7.90865 11.6154 7.92762 11.7099 7.96444 11.7979C8.00127 11.8859 8.05522 11.9658 8.12317 12.0328C8.19112 12.0997 8.2717 12.1526 8.36024 12.1881C8.44877 12.2237 8.5435 12.2414 8.63891 12.24H27.3589C27.4543 12.2414 27.549 12.2237 27.6376 12.1881C27.7261 12.1526 27.8067 12.0997 27.8746 12.0328C27.9426 11.9658 27.9965 11.8859 28.0334 11.7979C28.0702 11.7099 28.0892 11.6154 28.0892 11.52C28.0892 11.4246 28.0702 11.3301 28.0334 11.2421C27.9965 11.1541 27.9426 11.0742 27.8746 11.0072C27.8067 10.9403 27.7261 10.8874 27.6376 10.8519C27.549 10.8163 27.4543 10.7987 27.3589 10.8H8.63891ZM8.63891 15.12C8.5435 15.1187 8.44877 15.1363 8.36024 15.1719C8.2717 15.2074 8.19112 15.2603 8.12317 15.3272C8.05522 15.3942 8.00127 15.4741 7.96444 15.5621C7.92762 15.6501 7.90865 15.7446 7.90865 15.84C7.90865 15.9354 7.92762 16.0299 7.96444 16.1179C8.00127 16.2059 8.05522 16.2858 8.12317 16.3528C8.19112 16.4198 8.2717 16.4726 8.36024 16.5081C8.44877 16.5437 8.5435 16.5614 8.63891 16.56H17.9989C18.0943 16.5614 18.189 16.5437 18.2776 16.5081C18.3661 16.4726 18.4467 16.4198 18.5146 16.3528C18.5826 16.2858 18.6365 16.2059 18.6734 16.1179C18.7102 16.0299 18.7292 15.9354 18.7292 15.84C18.7292 15.7446 18.7102 15.6501 18.6734 15.5621C18.6365 15.4741 18.5826 15.3942 18.5146 15.3272C18.4467 15.2603 18.3661 15.2074 18.2776 15.1719C18.189 15.1363 18.0943 15.1187 17.9989 15.12H8.63891ZM24.8389 18C22.2627 18 20.1589 20.1038 20.1589 22.68C20.1589 23.7707 20.5395 24.7737 21.17 25.5713L19.6287 29.3527C19.5569 29.5295 19.5581 29.7275 19.6322 29.9034C19.7063 30.0793 19.8472 30.2186 20.0239 30.2906L23.2709 31.6139C23.3591 31.6532 23.4543 31.6743 23.5508 31.676C23.6473 31.6778 23.7431 31.6601 23.8327 31.6241C23.9222 31.5881 24.0036 31.5344 24.0719 31.4663C24.1403 31.3982 24.1943 31.317 24.2307 31.2276C24.2671 31.1382 24.2852 31.0425 24.2838 30.946C24.2825 30.8495 24.2617 30.7542 24.2228 30.6659C24.1839 30.5776 24.1277 30.4979 24.0574 30.4318C23.9871 30.3656 23.9043 30.3143 23.8138 30.2808L21.2347 29.2289L22.3048 26.6063C22.7499 26.8949 23.2463 27.1091 23.7772 27.2334L25.4731 31.2286C25.5471 31.4025 25.6864 31.5404 25.8611 31.6124C26.0358 31.6845 26.2318 31.6851 26.4069 31.6139L29.6539 30.2906C29.8306 30.2186 29.9715 30.0793 30.0456 29.9034C30.1197 29.7275 30.1209 29.5295 30.0491 29.3527L28.5078 25.5713C29.1383 24.7737 29.5189 23.7707 29.5189 22.68C29.5189 20.1038 27.4151 18 24.8389 18ZM24.8389 19.44C26.6368 19.44 28.0789 20.8821 28.0789 22.68C28.0789 24.4779 26.6368 25.92 24.8389 25.92C23.041 25.92 21.5989 24.4779 21.5989 22.68C21.5989 20.8821 23.041 19.44 24.8389 19.44ZM9.20563 21.5902C9.0519 21.5993 8.90517 21.6576 8.78698 21.7563C8.66878 21.855 8.58534 21.989 8.54891 22.1386L8.00469 24.2283C7.97162 24.3554 7.97393 24.4891 8.01139 24.615C8.04884 24.7408 8.12001 24.8541 8.21718 24.9424C8.31436 25.0308 8.43384 25.0908 8.5627 25.1162C8.69157 25.1415 8.8249 25.1311 8.94828 25.0861L11.3544 24.21C11.559 24.4272 11.6687 24.6188 12.1728 24.878C12.5603 25.0772 13.0515 25.2308 13.6002 25.1564C13.9594 25.1077 14.2796 24.7919 14.6098 24.5363L16.3128 25.1564C16.4023 25.1919 16.498 25.209 16.5943 25.2069C16.6905 25.2047 16.7854 25.1833 16.8732 25.1438C16.961 25.1043 17.04 25.0477 17.1056 24.9771C17.1711 24.9066 17.2218 24.8236 17.2548 24.7332C17.2877 24.6427 17.3021 24.5465 17.2972 24.4504C17.2923 24.3542 17.2682 24.26 17.2263 24.1734C17.1843 24.0867 17.1254 24.0093 17.0531 23.9458C16.9807 23.8823 16.8964 23.8339 16.805 23.8036L14.8278 23.0836C14.6863 23.032 14.5322 23.0261 14.3871 23.0667C14.242 23.1074 14.1134 23.1924 14.0192 23.31C13.7571 23.6377 13.5728 23.708 13.4075 23.7305C13.2422 23.7529 13.0448 23.7068 12.8309 23.5969C12.4032 23.377 12.035 22.9486 12.035 22.9486C11.9408 22.8316 11.8123 22.7469 11.6675 22.7066C11.5228 22.6662 11.369 22.6722 11.2278 22.7236L9.74422 23.2636L9.9425 22.5014C9.97139 22.3968 9.97628 22.2871 9.95681 22.1804C9.93733 22.0737 9.894 21.9727 9.83004 21.8851C9.76608 21.7975 9.68315 21.7255 9.58745 21.6744C9.49174 21.6233 9.38574 21.5945 9.27734 21.5902C9.25345 21.589 9.22952 21.589 9.20563 21.5902ZM27.373 26.6063L28.4431 29.2289L26.5208 30.0122L25.3803 27.3263C26.1081 27.2415 26.7851 26.9875 27.373 26.6063Z" fill="white"/>
</g>
</svg>
