<svg width="36" height="36" viewBox="0 0 36 36" fill="none" xmlns="http://www.w3.org/2000/svg">
<g id="icons8-&#208;&#186;&#208;&#184;&#209;&#129;&#209;&#130;&#209;&#140; 1" clip-path="url(#clip0_2784_7441)">
<path id="Vector" d="M19.4257 1.43996C19.2812 1.44233 19.1408 1.48812 19.0227 1.57139C18.9045 1.65465 18.8142 1.77154 18.7634 1.90684C16.6255 7.6083 10.996 12.4628 8.38106 15.0778C7.5911 15.8677 7.32895 17.0483 7.71028 18.0984C7.71028 18.0989 7.71028 18.0993 7.71028 18.0998L8.46966 20.1881C9.1994 22.1944 8.58954 24.4363 6.94387 25.7962L3.56184 28.589C2.74691 29.2622 2.25335 30.25 2.20341 31.3059C2.15344 32.3614 2.55264 33.391 3.29887 34.1381C3.29887 34.1386 3.29887 34.139 3.29887 34.1395C4.00442 34.845 4.96146 35.2378 5.95387 35.2378C6.00867 35.2378 6.06745 35.2378 6.12966 35.235C7.18636 35.1859 8.17494 34.6899 8.84794 33.8751L11.6407 30.4945C13.0007 28.8482 15.2424 28.2375 17.2489 28.9673L19.3372 29.7267C19.3376 29.7267 19.3381 29.7267 19.3386 29.7267C20.3882 30.1082 21.5687 29.8468 22.3592 29.0573L24.9861 26.429C25.121 26.294 25.1969 26.1109 25.1969 25.92C25.1969 25.729 25.121 25.5459 24.9861 25.4109L14.2072 14.632C14.1408 14.5629 14.0613 14.5077 13.9734 14.4697C13.8855 14.4317 13.7908 14.4116 13.6951 14.4107C13.5993 14.4097 13.5042 14.4278 13.4156 14.464C13.3269 14.5002 13.2463 14.5538 13.1786 14.6215C13.1108 14.6893 13.0573 14.7698 13.0211 14.8585C12.9849 14.9472 12.9667 15.0422 12.9677 15.138C12.9687 15.2338 12.9887 15.3284 13.0268 15.4164C13.0648 15.5043 13.1199 15.5838 13.189 15.6501L23.4589 25.92L21.3411 28.0392C20.9436 28.4362 20.3565 28.5655 19.8293 28.3739L17.7411 27.6145C15.1669 26.6782 12.2759 27.4655 10.5312 29.5776L7.73841 32.9582C7.32421 33.4597 6.71181 33.7663 6.06356 33.7964C6.03216 33.7978 5.99412 33.7978 5.95387 33.7978C5.34356 33.7977 4.7505 33.5535 4.317 33.12C3.85849 32.6604 3.61134 32.0224 3.642 31.3748C3.6727 30.7257 3.97889 30.1126 4.48012 29.6986L7.86075 26.9057C9.97204 25.161 10.7602 22.2702 9.82387 19.6959L9.0645 17.6076C8.87271 17.0795 9.00259 16.4925 9.39919 16.0959C11.7679 13.7271 17.0693 9.11314 19.617 3.35809L22.279 6.02012C21.9936 6.61359 20.6857 9.25309 18.2079 11.7309C18.1388 11.7972 18.0837 11.8767 18.0457 11.9646C18.0077 12.0526 17.9876 12.1472 17.9866 12.243C17.9856 12.3388 18.0038 12.4338 18.04 12.5225C18.0762 12.6112 18.1297 12.6918 18.1975 12.7595C18.2652 12.8272 18.3458 12.8808 18.4345 12.917C18.5232 12.9532 18.6182 12.9713 18.714 12.9704C18.8098 12.9694 18.9044 12.9493 18.9923 12.9113C19.0803 12.8733 19.1597 12.8181 19.2261 12.749C21.5999 10.3752 22.819 8.10857 23.3379 7.07903L24.7653 8.50637C24.464 9.07737 23.611 10.6479 22.5279 11.7309C22.4588 11.7972 22.4037 11.8767 22.3657 11.9646C22.3277 12.0526 22.3076 12.1472 22.3066 12.243C22.3056 12.3388 22.3238 12.4338 22.36 12.5225C22.3962 12.6112 22.4497 12.6918 22.5175 12.7595C22.5852 12.8272 22.6658 12.8808 22.7545 12.917C22.8432 12.9532 22.9382 12.9713 23.034 12.9704C23.1298 12.9694 23.2244 12.9493 23.3123 12.9113C23.4003 12.8733 23.4797 12.8181 23.5461 12.749C24.6491 11.646 25.3801 10.3975 25.8284 9.5695L29.2962 13.0373C28.824 13.7315 26.4962 17.1227 23.9679 19.6509C23.8988 19.7172 23.8437 19.7967 23.8057 19.8846C23.7677 19.9726 23.7476 20.0672 23.7466 20.163C23.7456 20.2588 23.7638 20.3538 23.8 20.4425C23.8362 20.5312 23.8897 20.6118 23.9575 20.6795C24.0252 20.7472 24.1058 20.8008 24.1945 20.837C24.2832 20.8732 24.3782 20.8913 24.474 20.8904C24.5698 20.8894 24.6644 20.8693 24.7523 20.8313C24.8403 20.7933 24.9197 20.7381 24.9861 20.669C27.5363 18.1188 29.6829 15.0198 30.3298 14.0709L32.1664 15.9075C31.7264 16.5279 29.7632 19.261 26.1743 23.1215C26.0442 23.2614 25.9749 23.4472 25.9818 23.6382C25.9886 23.8291 26.071 24.0095 26.2109 24.1397C26.3508 24.2698 26.5366 24.3391 26.7275 24.3322C26.9185 24.3254 27.0989 24.2429 27.229 24.1031C31.3145 19.7085 33.709 16.2492 33.709 16.2492C33.8048 16.1106 33.849 15.9428 33.8338 15.775C33.8186 15.6072 33.7451 15.4501 33.6261 15.3309L30.8248 12.5297C30.7802 12.4681 30.7261 12.414 30.6645 12.3693L26.2489 7.95371L26.2461 7.9495C26.2013 7.88843 26.1472 7.8348 26.0857 7.79059L23.7542 5.45903C23.7089 5.39624 23.6539 5.34116 23.5911 5.2959C23.5892 5.29449 23.5873 5.29308 23.5854 5.29168L19.9461 1.6509C19.8779 1.58269 19.7967 1.52887 19.7073 1.49263C19.6179 1.4564 19.5222 1.43849 19.4257 1.43996ZM6.117 30.24C5.83056 30.24 5.55586 30.3537 5.35332 30.5563C5.15078 30.7588 5.037 31.0335 5.037 31.32C5.037 31.6064 5.15078 31.8811 5.35332 32.0836C5.55586 32.2862 5.83056 32.4 6.117 32.4C6.40343 32.4 6.67813 32.2862 6.88067 32.0836C7.08321 31.8811 7.197 31.6064 7.197 31.32C7.197 31.0335 7.08321 30.7588 6.88067 30.5563C6.67813 30.3537 6.40343 30.24 6.117 30.24Z" fill="white"/>
</g>
<defs>
<clipPath id="clip0_2784_7441">
<rect width="34.56" height="34.56" fill="white" transform="translate(0.71875 0.719971)"/>
</clipPath>
</defs>
</svg>
