<svg width="36" height="36" viewBox="0 0 36 36" fill="none" xmlns="http://www.w3.org/2000/svg">
<g id="icons8-&#208;&#179;&#208;&#190;&#209;&#129;&#209;&#130;&#208;&#184;&#208;&#189;&#208;&#176;&#209;&#143; 1">
<path id="Vector" d="M9.35891 4.31995C7.77683 4.31995 6.47891 5.61787 6.47891 7.19995V18.0365C6.35927 18.0229 6.24199 17.9999 6.11891 17.9999C4.33803 17.9999 2.87891 19.4591 2.87891 21.2399V21.5999V28.0799C2.87891 29.662 4.17683 30.9599 5.75891 30.9599H7.91891V33.1199C7.91756 33.2154 7.93518 33.3101 7.97076 33.3986C8.00634 33.4872 8.05916 33.5677 8.12615 33.6357C8.19314 33.7036 8.27297 33.7576 8.361 33.7944C8.44902 33.8312 8.54349 33.8502 8.63891 33.8502C8.73432 33.8502 8.82879 33.8312 8.91682 33.7944C9.00484 33.7576 9.08467 33.7036 9.15166 33.6357C9.21865 33.5677 9.27147 33.4872 9.30705 33.3986C9.34263 33.3101 9.36026 33.2154 9.35891 33.1199V30.9599H26.6389V33.1199C26.6376 33.2154 26.6552 33.3101 26.6908 33.3986C26.7263 33.4872 26.7792 33.5677 26.8462 33.6357C26.9131 33.7036 26.993 33.7576 27.081 33.7944C27.169 33.8312 27.2635 33.8502 27.3589 33.8502C27.4543 33.8502 27.5488 33.8312 27.6368 33.7944C27.7248 33.7576 27.8047 33.7036 27.8717 33.6357C27.9387 33.5677 27.9915 33.4872 28.0271 33.3986C28.0626 33.3101 28.0803 33.2154 28.0789 33.1199V30.9599H30.2389C31.821 30.9599 33.1189 29.662 33.1189 28.0799V21.5999V21.2399C33.1189 19.4591 31.6598 17.9999 29.8789 17.9999C28.098 17.9999 26.6389 19.4591 26.6389 21.2399V24.2493C25.536 23.8783 22.7663 23.0399 17.9989 23.0399C15.3162 23.0399 13.0892 23.3451 11.4556 23.6798C11.3629 23.6988 11.2749 23.7359 11.1965 23.789C11.1181 23.842 11.051 23.91 10.9989 23.989C10.9468 24.068 10.9107 24.1565 10.8928 24.2494C10.8749 24.3423 10.8755 24.4379 10.8945 24.5306C10.9136 24.6233 10.9506 24.7113 11.0037 24.7897C11.0567 24.8681 11.1247 24.9352 11.2037 24.9873C11.2827 25.0394 11.3712 25.0755 11.4641 25.0934C11.5571 25.1113 11.6526 25.1107 11.7453 25.0917C13.2956 24.774 15.4256 24.4799 17.9989 24.4799C23.6389 24.4799 27.0917 25.8679 27.0917 25.8679C27.2009 25.9115 27.3191 25.9277 27.436 25.9151C27.5529 25.9025 27.665 25.8615 27.7624 25.7956C27.8598 25.7297 27.9395 25.641 27.9947 25.5371C28.0499 25.4333 28.0788 25.3175 28.0789 25.1999V21.2399C28.0789 20.2373 28.8763 19.4399 29.8789 19.4399C30.8816 19.4399 31.6789 20.2373 31.6789 21.2399V21.5999V28.0799C31.6789 28.8839 31.0429 29.5199 30.2389 29.5199H5.75891C4.95491 29.5199 4.31891 28.8839 4.31891 28.0799V21.5999V21.2399C4.31891 20.2373 5.11626 19.4399 6.11891 19.4399C7.12155 19.4399 7.91891 20.2373 7.91891 21.2399V25.1999C7.91756 25.2954 7.93518 25.3901 7.97076 25.4786C8.00634 25.5672 8.05916 25.6477 8.12615 25.7157C8.19314 25.7836 8.27297 25.8376 8.361 25.8744C8.44902 25.9112 8.54349 25.9302 8.63891 25.9302C8.73432 25.9302 8.82879 25.9112 8.91682 25.8744C9.00484 25.8376 9.08467 25.7836 9.15166 25.7157C9.21865 25.6477 9.27147 25.5672 9.30705 25.4786C9.34263 25.3901 9.36026 25.2954 9.35891 25.1999V21.2399C9.35891 20.1236 8.78552 19.1345 7.91891 18.5512V7.19995C7.91891 6.39595 8.55491 5.75995 9.35891 5.75995H26.6389C27.4429 5.75995 28.0789 6.39595 28.0789 7.19995V15.8399C28.0776 15.9354 28.0952 16.0301 28.1308 16.1186C28.1663 16.2072 28.2192 16.2877 28.2862 16.3557C28.3531 16.4236 28.433 16.4776 28.521 16.5144C28.609 16.5512 28.7035 16.5702 28.7989 16.5702C28.8943 16.5702 28.9888 16.5512 29.0768 16.5144C29.1648 16.4776 29.2447 16.4236 29.3117 16.3557C29.3787 16.2877 29.4315 16.2072 29.4671 16.1186C29.5026 16.0301 29.5203 15.9354 29.5189 15.8399V7.19995C29.5189 5.61787 28.221 4.31995 26.6389 4.31995H9.35891Z" fill="white"/>
</g>
</svg>
