<svg width="84" height="84" viewBox="0 0 84 84" fill="none" xmlns="http://www.w3.org/2000/svg">
<path fill-rule="evenodd" clip-rule="evenodd" d="M25.3645 0.00142233C23.0727 0.00810415 20.9157 0.256082 18.8883 0.755376C12.4004 2.35309 7.34879 6.36765 4.11969 11.8593C-2.32403 22.8186 -1.56096 39.6404 8.9169 55.4868C8.40811 56.8735 8.71525 58.5078 9.80792 59.6337L12.5834 62.4097C13.6028 63.3993 15.0354 63.7142 16.3183 63.3693C15.9998 64.6701 16.3183 66.109 17.312 67.1048L20.0877 69.8809C21.3141 71.0715 23.1335 71.2777 24.5764 70.532C24.4733 71.6635 24.8243 72.8363 25.6729 73.6849L28.4485 76.4267C29.7075 77.686 31.5809 77.8682 33.04 77.0436C32.9577 78.1538 33.3048 79.2961 34.1365 80.128L36.9464 82.8696C38.4412 84.4003 40.9108 84.3643 42.3946 82.8353L48.4254 76.6322L49.145 77.249C50.6344 78.6827 53.0314 78.7316 54.5247 77.2834L57.6086 74.2675C58.6626 73.2425 58.9448 71.7216 58.5337 70.3948C59.7641 70.4769 60.592 70.5104 62.0629 69.264C63.9705 67.4336 66.8255 64.702 67.0314 63.1979C67.0763 62.8571 67.0314 62.5103 66.9634 62.1697C68.249 62.4777 69.6627 62.1087 70.6641 61.1074C71.6128 60.1697 72.5995 59.2113 73.5081 58.2629C74.9626 56.7654 75.0516 54.4318 73.7137 52.8823C74.7868 52.9386 75.8772 52.5677 76.6949 51.7513L79.5732 48.9068C80.6037 47.8761 80.9176 46.4012 80.5669 45.0684C86.245 30.8601 84.6408 17.0347 77.5173 8.5008C73.0576 3.15821 66.4224 -0.079398 58.1914 0.00148059C53.3192 0.0493988 47.9044 1.27798 42.0179 3.87414C35.9515 1.18919 30.3485 -0.0122754 25.3645 0.00142233ZM25.3645 1.09812C30.0254 1.08552 35.2855 2.19492 41.024 4.66235L25.947 21.1126C25.3364 21.7734 24.8775 22.3815 24.5764 22.929C24.2752 23.4767 24.0916 23.9817 24.1995 24.5055C24.307 25.0292 24.744 25.4514 25.2617 25.6707C25.7794 25.89 26.4083 25.993 27.2149 26.0134H39.4135C39.5715 26.0087 39.7259 25.9312 39.8247 25.8078L50.3786 14.1212C59.7632 24.1742 69.4666 33.9871 78.7848 44.0745C79.8883 45.1781 79.8868 47.048 78.7848 48.1528C77.8247 49.0904 76.8261 50.0487 75.9065 50.9972C74.8804 52.0235 73.2855 52.0706 72.1716 51.2029C65.7496 44.7547 59.3689 38.2059 52.9824 31.7024C52.8848 31.5996 52.7469 31.5366 52.6055 31.5311C52.1471 31.4881 51.8471 32.1883 52.1943 32.4906C58.95 39.5408 66.011 46.4457 72.7529 53.4304C73.8553 54.533 73.8339 56.3542 72.7189 57.5087L69.8748 60.3533C68.8276 61.4007 67.1534 61.4492 66.0713 60.5246C59.3436 53.5349 52.5879 46.4926 45.8548 39.482C45.7496 39.371 45.5965 39.3071 45.4437 39.3106C45.0251 39.3267 44.7785 39.932 45.0667 40.2361C51.8263 47.2266 58.5691 54.365 65.3182 61.313C65.8742 61.869 66.0162 62.4488 65.9349 63.0607C65.8021 64.1922 62.846 66.9522 61.2745 68.5099C60.2647 69.491 58.7321 69.6549 57.6767 68.8868C55.6389 66.4943 53.7966 64.5596 51.5102 62.2727C50.7451 61.5076 49.7623 61.165 48.7689 61.176C48.4378 61.176 48.0962 61.2247 47.7752 61.3131C48.0934 60.0104 47.7752 58.5629 46.7815 57.5433L44.0059 54.8016C43.2394 54.0574 42.2545 53.6939 41.2647 53.7049C40.9457 53.7049 40.6153 53.7612 40.3052 53.8419C40.6314 52.549 40.2942 51.0908 39.2773 50.0721L36.5018 47.3303C35.7372 46.5881 34.7522 46.1931 33.7605 46.1993C33.4409 46.1993 33.1117 46.2901 32.801 46.3708C33.1281 45.0708 32.7901 43.6316 31.7731 42.6352L29.0318 39.8592C28.2831 39.1103 27.2872 38.7565 26.2906 38.7625C25.2939 38.7682 24.2964 39.1579 23.5493 39.9277C18.9762 44.6799 14.3023 49.3784 9.77447 54.1504C9.67798 54.2475 9.61835 54.3539 9.53467 54.4588C-0.480129 39.0231 -1.0705 22.81 5.04579 12.4078C8.14004 7.14521 12.9585 3.34588 19.1633 1.81788C21.1022 1.34039 23.1541 1.10414 25.3645 1.09812ZM58.1911 1.09812C66.1255 1.00249 72.4025 4.08544 76.6603 9.18618C83.3056 17.147 84.9933 30.1278 79.8813 43.6974C79.8265 43.6248 79.7706 43.5609 79.71 43.4918C70.1496 33.2876 60.4343 23.1188 50.7898 12.956C50.5847 12.7235 50.1724 12.7235 49.9674 12.956L39.1736 24.9167H27.2491C26.5209 24.8983 25.9808 24.773 25.6729 24.6425C25.365 24.5121 25.2899 24.4367 25.2617 24.2999C25.2332 24.163 25.3023 23.8669 25.5358 23.4431C25.7689 23.0193 26.1612 22.4878 26.7351 21.8666C31.9325 16.2137 37.1281 10.5501 42.3258 4.90227C48.1472 2.31786 53.4613 1.15513 58.1911 1.09812ZM26.2897 39.8591C27.0026 39.8591 27.7094 40.1139 28.2428 40.6473C29.1668 41.5715 30.0969 42.5018 31.0184 43.4233C32.1209 44.4936 32.0947 46.2554 31.0184 47.3645C26.5004 52.0978 21.9065 56.8084 17.3464 61.5186C16.163 62.7283 14.3428 62.5063 13.3716 61.6214C12.4332 60.7566 11.5107 59.7945 10.596 58.8796C9.52172 57.7661 9.50088 55.9652 10.562 54.9042L24.3369 40.6815C24.8718 40.1306 25.5771 39.8629 26.2897 39.8591ZM33.7596 47.2959C34.4677 47.2959 35.1907 47.5784 35.747 48.1185L38.4883 50.8602C39.6002 51.9724 39.5893 53.7687 38.5223 54.8357C33.7985 59.8072 28.8646 64.8077 24.7814 69.0583C23.7093 70.1619 21.9534 70.1669 20.8408 69.0927L18.0996 66.3168C16.9656 65.0498 17.2995 63.2662 18.1686 62.2384L31.8063 48.1529C32.3434 47.5996 33.0516 47.2993 33.7596 47.2959ZM41.2638 54.7672C41.9737 54.7576 42.6968 55.0172 43.2513 55.5553L45.9926 58.3313C47.0668 59.4449 47.0973 61.238 46.0265 62.3411C41.4902 66.8676 37.0481 71.7185 33.1424 75.6384C32.0648 76.7489 30.3137 76.7848 29.2018 75.6728L26.4605 72.8968C25.3899 71.826 25.3538 70.0265 26.4265 68.9213C30.9191 64.2752 35.46 59.5728 39.3099 55.5897C39.9119 55.0214 40.5929 54.781 41.2638 54.7672ZM48.768 62.2383C49.4744 62.2288 50.1652 62.5047 50.7211 63.0608C51.7255 64.0678 52.8233 65.1397 53.7705 66.1452C54.5874 67.1604 54.4998 68.7792 53.5307 69.778L41.6062 82.0814C40.5284 83.1919 38.8043 83.2184 37.7341 82.1157C36.7865 81.2412 35.8501 80.2656 34.9243 79.3397C33.9082 78.3208 33.836 76.6468 34.753 75.5357C38.772 71.3933 42.8005 67.226 46.8148 63.0951C47.4111 62.5109 48.0927 62.2642 48.768 62.2383ZM55.3813 68.0303C55.8859 68.6538 56.4007 69.1823 56.8547 69.6409C57.89 70.7086 57.9156 72.4504 56.8547 73.4793L53.7708 76.4952C52.7031 77.5267 50.9732 77.5029 49.8987 76.4608L49.2134 75.8097L54.3191 70.5661C55.0054 69.859 55.3365 68.9485 55.3813 68.0303Z" fill="#FFEAB4"/>
</svg>
