<svg width="135" height="46" viewBox="0 0 135 46" fill="none" xmlns="http://www.w3.org/2000/svg">
<rect x="14.6895" y="12.9058" width="2.96163" height="32.8148" fill="#FFCA42"/>
<rect x="2.96289" y="33.9927" width="2.96163" height="33.4071" transform="rotate(180 2.96289 33.9927)" fill="#0C1621"/>
<rect x="7.3457" y="25.7" width="2.96163" height="20.0206" fill="#FFCA42"/>
<rect x="10.3066" y="21.3167" width="2.96163" height="20.7314" transform="rotate(180 10.3066 21.3167)" fill="#0C1621"/>
<rect y="38.3391" width="2.94185" height="7.35463" fill="#FFCA42"/>
<rect x="17.6504" y="8.43042" width="2.94185" height="7.84493" transform="rotate(180 17.6504 8.43042)" fill="#0C1621"/>
<path d="M36.6267 29.6531H34.6133V17.0459H36.6267V29.6531ZM41.5755 18.8711H29.6457V17.0459H41.5755V18.8711ZM48.9551 29.8412C47.6379 29.8412 46.4838 29.5778 45.4928 29.0509C44.5143 28.5115 43.7491 27.7589 43.1972 26.7929C42.6577 25.8145 42.388 24.6666 42.388 23.3495C42.388 22.0323 42.6577 20.8908 43.1972 19.9248C43.7491 18.9464 44.5143 18.1937 45.4928 17.6668C46.4838 17.1274 47.6379 16.8577 48.9551 16.8577C50.2973 16.8577 51.4577 17.1274 52.4362 17.6668C53.4146 18.1937 54.1736 18.9464 54.713 19.9248C55.2649 20.8908 55.5409 22.0323 55.5409 23.3495C55.5409 24.6666 55.2649 25.8145 54.713 26.7929C54.1736 27.7589 53.4146 28.5115 52.4362 29.0509C51.4577 29.5778 50.2973 29.8412 48.9551 29.8412ZM48.9551 27.8843C49.9461 27.8843 50.7678 27.7275 51.4201 27.4139C52.0849 27.0877 52.5804 26.5922 52.9066 25.9274C53.2327 25.25 53.3958 24.3907 53.3958 23.3495C53.3958 22.2957 53.2327 21.4364 52.9066 20.7716C52.5804 20.1067 52.0849 19.6175 51.4201 19.3039C50.7678 18.9777 49.9461 18.8146 48.9551 18.8146C47.9641 18.8146 47.1361 18.9777 46.4713 19.3039C45.8189 19.6175 45.3297 20.1067 45.0036 20.7716C44.6899 21.4364 44.5331 22.2957 44.5331 23.3495C44.5331 24.3907 44.6899 25.25 45.0036 25.9274C45.3297 26.5922 45.8189 27.0877 46.4713 27.4139C47.1361 27.7275 47.9641 27.8843 48.9551 27.8843ZM63.2142 25.8521H57.8138V24.0269H63.026C63.9794 24.0269 64.6944 23.8324 65.1711 23.4436C65.6604 23.0547 65.905 22.3898 65.905 21.449C65.905 20.5207 65.6604 19.8621 65.1711 19.4732C64.6944 19.0718 63.9794 18.8711 63.026 18.8711H57.8138V17.0459H63.2142C64.155 17.0459 64.9767 17.2215 65.6792 17.5727C66.3942 17.9114 66.9462 18.4069 67.335 19.0593C67.7365 19.7116 67.9372 20.5081 67.9372 21.449C67.9372 22.3773 67.7365 23.1676 67.335 23.8199C66.9462 24.4722 66.3942 24.974 65.6792 25.3252C64.9767 25.6765 64.155 25.8521 63.2142 25.8521ZM59.0745 29.6531H57.0423V17.0459H59.0745V29.6531ZM74.4394 29.8412C73.1975 29.8412 72.15 29.6656 71.297 29.3144C70.4565 28.9631 69.823 28.4676 69.3965 27.8279C68.97 27.1755 68.7567 26.4103 68.7567 25.5322V25.4193H70.7889V25.7204C70.7889 26.2222 70.9018 26.6424 71.1276 26.9811C71.3535 27.3073 71.7298 27.5581 72.2567 27.7338C72.7835 27.8968 73.5111 27.9784 74.4394 27.9784C75.2422 27.9784 75.882 27.9219 76.3587 27.809C76.8354 27.6836 77.1741 27.4954 77.3748 27.2445C77.5881 26.9811 77.6947 26.6549 77.6947 26.2661C77.6947 25.7141 77.5191 25.3127 77.1678 25.0618C76.8166 24.8109 76.2458 24.6102 75.4555 24.4597L72.3696 23.9516C71.6671 23.8136 71.0398 23.6129 70.4879 23.3495C69.9359 23.0735 69.5031 22.7097 69.1895 22.2581C68.8885 21.794 68.7379 21.2169 68.7379 20.527C68.7379 20.0754 68.8383 19.63 69.039 19.191C69.2397 18.7519 69.5533 18.3568 69.9798 18.0055C70.4063 17.6543 70.9583 17.3783 71.6357 17.1776C72.3256 16.9643 73.1661 16.8577 74.1571 16.8577C75.3865 16.8577 76.3963 17.0459 77.1866 17.4222C77.9769 17.7985 78.5603 18.3129 78.9366 18.9652C79.3255 19.6049 79.5199 20.3388 79.5199 21.1667V21.2796H77.5065V21.035C77.5065 20.5207 77.3936 20.0942 77.1678 19.7555C76.942 19.4042 76.572 19.1471 76.0576 18.984C75.5433 18.8084 74.8471 18.7206 73.969 18.7206C73.2038 18.7206 72.5828 18.7833 72.1061 18.9087C71.642 19.0342 71.3033 19.2223 71.09 19.4732C70.8768 19.7116 70.7701 20.0252 70.7701 20.4141C70.7701 20.7653 70.8454 21.0538 70.9959 21.2796C71.1465 21.5054 71.3785 21.6873 71.6922 21.8253C72.0058 21.9508 72.4072 22.0699 72.8964 22.1828L75.9636 22.7097C76.804 22.8602 77.5002 23.086 78.0522 23.3871C78.6167 23.6882 79.0369 24.0708 79.3129 24.5349C79.5889 24.9991 79.7269 25.5385 79.7269 26.1532C79.7269 26.7929 79.545 27.3951 79.1812 27.9596C78.8174 28.5241 78.2466 28.9819 77.4689 29.3332C76.6911 29.6719 75.6813 29.8412 74.4394 29.8412ZM87.0028 29.8412C85.7484 29.8412 84.6821 29.628 83.804 29.2015C82.9258 28.775 82.2547 28.1603 81.7906 27.3574C81.3264 26.542 81.0943 25.5636 81.0943 24.422V17.0459H83.1077V24.2903C83.1077 25.1433 83.2395 25.8333 83.5029 26.3601C83.7789 26.887 84.1991 27.2759 84.7636 27.5268C85.3407 27.7651 86.0871 27.8843 87.0028 27.8843C87.9311 27.8843 88.6775 27.7651 89.242 27.5268C89.819 27.2759 90.2393 26.887 90.5027 26.3601C90.7661 25.8333 90.8979 25.1433 90.8979 24.2903V17.0459H92.9301V24.422C92.9301 25.5636 92.698 26.542 92.2339 27.3574C91.7697 28.1603 91.0986 28.775 90.2205 29.2015C89.3423 29.628 88.2698 29.8412 87.0028 29.8412ZM96.7631 29.6531H94.7309V17.0459H96.7631V29.6531ZM104.911 29.6531H102.897V17.0459H104.911V29.6531ZM109.86 18.8711H97.9299V17.0459H109.86V18.8711ZM113.081 29.6531H111.049V17.0459H113.081V29.6531ZM121.134 29.6531H111.669V27.8279H121.134V29.6531ZM120.852 24.215H111.669V22.4086H120.852V24.215ZM121.134 18.8711H111.669V17.0459H121.134V18.8711ZM128.005 29.8412C126.763 29.8412 125.715 29.6656 124.862 29.3144C124.022 28.9631 123.388 28.4676 122.962 27.8279C122.535 27.1755 122.322 26.4103 122.322 25.5322V25.4193H124.354V25.7204C124.354 26.2222 124.467 26.6424 124.693 26.9811C124.919 27.3073 125.295 27.5581 125.822 27.7338C126.349 27.8968 127.076 27.9784 128.005 27.9784C128.807 27.9784 129.447 27.9219 129.924 27.809C130.401 27.6836 130.739 27.4954 130.94 27.2445C131.153 26.9811 131.26 26.6549 131.26 26.2661C131.26 25.7141 131.084 25.3127 130.733 25.0618C130.382 24.8109 129.811 24.6102 129.021 24.4597L125.935 23.9516C125.232 23.8136 124.605 23.6129 124.053 23.3495C123.501 23.0735 123.068 22.7097 122.755 22.2581C122.454 21.794 122.303 21.2169 122.303 20.527C122.303 20.0754 122.403 19.63 122.604 19.191C122.805 18.7519 123.119 18.3568 123.545 18.0055C123.972 17.6543 124.524 17.3783 125.201 17.1776C125.891 16.9643 126.731 16.8577 127.722 16.8577C128.952 16.8577 129.962 17.0459 130.752 17.4222C131.542 17.7985 132.125 18.3129 132.502 18.9652C132.891 19.6049 133.085 20.3388 133.085 21.1667V21.2796H131.072V21.035C131.072 20.5207 130.959 20.0942 130.733 19.7555C130.507 19.4042 130.137 19.1471 129.623 18.984C129.109 18.8084 128.412 18.7206 127.534 18.7206C126.769 18.7206 126.148 18.7833 125.671 18.9087C125.207 19.0342 124.868 19.2223 124.655 19.4732C124.442 19.7116 124.335 20.0252 124.335 20.4141C124.335 20.7653 124.411 21.0538 124.561 21.2796C124.712 21.5054 124.944 21.6873 125.257 21.8253C125.571 21.9508 125.972 22.0699 126.462 22.1828L129.529 22.7097C130.369 22.8602 131.065 23.086 131.617 23.3871C132.182 23.6882 132.602 24.0708 132.878 24.5349C133.154 24.9991 133.292 25.5385 133.292 26.1532C133.292 26.7929 133.11 27.3951 132.746 27.9596C132.383 28.5241 131.812 28.9819 131.034 29.3332C130.256 29.6719 129.247 29.8412 128.005 29.8412Z" fill="#0C1621"/>
</svg>
