<svg width="181" height="158" viewBox="0 0 181 158" fill="none" xmlns="http://www.w3.org/2000/svg">
<mask id="mask0_4201_10037" style="mask-type:alpha" maskUnits="userSpaceOnUse" x="0" y="0" width="181" height="158">
<path d="M181 0H0V158H181V0Z" fill="#0C1621"/>
</mask>
<g mask="url(#mask0_4201_10037)">
<mask id="mask1_4201_10037" style="mask-type:alpha" maskUnits="userSpaceOnUse" x="0" y="0" width="181" height="241">
<path fill-rule="evenodd" clip-rule="evenodd" d="M180.624 93.9666C180.675 92.7209 180.7 91.4687 180.7 90.2104C180.7 40.3886 140.249 0 90.3502 0C40.4512 0 0 40.3886 0 90.2104C0 90.6502 0.00315199 91.0892 0.00943464 91.5275H0V241H180.624V93.9666Z" fill="#D9D9D9"/>
</mask>
<g mask="url(#mask1_4201_10037)">
<path d="M181 0H0V158H181V0Z" fill="#0C1621"/>
<path d="M66.8523 75.5226C66.0578 74.7281 65.6211 73.6728 65.6211 72.5446V61.2029C65.6211 60.0748 66.0578 59.0195 66.8523 58.2249C67.6468 57.4304 68.7021 56.9937 69.8303 56.9937H109.872C111.001 56.9937 112.056 57.4304 112.85 58.2249C113.645 59.0195 114.082 60.0748 114.082 61.2029V72.5446C114.082 73.6728 113.645 74.7281 112.85 75.5226C112.056 76.3171 111.001 76.7538 109.872 76.7538H69.8303C68.7021 76.7538 67.6468 76.3171 66.8523 75.5226ZM111.637 59.438C111.164 58.9649 110.54 58.7041 109.872 58.7041H69.8302C69.1631 58.7041 68.5384 58.9649 68.0653 59.438C67.5922 59.911 67.3314 60.5357 67.3314 61.2029V72.5446C67.3314 73.879 68.4959 75.0435 69.8303 75.0435H109.872C110.54 75.0435 111.164 74.7827 111.637 74.3096C112.11 73.8365 112.371 73.2118 112.371 72.5446V61.2029C112.371 60.5357 112.111 59.911 111.637 59.438Z" fill="#FFEAB4" stroke="#FFEAB4"/>
<path d="M89.247 97.3699C89.0893 97.2122 88.9983 96.9999 88.9922 96.7633V87.7627C88.9922 87.3746 89.247 87.0349 89.6291 86.9318L118.923 79.0836V67.8995L113.198 67.7297C112.724 67.7176 112.348 67.3173 112.367 66.8502C112.379 66.3772 112.773 66.0072 113.246 66.0193L119.796 66.2134C120.257 66.2255 120.627 66.6076 120.627 67.0686V79.7447C120.627 80.1328 120.373 80.4725 119.99 80.5756L90.6965 88.4238V96.7694C90.6965 97.2425 90.3144 97.6246 89.8413 97.6246C89.5987 97.6246 89.3925 97.5275 89.2348 97.3699H89.247Z" fill="#FFEAB4" stroke="#FFEAB4"/>
<path d="M84.7157 124.34C84.558 124.183 84.467 123.97 84.4609 123.734V96.7561C84.4609 96.283 84.843 95.9009 85.3161 95.9009H94.3895C94.8505 95.9009 95.2507 96.3012 95.2447 96.7561V123.734C95.2447 123.964 95.1537 124.177 94.9899 124.34C94.8262 124.504 94.6079 124.589 94.3834 124.595H85.31C85.0674 124.595 84.8612 124.498 84.7035 124.34H84.7157ZM86.1834 97.6173V122.873H93.5465V97.6173H86.1834Z" fill="#FFEAB4" stroke="#FFEAB4"/>
<g filter="url(#filter0_f_4201_10037)">
<path d="M111.062 -48.5216C114.327 -49.7629 117.734 -51.1627 121.226 -51.8149C100.976 -8.66989 133.111 -19.3468 136.273 -21.8816C139.046 -24.1042 137.886 -56.5835 141.509 -58.0358C146.826 -60.1672 165.835 -20.6563 171.49 -21.8816C183.18 -24.4144 184.622 -65.6285 196.265 -62.3418C203.06 -60.4239 215.56 -55.4815 218.241 -48.3166C219.623 -44.6251 219.683 -40.5994 218.855 -36.7518C217.239 -29.2418 217.171 -20.6344 214.599 -13.4174C211.086 -3.56108 201.86 3.7616 194.383 10.5322C188.438 15.9152 182.782 22.4265 175.558 26.1159C165.947 31.0238 153.825 30.9468 143.31 31.6932C132.996 32.4253 121.462 32.2156 111.635 28.6175C104.673 26.0685 98.674 25.4597 91.1322 25.4597C73.6131 25.4597 54.5968 27.3832 37.8903 32.9235C25.8427 36.9189 15.4093 43.783 4.61926 50.2706C-21.8208 66.1679 -47.8525 81.4739 -71.2126 101.902C-83.5185 112.663 -96.8819 121.951 -110.091 131.511C-111.71 132.683 -112.137 127.363 -112.137 126.794C-112.137 121.309 -111.737 116.819 -110.172 111.457C-106 97.1587 -93.7086 93.6291 -84.9555 81.3856C-73.4337 65.2694 -59.3649 60.2789 -42.1751 50.2706C-18.4505 36.4575 4.03315 31.1028 28.4953 18.62C45.9711 9.70219 81.4688 6.28483 98.4566 -3.49309C109.554 -9.88081 99.1212 -43.9828 111.062 -48.5216Z" fill="#FFBC7E" fill-opacity="0.46"/>
</g>
</g>
</g>
<defs>
<filter id="filter0_f_4201_10037" x="-197.53" y="-147.922" width="502.322" height="364.995" filterUnits="userSpaceOnUse" color-interpolation-filters="sRGB">
<feFlood flood-opacity="0" result="BackgroundImageFix"/>
<feBlend mode="normal" in="SourceGraphic" in2="BackgroundImageFix" result="shape"/>
<feGaussianBlur stdDeviation="42.6968" result="effect1_foregroundBlur_4201_10037"/>
</filter>
</defs>
</svg>
