<svg width="24" height="24" viewBox="0 0 24 24" fill="none" xmlns="http://www.w3.org/2000/svg">
<path d="M2.33301 10.3369C2.01976 10.0472 2.18992 9.52353 2.61361 9.47329L8.61719 8.76149C8.78987 8.74101 8.93986 8.63222 9.0127 8.47431L11.5449 2.98445C11.7236 2.59701 12.2744 2.59696 12.4531 2.9844L14.9854 8.47439C15.0582 8.63229 15.2072 8.74102 15.3799 8.7615L21.3838 9.47329C21.8075 9.52353 21.9775 10.0473 21.6643 10.3369L17.226 14.4417C17.0983 14.5597 17.0413 14.7357 17.0752 14.9063L18.2532 20.8361C18.3363 21.2546 17.891 21.5782 17.5187 21.3698L12.2433 18.4169C12.0916 18.3319 11.9068 18.3318 11.755 18.4168L6.47913 21.3698C6.10683 21.5782 5.66099 21.2546 5.74414 20.8361L6.92242 14.9062C6.95631 14.7357 6.89938 14.5598 6.77172 14.4417L2.33301 10.3369Z" fill="#FFEAB4" stroke="#FFEAB4" stroke-width="2" stroke-linecap="round" stroke-linejoin="round"/>
</svg>
